<svg xmlns="http://www.w3.org/2000/svg" width="198" height="61" viewBox="0 0 198 61">
  <g fill="none">
    <rect width="198" height="61"/>
    <g transform="translate(41.885 8.896)">
      <path fill="#F90" d="M14.6483113,41.9084249 L7.96134916,39.5266907 L7.96134916,29.7991354 L14.6483113,32.06041 L14.6483113,41.9084249 M15.8749534,41.9084249 L22.5619156,39.5271335 L22.5619156,29.7991354 L15.8749534,32.06041 L15.8749534,41.9084249 M8.64851863,29.0715063 L15.4162455,27.1804678 L21.6917984,29.1888658 L15.4162455,31.3035518 L8.64851863,29.0715063 M6.68696214,28.318191 L0,25.9373425 L0,16.2089015 L6.68696214,18.4701761 L6.68696214,28.318191 M7.91360427,28.318191 L14.6010126,25.9373425 L14.6010126,16.2089015 L7.91360427,18.4701761 L7.91360427,28.318191 M0.687169471,15.4808295 L7.45534255,13.5902339 L13.7308954,15.5986319 L7.45534255,17.7133179 L0.687169471,15.4812724 M22.2906175,28.318191 L15.6032091,25.9373425 L15.6032091,16.2089015 L22.2906175,18.4701761 L22.2906175,28.318191 M23.5172596,28.318191 L30.204668,25.9373425 L30.204668,16.2089015 L23.5172596,18.4701761 L23.5172596,28.318191 M16.291271,15.4808295 L23.0589979,13.5902339 L29.3341046,15.5986319 L23.0589979,17.7133179 L16.291271,15.4812724 M30.2519666,14.7270713 L23.5645583,12.3471086 L23.5645583,2.61866761 L30.2519666,4.87949937 L30.2519666,14.7270713 M31.4786088,14.7270713 L38.1655709,12.3471086 L38.1655709,2.61866761 L31.4781626,4.87949937 L31.4781626,14.7270713 M24.252174,1.89103851 L31.0203471,0 L37.2954537,2.00795518 L31.0203471,4.12308396 L24.252174,1.89103851 M45.8560682,14.7270713 L39.1686599,12.3471086 L39.1686599,2.61866761 L45.8560682,4.87949937 L45.8560682,14.7270713 M47.0822641,14.7270713 L53.7696725,12.3471086 L53.7696725,2.61866761 L47.0822641,4.87949937 L47.0822641,14.7270713 M39.8558293,1.89103851 L46.6240024,0 L52.8991091,2.00795518 L46.6240024,4.1226411 L39.8558293,1.89059564"/>
      <polygon fill="#000" points="42.461 35.303 40.215 43.048 39.239 43.048 37.49 37.295 35.887 43.048 34.892 43.048 32.556 35.303 33.763 35.303 35.463 41.075 37.082 35.303 37.973 35.303 39.733 41.093 41.48 35.303 42.461 35.303"/>
      <polygon fill="#000" stroke="#000" stroke-width=".702" points="42.461 35.303 40.215 43.048 39.239 43.048 37.49 37.295 35.887 43.048 34.892 43.048 32.556 35.303 33.763 35.303 35.463 41.075 37.082 35.303 37.973 35.303 39.733 41.093 41.48 35.303 42.461 35.303"/>
      <path fill="#000" d="M49.1567127,40.9524034 L50.2874189,41.1826938 C50.0817142,41.8447787 49.6805679,42.3934899 49.0848723,42.8270558 C48.487838,43.2610647 47.7863897,43.4780691 46.9787425,43.4780691 C45.9145222,43.4780691 45.0533293,43.1060615 44.3951638,42.3611606 C43.736552,41.6171455 43.4076923,40.6401827 43.4076923,39.4324867 C43.4076923,38.1991044 43.7499384,37.2026556 44.4335382,36.4426972 C45.1171379,35.6827389 45.9760998,35.3027597 47.0099775,35.3027597 C48.0286839,35.3027597 48.8470403,35.652624 49.4668314,36.3523525 C50.0861764,37.0520811 50.4038807,38.0990167 50.4194982,39.4931594 L44.7557046,39.4931594 C44.7557046,40.6645404 45.0020147,41.4541707 45.4955273,41.8638219 C45.9885937,42.2725874 46.5102178,42.4771916 47.0599534,42.4771916 C48.051887,42.4771916 48.7511043,41.9687812 49.1567127,40.9524034 Z M49.0906731,38.5954697 C49.0804102,38.1614608 49.0085697,37.7752815 48.8747055,37.4378175 C48.7408413,37.1007964 48.5150571,36.8133762 48.1964603,36.5755571 C47.8778636,36.3381808 47.4945658,36.2194927 47.0474594,36.2194927 C46.4464093,36.2194927 45.9363867,36.4338399 45.5173918,36.8634201 C45.0983969,37.2930003 44.8636884,37.869612 44.8123738,38.5950268 L49.0906731,38.5950268 L49.0906731,38.5954697 Z"/>
      <path fill="#000" stroke="#000" stroke-width=".702" d="M49.1567127,40.9524034 L50.2874189,41.1826938 C50.0817142,41.8447787 49.6805679,42.3934899 49.0848723,42.8270558 C48.487838,43.2610647 47.7863897,43.4780691 46.9787425,43.4780691 C45.9145222,43.4780691 45.0533293,43.1060615 44.3951638,42.3611606 C43.736552,41.6171455 43.4076923,40.6401827 43.4076923,39.4324867 C43.4076923,38.1991044 43.7499384,37.2026556 44.4335382,36.4426972 C45.1171379,35.6827389 45.9760998,35.3027597 47.0099775,35.3027597 C48.0286839,35.3027597 48.8470403,35.652624 49.4668314,36.3523525 C50.0861764,37.0520811 50.4038807,38.0990167 50.4194982,39.4931594 L44.7557046,39.4931594 C44.7557046,40.6645404 45.0020147,41.4541707 45.4955273,41.8638219 C45.9885937,42.2725874 46.5102178,42.4771916 47.0599534,42.4771916 C48.051887,42.4771916 48.7511043,41.9687812 49.1567127,40.9524034 Z M49.0906731,38.5954697 C49.0804102,38.1614608 49.0085697,37.7752815 48.8747055,37.4378175 C48.7408413,37.1007964 48.5150571,36.8133762 48.1964603,36.5755571 C47.8778636,36.3381808 47.4945658,36.2194927 47.0474594,36.2194927 C46.4464093,36.2194927 45.9363867,36.4338399 45.5173918,36.8634201 C45.0983969,37.2930003 44.8636884,37.869612 44.8123738,38.5950268 L49.0906731,38.5950268 L49.0906731,38.5954697 Z"/>
      <path fill="#000" d="M52.5595403,42.9131617 L51.975,42.9131617 L51.975,32.455763 L53.190933,32.455763 L53.190933,36.4592731 C53.7460231,35.4548526 54.51128,34.9530853 55.4871499,34.9530853 C56.3804703,34.9530853 57.1292172,35.3033924 57.7329447,36.0048924 C58.3366722,36.7059495 58.638759,37.7240988 58.638759,39.0597832 C58.638759,40.2112352 58.3415805,41.1766834 57.748116,41.9574565 C57.153759,42.7382295 56.3813627,43.1283946 55.4300346,43.1283946 C54.3707227,43.1283946 53.5586133,42.6292845 52.9932602,41.631507 L52.5595403,42.9131617 Z M53.190933,39.8764284 C53.2476022,40.671816 53.493466,41.2484278 53.9280784,41.6080351 C54.3626908,41.9667567 54.8222912,42.1465603 55.3055409,42.1465603 C55.923101,42.1465603 56.4210757,41.8803978 56.7990189,41.3480726 C57.1774084,40.8161904 57.3657106,40.0872327 57.3657106,39.1611995 C57.3657106,38.1643078 57.1836553,37.3799918 56.8182061,36.8095802 C56.4527569,36.2391686 55.9458579,35.9535199 55.2979552,35.9535199 C54.7888251,35.9535199 54.329671,36.1572384 53.9204928,36.5624609 C53.5113146,36.969012 53.268128,37.4938084 53.190933,38.137293 L53.190933,39.8764284 Z"/>
      <path fill="#000" stroke="#000" stroke-width=".702" d="M52.5595403,42.9131617 L51.975,42.9131617 L51.975,32.455763 L53.190933,32.455763 L53.190933,36.4592731 C53.7460231,35.4548526 54.51128,34.9530853 55.4871499,34.9530853 C56.3804703,34.9530853 57.1292172,35.3033924 57.7329447,36.0048924 C58.3366722,36.7059495 58.638759,37.7240988 58.638759,39.0597832 C58.638759,40.2112352 58.3415805,41.1766834 57.748116,41.9574565 C57.153759,42.7382295 56.3813627,43.1283946 55.4300346,43.1283946 C54.3707227,43.1283946 53.5586133,42.6292845 52.9932602,41.631507 L52.5595403,42.9131617 Z M53.190933,39.8764284 C53.2476022,40.671816 53.493466,41.2484278 53.9280784,41.6080351 C54.3626908,41.9667567 54.8222912,42.1465603 55.3055409,42.1465603 C55.923101,42.1465603 56.4210757,41.8803978 56.7990189,41.3480726 C57.1774084,40.8161904 57.3657106,40.0872327 57.3657106,39.1611995 C57.3657106,38.1643078 57.1836553,37.3799918 56.8182061,36.8095802 C56.4527569,36.2391686 55.9458579,35.9535199 55.2979552,35.9535199 C54.7888251,35.9535199 54.329671,36.1572384 53.9204928,36.5624609 C53.5113146,36.969012 53.268128,37.4938084 53.190933,38.137293 L53.190933,39.8764284 Z"/>
      <path fill="#000" d="M61.6846154,41.2557667 L62.843433,41.0179476 C63.1013447,41.9909245 63.9156851,42.4771916 65.2860081,42.4771916 C65.7902299,42.4771916 66.2185953,42.3651464 66.568427,42.1406133 C66.9191511,41.916523 67.094067,41.6003166 67.094067,41.1924368 C67.094067,40.5857102 66.6482993,40.2008595 65.7563176,40.0378847 L64.1129117,39.7274356 C63.4690249,39.6047616 62.9572175,39.3642853 62.5761508,39.0064494 C62.1955303,38.6486136 62.004997,38.1756325 62.004997,37.5875063 C62.004997,36.9387073 62.2646935,36.3953106 62.7845328,35.9582017 C63.3039258,35.5210928 64.0040355,35.3027597 64.8839694,35.3027597 C66.576905,35.3027597 67.6219381,35.9595303 68.0177299,37.2726284 L66.9057647,37.5100047 C66.5867218,36.7057597 65.9312335,36.3031944 64.9388537,36.3031944 C64.4448948,36.3031944 64.0397326,36.4041679 63.7233669,36.6047863 C63.4074474,36.8058475 63.2490415,37.0866246 63.2490415,37.4480034 C63.2490415,38.0170864 63.6533113,38.3753652 64.4614047,38.5232825 L65.9807632,38.8009596 C67.5715159,39.0870511 68.366223,39.8532096 68.366223,41.0972206 C68.366223,41.8084637 68.0703831,42.3837468 67.4782572,42.8208557 C66.8861313,43.2592932 66.0981175,43.4780691 65.1142157,43.4780691 C63.2655514,43.4780691 62.121905,42.737154 61.6846154,41.2557667 Z"/>
      <path fill="#000" stroke="#000" stroke-width=".702" d="M61.6846154,41.2557667 L62.843433,41.0179476 C63.1013447,41.9909245 63.9156851,42.4771916 65.2860081,42.4771916 C65.7902299,42.4771916 66.2185953,42.3651464 66.568427,42.1406133 C66.9191511,41.916523 67.094067,41.6003166 67.094067,41.1924368 C67.094067,40.5857102 66.6482993,40.2008595 65.7563176,40.0378847 L64.1129117,39.7274356 C63.4690249,39.6047616 62.9572175,39.3642853 62.5761508,39.0064494 C62.1955303,38.6486136 62.004997,38.1756325 62.004997,37.5875063 C62.004997,36.9387073 62.2646935,36.3953106 62.7845328,35.9582017 C63.3039258,35.5210928 64.0040355,35.3027597 64.8839694,35.3027597 C66.576905,35.3027597 67.6219381,35.9595303 68.0177299,37.2726284 L66.9057647,37.5100047 C66.5867218,36.7057597 65.9312335,36.3031944 64.9388537,36.3031944 C64.4448948,36.3031944 64.0397326,36.4041679 63.7233669,36.6047863 C63.4074474,36.8058475 63.2490415,37.0866246 63.2490415,37.4480034 C63.2490415,38.0170864 63.6533113,38.3753652 64.4614047,38.5232825 L65.9807632,38.8009596 C67.5715159,39.0870511 68.366223,39.8532096 68.366223,41.0972206 C68.366223,41.8084637 68.0703831,42.3837468 67.4782572,42.8208557 C66.8861313,43.2592932 66.0981175,43.4780691 65.1142157,43.4780691 C63.2655514,43.4780691 62.121905,42.737154 61.6846154,41.2557667 Z"/>
      <path fill="#000" d="M74.8581896,40.9524034 L75.9888957,41.1826938 C75.7836373,41.8447787 75.382491,42.3934899 74.7859029,42.8270558 C74.1897611,43.2610647 73.4874204,43.4780691 72.6806656,43.4780691 C71.6159991,43.4780691 70.75436,43.1060615 70.0966406,42.3611606 C69.4380288,41.6171455 69.1096154,40.6401827 69.1096154,39.4324867 C69.1096154,38.1991044 69.4509691,37.2026556 70.1359075,36.4426972 C70.8195072,35.6827389 71.6780228,35.3027597 72.7119005,35.3027597 C73.7297145,35.3027597 74.5489633,35.652624 75.1687545,36.3523525 C75.7885457,37.0520811 76.1058038,38.0990167 76.1209751,39.4931594 L70.4571815,39.4931594 C70.4571815,40.6645404 70.7039378,41.4541707 71.1970042,41.8638219 C71.6905168,42.2725874 72.2121409,42.4771916 72.7618765,42.4771916 C73.7533639,42.4771916 74.4525811,41.9687812 74.8581896,40.9524034 Z M74.7921499,38.5954697 C74.7823332,38.1614608 74.7100466,37.7752815 74.5766286,37.4378175 C74.4427644,37.1007964 74.2169802,36.8133762 73.8983834,36.5755571 C73.5797867,36.3381808 73.1960427,36.2194927 72.7493825,36.2194927 C72.1483323,36.2194927 71.6383098,36.4338399 71.2188687,36.8634201 C70.80032,37.2930003 70.5647191,37.869612 70.5138507,38.5950268 L74.7921499,38.5950268 L74.7921499,38.5954697 Z"/>
      <path fill="#000" stroke="#000" stroke-width=".702" d="M74.8581896,40.9524034 L75.9888957,41.1826938 C75.7836373,41.8447787 75.382491,42.3934899 74.7859029,42.8270558 C74.1897611,43.2610647 73.4874204,43.4780691 72.6806656,43.4780691 C71.6159991,43.4780691 70.75436,43.1060615 70.0966406,42.3611606 C69.4380288,41.6171455 69.1096154,40.6401827 69.1096154,39.4324867 C69.1096154,38.1991044 69.4509691,37.2026556 70.1359075,36.4426972 C70.8195072,35.6827389 71.6780228,35.3027597 72.7119005,35.3027597 C73.7297145,35.3027597 74.5489633,35.652624 75.1687545,36.3523525 C75.7885457,37.0520811 76.1058038,38.0990167 76.1209751,39.4931594 L70.4571815,39.4931594 C70.4571815,40.6645404 70.7039378,41.4541707 71.1970042,41.8638219 C71.6905168,42.2725874 72.2121409,42.4771916 72.7618765,42.4771916 C73.7533639,42.4771916 74.4525811,41.9687812 74.8581896,40.9524034 Z M74.7921499,38.5954697 C74.7823332,38.1614608 74.7100466,37.7752815 74.5766286,37.4378175 C74.4427644,37.1007964 74.2169802,36.8133762 73.8983834,36.5755571 C73.5797867,36.3381808 73.1960427,36.2194927 72.7493825,36.2194927 C72.1483323,36.2194927 71.6383098,36.4338399 71.2188687,36.8634201 C70.80032,37.2930003 70.5647191,37.869612 70.5138507,38.5950268 L74.7921499,38.5950268 L74.7921499,38.5954697 Z"/>
      <path fill="#000" d="M78.3217022,43.2628361 L77.1057692,43.2628361 L77.1057692,35.5175498 L78.1713281,35.5175498 L78.1713281,37.3231152 C78.5465941,36.4772408 78.9236448,35.9294154 79.301588,35.679196 C79.6795312,35.4280909 80.066845,35.3027597 80.4635291,35.3027597 C80.5866842,35.3027597 80.7464288,35.3120599 80.9418705,35.3306603 L80.9418705,36.4812266 L80.6955604,36.4812266 C80.0271319,36.4812266 79.472488,36.727903 79.0311824,37.2203702 C78.5889844,37.7128374 78.3529372,38.3598649 78.3217022,39.1623383 L78.3217022,43.2628361 Z"/>
      <path fill="#000" stroke="#000" stroke-width=".702" d="M78.3217022,43.2628361 L77.1057692,43.2628361 L77.1057692,35.5175498 L78.1713281,35.5175498 L78.1713281,37.3231152 C78.5465941,36.4772408 78.9236448,35.9294154 79.301588,35.679196 C79.6795312,35.4280909 80.066845,35.3027597 80.4635291,35.3027597 C80.5866842,35.3027597 80.7464288,35.3120599 80.9418705,35.3306603 L80.9418705,36.4812266 L80.6955604,36.4812266 C80.0271319,36.4812266 79.472488,36.727903 79.0311824,37.2203702 C78.5889844,37.7128374 78.3529372,38.3598649 78.3217022,39.1623383 L78.3217022,43.2628361 Z"/>
      <polygon fill="#000" points="88.413 35.303 85.719 43.048 84.459 43.048 81.675 35.303 83.02 35.303 85.186 41.598 87.335 35.303"/>
      <polygon fill="#000" stroke="#000" stroke-width=".702" points="88.413 35.303 85.719 43.048 84.459 43.048 81.675 35.303 83.02 35.303 85.186 41.598 87.335 35.303"/>
      <path fill="#000" d="M89.6711538,32.455763 L90.9718675,32.455763 L90.9718675,33.7932188 L89.6711538,33.7932188 L89.6711538,32.455763 Z M89.727823,35.1678754 L90.9433098,35.1678754 L90.9433098,42.9131617 L89.727823,42.9131617 L89.727823,35.1678754 Z"/>
      <path fill="#000" stroke="#000" stroke-width=".702" d="M89.6711538,32.455763 L90.9718675,32.455763 L90.9718675,33.7932188 L89.6711538,33.7932188 L89.6711538,32.455763 Z M89.727823,35.1678754 L90.9433098,35.1678754 L90.9433098,42.9131617 L89.727823,42.9131617 L89.727823,35.1678754 Z"/>
      <path fill="#000" d="M97.177811,40.5502809 L98.2705889,40.7415991 C98.1161989,41.5976594 97.7739528,42.2677159 97.2438507,42.7517686 C96.7137485,43.2358213 96.0524594,43.4780691 95.2599835,43.4780691 C94.1846079,43.4780691 93.3644666,43.0839182 92.8013447,42.2956164 C92.2382227,41.5077575 91.9557692,40.5458522 91.9557692,39.4094577 C91.9557692,38.2323194 92.2533939,37.254028 92.8477509,36.473255 C93.4416617,35.6929248 94.2510937,35.3027597 95.2751547,35.3027597 C96.1247461,35.3027597 96.8052224,35.5547506 97.3170297,36.059618 C97.8297296,36.5635997 98.1469877,37.2154987 98.2705889,38.0139864 L97.1773648,38.2208049 C96.9716602,36.943136 96.3496379,36.3031944 95.3108519,36.3031944 C94.6424234,36.3031944 94.1283849,36.5853001 93.7687365,37.1495116 C93.4086418,37.714166 93.2288176,38.4457809 93.2288176,39.3443563 C93.2288176,40.3354908 93.4073032,41.1047493 93.7642743,41.6539034 C94.1221379,42.2026145 94.6245748,42.4771916 95.2724775,42.4771916 C96.274674,42.4771916 96.9100826,41.8350356 97.177811,40.5507238 L97.177811,40.5502809 Z"/>
      <path fill="#000" stroke="#000" stroke-width=".702" d="M97.177811,40.5502809 L98.2705889,40.7415991 C98.1161989,41.5976594 97.7739528,42.2677159 97.2438507,42.7517686 C96.7137485,43.2358213 96.0524594,43.4780691 95.2599835,43.4780691 C94.1846079,43.4780691 93.3644666,43.0839182 92.8013447,42.2956164 C92.2382227,41.5077575 91.9557692,40.5458522 91.9557692,39.4094577 C91.9557692,38.2323194 92.2533939,37.254028 92.8477509,36.473255 C93.4416617,35.6929248 94.2510937,35.3027597 95.2751547,35.3027597 C96.1247461,35.3027597 96.8052224,35.5547506 97.3170297,36.059618 C97.8297296,36.5635997 98.1469877,37.2154987 98.2705889,38.0139864 L97.1773648,38.2208049 C96.9716602,36.943136 96.3496379,36.3031944 95.3108519,36.3031944 C94.6424234,36.3031944 94.1283849,36.5853001 93.7687365,37.1495116 C93.4086418,37.714166 93.2288176,38.4457809 93.2288176,39.3443563 C93.2288176,40.3354908 93.4073032,41.1047493 93.7642743,41.6539034 C94.1221379,42.2026145 94.6245748,42.4771916 95.2724775,42.4771916 C96.274674,42.4771916 96.9100826,41.8350356 97.177811,40.5507238 L97.177811,40.5502809 Z"/>
      <path fill="#000" d="M105.12979,40.9524034 L106.260496,41.1826938 C106.055237,41.8447787 105.653645,42.3934899 105.057503,42.8270558 C104.461361,43.2610647 103.75902,43.4780691 102.951819,43.4780691 C101.887153,43.4780691 101.02596,43.1060615 100.367794,42.3611606 C99.7096289,41.6171455 99.3807692,40.6401827 99.3807692,39.4324867 C99.3807692,38.1991044 99.7225691,37.2026556 100.407061,36.4426972 C101.090661,35.6827389 101.949623,35.3027597 102.983501,35.3027597 C104.000868,35.3027597 104.820563,35.652624 105.439908,36.3523525 C106.060146,37.0520811 106.376958,38.0990167 106.392575,39.4931594 L100.728335,39.4931594 C100.728335,40.6645404 100.975092,41.4541707 101.468158,41.8638219 C101.962117,42.2725874 102.482849,42.4771916 103.033477,42.4771916 C104.024518,42.4771916 104.723735,41.9687812 105.12979,40.9524034 Z M105.06375,38.5954697 C105.053487,38.1614608 104.9812,37.7752815 104.847782,37.4378175 C104.713918,37.1007964 104.488134,36.8133762 104.169537,36.5755571 C103.850941,36.3381808 103.467643,36.2194927 103.020536,36.2194927 C102.41904,36.2194927 101.909017,36.4338399 101.490023,36.8634201 C101.071474,37.2930003 100.835873,37.869612 100.785005,38.5950268 L105.06375,38.5950268 L105.06375,38.5954697 Z"/>
      <path fill="#000" stroke="#000" stroke-width=".702" d="M105.12979,40.9524034 L106.260496,41.1826938 C106.055237,41.8447787 105.653645,42.3934899 105.057503,42.8270558 C104.461361,43.2610647 103.75902,43.4780691 102.951819,43.4780691 C101.887153,43.4780691 101.02596,43.1060615 100.367794,42.3611606 C99.7096289,41.6171455 99.3807692,40.6401827 99.3807692,39.4324867 C99.3807692,38.1991044 99.7225691,37.2026556 100.407061,36.4426972 C101.090661,35.6827389 101.949623,35.3027597 102.983501,35.3027597 C104.000868,35.3027597 104.820563,35.652624 105.439908,36.3523525 C106.060146,37.0520811 106.376958,38.0990167 106.392575,39.4931594 L100.728335,39.4931594 C100.728335,40.6645404 100.975092,41.4541707 101.468158,41.8638219 C101.962117,42.2725874 102.482849,42.4771916 103.033477,42.4771916 C104.024518,42.4771916 104.723735,41.9687812 105.12979,40.9524034 Z M105.06375,38.5954697 C105.053487,38.1614608 104.9812,37.7752815 104.847782,37.4378175 C104.713918,37.1007964 104.488134,36.8133762 104.169537,36.5755571 C103.850941,36.3381808 103.467643,36.2194927 103.020536,36.2194927 C102.41904,36.2194927 101.909017,36.4338399 101.490023,36.8634201 C101.071474,37.2930003 100.835873,37.869612 100.785005,38.5950268 L105.06375,38.5950268 L105.06375,38.5954697 Z"/>
      <path fill="#000" d="M107.376923,41.2557667 L108.537079,41.0179476 C108.794099,41.9909245 109.607993,42.4771916 110.978316,42.4771916 C111.48343,42.4771916 111.910903,42.3651464 112.261181,42.1406133 C112.611459,41.916523 112.786821,41.6003166 112.786821,41.1924368 C112.786821,40.5857102 112.341053,40.2008595 111.449072,40.0378847 L109.805666,39.7274356 C109.161779,39.6047616 108.649971,39.3642853 108.268905,39.0064494 C107.888284,38.6486136 107.697751,38.1756325 107.697751,37.5875063 C107.697751,36.9387073 107.957001,36.3953106 108.477287,35.9582017 C108.99668,35.5210928 109.696343,35.3027597 110.576723,35.3027597 C112.269659,35.3027597 113.314246,35.9595303 113.710484,37.2726284 L112.598519,37.5100047 C112.279476,36.7057597 111.623987,36.3031944 110.631608,36.3031944 C110.137649,36.3031944 109.732486,36.4041679 109.416567,36.6047863 C109.099755,36.8058475 108.941795,37.0866246 108.941795,37.4480034 C108.941795,38.0170864 109.346065,38.3753652 110.154605,38.5232825 L111.673517,38.8009596 C113.263824,39.0870511 114.059423,39.8532096 114.059423,41.0972206 C114.059423,41.8084637 113.763583,42.3837468 113.171011,42.8208557 C112.578885,43.2592932 111.790425,43.4780691 110.80697,43.4780691 C108.958305,43.4780691 107.814659,42.737154 107.376923,41.2557667 Z"/>
      <path fill="#000" stroke="#000" stroke-width=".702" d="M107.376923,41.2557667 L108.537079,41.0179476 C108.794099,41.9909245 109.607993,42.4771916 110.978316,42.4771916 C111.48343,42.4771916 111.910903,42.3651464 112.261181,42.1406133 C112.611459,41.916523 112.786821,41.6003166 112.786821,41.1924368 C112.786821,40.5857102 112.341053,40.2008595 111.449072,40.0378847 L109.805666,39.7274356 C109.161779,39.6047616 108.649971,39.3642853 108.268905,39.0064494 C107.888284,38.6486136 107.697751,38.1756325 107.697751,37.5875063 C107.697751,36.9387073 107.957001,36.3953106 108.477287,35.9582017 C108.99668,35.5210928 109.696343,35.3027597 110.576723,35.3027597 C112.269659,35.3027597 113.314246,35.9595303 113.710484,37.2726284 L112.598519,37.5100047 C112.279476,36.7057597 111.623987,36.3031944 110.631608,36.3031944 C110.137649,36.3031944 109.732486,36.4041679 109.416567,36.6047863 C109.099755,36.8058475 108.941795,37.0866246 108.941795,37.4480034 C108.941795,38.0170864 109.346065,38.3753652 110.154605,38.5232825 L111.673517,38.8009596 C113.263824,39.0870511 114.059423,39.8532096 114.059423,41.0972206 C114.059423,41.8084637 113.763583,42.3837468 113.171011,42.8208557 C112.578885,43.2592932 111.790425,43.4780691 110.80697,43.4780691 C108.958305,43.4780691 107.814659,42.737154 107.376923,41.2557667 Z"/>
      <path fill="#000" d="M79.7112124,18.6411225 L79.7112124,16.7810846 C79.7078628,16.6550048 79.7568538,16.5330968 79.8467109,16.443914 C79.9365679,16.3547311 80.0593974,16.3061076 80.1864303,16.3094321 L88.5877464,16.3085464 C88.8568134,16.3085464 89.0723347,16.5025218 89.0727809,16.7779845 L89.0723347,18.3740742 C89.0701037,18.6415653 88.8429808,18.9909867 88.4396034,19.5450123 L84.088125,25.7119236 C85.7034195,25.67428 87.4124189,25.9143134 88.8800165,26.733173 C89.2111073,26.9174053 89.2994576,27.1910966 89.325338,27.4594735 L89.325338,29.4443996 C89.325338,29.7180909 89.0241436,30.0342973 88.7068855,29.8695511 C86.1210757,28.5254523 82.6892443,28.3779779 79.8303516,29.8859372 C79.5380814,30.0409403 79.2324249,29.7287197 79.2324249,29.4550284 L79.2324249,27.5679757 C79.2324249,27.265941 79.2377794,26.749559 79.5447746,26.2889782 L84.5869922,19.1101177 L80.1966932,19.1096749 C79.9285186,19.1096749 79.7134435,18.9192424 79.7116587,18.6411225 L79.7112124,18.6411225 Z M49.645317,30.260602 L47.0889573,30.260602 C46.8457707,30.2451016 46.6516677,30.0635265 46.6320343,29.8323504 L46.6338191,16.8120852 C46.6338191,16.5521228 46.854695,16.3435328 47.1268855,16.3435328 L49.5069907,16.34309 C49.7564243,16.3554902 49.9563281,16.5423797 49.9719456,16.7801989 L49.9719456,18.4803621 L50.0201367,18.4803621 C50.6403741,16.8364429 51.8094546,16.0689558 53.3836974,16.0689558 C54.982482,16.0689558 55.9842323,16.8364429 56.7004056,18.4803621 C57.320643,16.8364429 58.7280018,16.0689558 60.2312966,16.0689558 C61.3048873,16.0689558 62.4739678,16.5073933 63.189695,17.4936563 C64.000912,18.5893071 63.8340279,20.1787538 63.8340279,21.5759965 L63.8322431,29.7920496 C63.8322431,30.0524549 63.6113672,30.2610448 63.3391767,30.2610448 L60.7863867,30.2610448 C60.5298137,30.2446588 60.3272326,30.0427118 60.3272326,29.7933782 L60.3272326,22.8908662 C60.3272326,22.3430407 60.3745312,20.9732557 60.2549459,20.4528879 C60.0639663,19.5760129 59.4919201,19.3293365 58.7520974,19.3293365 C58.13186,19.3293365 57.487527,19.7403163 57.2251532,20.3979725 C56.9623332,21.0556288 56.9864288,22.1512797 56.9864288,22.891309 L56.9864288,29.7920496 C56.9864288,30.0524549 56.7655529,30.2610448 56.4938086,30.2610448 L53.9405724,30.2610448 C53.6839994,30.2446588 53.4818645,30.0427118 53.4818645,29.7933782 L53.4791872,22.8908662 C53.4791872,21.4391509 53.7179117,19.3018788 51.9049444,19.3018788 C50.0674354,19.3018788 50.1392758,21.3842355 50.1392758,22.8908662 L50.1379372,29.7920496 C50.1379372,30.0524549 49.9175075,30.2610448 49.645317,30.2610448 L49.645317,30.260602 Z M95.244366,16.0689558 C99.0077344,16.0689558 101.043362,19.3018788 101.043362,23.4116768 C101.043362,27.3841862 98.7948903,30.535179 95.244366,30.535179 C91.5519456,30.535179 89.5399669,27.302256 89.5399669,23.2748311 C89.5399669,19.2195057 91.5760412,16.0693987 95.244366,16.0693987 L95.244366,16.0689558 Z M95.2680153,19.0618453 C93.3979327,19.0618453 93.279686,21.6096544 93.279686,23.1986581 C93.279686,24.7876619 93.2560367,27.8500814 95.244366,27.8500814 C97.209046,27.8500814 97.3036433,25.4453182 97.3036433,23.7743842 C97.3036433,22.6782904 97.2567909,21.3629779 96.9252539,20.3222424 C96.6405694,19.4179097 96.0729853,19.0618453 95.2680153,19.0618453 Z M106.48985,30.260602 L103.943753,30.260602 C103.687626,30.2446588 103.485045,30.0427118 103.485045,29.7933782 L103.480583,16.7686843 C103.502447,16.5304223 103.714399,16.3435328 103.971864,16.3435328 L106.342599,16.34309 C106.565706,16.3541616 106.749992,16.5056218 106.796845,16.7075688 L106.796845,18.6991379 L106.845036,18.6991379 C107.560763,16.9183731 108.562514,16.0689558 110.328182,16.0689558 C111.473167,16.0689558 112.594949,16.4799356 113.310676,17.6034871 C113.978658,18.6442225 113.978658,20.3979725 113.978658,21.6583696 L113.978658,29.8505079 C113.950101,30.081684 113.741719,30.2610448 113.489162,30.2610448 L110.926555,30.2610448 C110.690062,30.2455445 110.499082,30.0732696 110.471417,29.8505079 L110.471417,22.7814782 C110.471417,21.3567778 110.638747,19.2744211 108.873078,19.2744211 C108.251949,19.2744211 107.679902,19.6854009 107.393879,20.3155994 C107.036016,21.1101013 106.987825,21.9046032 106.987825,22.7814782 L106.987825,29.7920496 C106.983362,30.0524549 106.762486,30.2610448 106.48985,30.2610448 L106.48985,30.260602 Z M75.880912,30.2282727 C75.7113507,30.3788472 75.4677178,30.3890331 75.2767383,30.2876168 C74.4280394,29.5870025 74.2758804,29.2632674 73.8118179,28.5967538 C72.4084751,30.015697 71.4152028,30.4408485 69.5977734,30.4408485 C67.4461298,30.4408485 65.7723813,29.1228788 65.7723813,26.4869394 C65.7723813,24.4276117 66.895948,23.0272689 68.4978561,22.3408264 C69.884689,21.7367569 71.8217037,21.6269261 73.3035802,21.4621799 L73.3035802,21.1326875 C73.3035802,20.5286181 73.3517713,19.8147178 72.9930153,19.2930215 C72.6824504,18.8262405 72.0845237,18.6340366 71.5584375,18.6340366 C70.58346,18.6340366 69.7169126,19.1300467 69.5040685,20.1574962 C69.4598933,20.3860152 69.2916707,20.6118769 69.0600856,20.6233914 L66.5827058,20.3576717 C66.3734315,20.3107279 66.140954,20.1442102 66.2011929,19.8275609 C66.7705619,16.8444145 69.4848813,15.9431818 71.9171935,15.9431818 C73.1603456,15.9431818 74.7863492,16.2726742 75.7666812,17.2062361 C77.0098332,18.3594596 76.8902479,19.8970909 76.8902479,21.5720107 L76.8902479,25.5241484 C76.8902479,26.7128011 77.3882227,27.2344975 77.8554087,27.8753248 C78.0182767,28.1056152 78.0553125,28.3801922 77.8464844,28.5489242 C77.3244141,28.9829331 76.3971815,29.7831922 75.8867127,30.23403 L75.880912,30.2282727 Z M73.3035802,24.0432039 L73.3040264,24.0432039 L73.3040264,23.4940499 C71.4549159,23.4940499 69.5022837,23.887315 69.5022837,26.0476162 C69.5022837,27.1459242 70.0761148,27.8872822 71.0560006,27.8872822 C71.7735126,27.8872822 72.4191842,27.4484018 72.8261313,26.7340587 C73.3276758,25.8554122 73.3035802,25.0321241 73.3035802,24.0432039 Z M42.6647461,30.2282727 C42.4951848,30.3788472 42.2511058,30.3890331 42.0605724,30.2876168 C41.2114273,29.5870025 41.0592683,29.2632674 40.5952058,28.5967538 C39.1923092,30.015697 38.1985907,30.4408485 36.3816076,30.4408485 C34.2295177,30.4408485 32.5557692,29.1228788 32.5557692,26.4869394 C32.5557692,24.4276117 33.6793359,23.0272689 35.2816902,22.3408264 C36.6685231,21.7367569 38.6055379,21.6269261 40.0874144,21.4621799 L40.0874144,21.1326875 C40.0874144,20.5286181 40.1351593,19.8147178 39.7768495,19.2930215 C39.4658383,18.8262405 38.8679117,18.6340366 38.3422716,18.6340366 C37.3672942,18.6340366 36.5003005,19.1300467 36.2874564,20.1574962 C36.2432812,20.3860152 36.0755048,20.6118769 35.8434736,20.6233914 L33.36654,20.3576717 C33.1572656,20.3107279 32.9247882,20.1442102 32.985027,19.8275609 C33.554396,16.8444145 36.2682692,15.9431818 38.7010276,15.9431818 C39.9441797,15.9431818 41.5701833,16.2726742 42.5505153,17.2062361 C43.7936674,18.3594596 43.674082,19.8970909 43.674082,21.5720107 L43.674082,25.5241484 C43.674082,26.7128011 44.1716106,27.2344975 44.6387966,27.8753248 C44.8021109,28.1056152 44.8387004,28.3801922 44.6307647,28.5489242 C44.1086944,28.9829331 43.1805694,29.7831922 42.6705469,30.23403 L42.6647461,30.2282727 Z M40.0874144,24.0432039 L40.0874144,23.4940499 C38.23875,23.4940499 36.2861178,23.887315 36.2861178,26.0476162 C36.2861178,27.1459242 36.8595027,27.8872822 37.8398347,27.8872822 C38.5573468,27.8872822 39.2030183,27.4484018 39.6095192,26.7340587 C40.1115099,25.8554122 40.0874144,25.0321241 40.0874144,24.0432039 Z"/>
    </g>
  </g>
</svg>
