<svg xmlns="http://www.w3.org/2000/svg" width="198" height="61" viewBox="0 0 198 61">
  <g fill="none">
    <rect width="198" height="61"/>
    <g transform="translate(36.173 8.26)">
      <path fill="#767677" d="M71.5492356 8.35709012L62.9769643 8.35709012 62.9769643 10.8616495 69.0717802 10.8616495C68.7684183 14.3788827 65.7945527 15.8707682 62.9907535 15.8707682 61.2106393 15.8827956 59.4989054 15.1972361 58.2336931 13.9655377 56.9684809 12.7338393 56.2539132 11.0573667 56.2478462 9.30647182L56.2478462 9.19345019C56.2169641 7.4202583 56.9128615 5.70943971 58.1787202 4.44652183 59.4445789 3.18360394 61.173892 2.47484635 62.9769643 2.47996526 64.693178 2.48209497 66.3413563 3.14025986 67.5733564 4.31543656L69.3567565 2.50709045C67.6256233.86215812 65.3008913-.0387942789 62.8942292.00253109302 59.480335-.0760238813 56.2934522 1.67885052 54.5770221 4.58244656 52.860592 7.48604261 52.8865898 11.0782738 54.6448719 13.9575422 56.4031539 16.8368106 59.6151133 18.5468845 63.0275246 18.4205362 68.0329956 18.4114945 71.7101093 15.0344081 71.7101093 10.038852 71.7210989 9.48030134 71.6686821 8.92228879 71.553832 8.37517358L71.5492356 8.35709012zM78.3956731 6.99080405C76.8196596 6.95877433 75.295796 7.5581743 74.1607112 8.65659353 73.0256264 9.75501276 72.3727314 11.2620577 72.3462539 12.8448145L72.3462539 12.9736764C72.327271 16.3173223 75.0110662 19.0433365 78.3406783 19.0623995 81.6702905 19.0814625 84.3848632 16.3863555 84.4038462 13.0427095 84.4038462 9.04799168 81.2828958 6.99080405 78.3956731 6.99080405zM78.4277533 9.36554414C80.1555041 9.36554414 81.791597 10.746207 81.791597 13.0473117 81.791597 15.3484165 80.160087 16.701466 78.4185875 16.701466 76.5029381 16.701466 74.9905834 15.1597259 74.9905834 13.0196985 74.9905834 10.8796711 76.4800237 9.37474856 78.4231704 9.37474856L78.4277533 9.36554414zM91.0696492 6.99045967C89.4967796 6.96337663 87.9776405 7.56499254 86.846542 8.66291246 85.7154436 9.76083237 85.0650756 11.2650854 85.0385616 12.8446373L85.0385616 12.9735028C85.0195788 16.3172441 87.703374 19.043336 91.032986 19.0623995 94.3625981 19.081463 97.0771707 16.3862792 97.0961538 13.0425379 97.0961538 9.05230838 93.9706206 6.99506201 91.0742321 6.99506201L91.0696492 6.99045967zM91.1063123 9.36526756C92.8340631 9.36526756 94.470156 10.7459698 94.470156 13.0471403 94.470156 15.3483107 92.838646 16.7013989 91.0971465 16.7013989 89.1814971 16.7013989 87.6691424 15.1596147 87.6691424 13.0195262 87.6691424 10.8794377 89.1585827 9.37447225 91.1017294 9.37447225L91.1063123 9.36526756zM104.077276 6.9909183C100.896823 6.9909183 98.3660911 9.77182032 98.3660911 12.9003351 98.3170169 16.0737441 100.830646 18.7037004 104.022754 18.8187808 105.280298 18.8843411 106.493305 18.347182 107.284991 17.3741563L107.284991 18.5433992C107.284991 20.5839312 106.04007 21.811862 104.159059 21.811862 102.806953 21.7948039 101.601451 20.9617123 101.114911 19.7081277L98.8431591 20.6471336C99.6382724 22.3400528 101.26939 24.1458333 104.177233 24.1458333 107.357687 24.1458333 109.788462 22.1549603 109.788462 17.9836073L109.788462 7.35207441 107.284991 7.35207441 107.284991 8.3452537C106.463066 7.45429962 105.293281 6.96040224 104.077276 6.9909183zM104.308995 9.29780293C105.876504 9.29780293 107.489448 10.6295661 107.489448 12.909364 107.489448 15.1891619 105.881048 16.4712661 104.272647 16.4712661 102.568833 16.4712661 100.98315 15.1169307 100.98315 12.9138784 100.98315 10.6566528 102.632442 9.30231738 104.313539 9.30231738L104.308995 9.29780293zM120.344311 6.98958333C117.369179 6.98958333 114.868993 9.42246882 114.868993 13.0165042 114.813581 14.6149457 115.398321 16.1667649 116.486613 17.3094484 117.574906 18.4521319 119.07143 19.0855946 120.62659 19.061856 122.594433 19.0711663 124.439479 18.0793479 125.555273 16.4124069L123.525552 15.0300856C122.929474 16.0709877 121.837005 16.7039246 120.662435 16.6888711 119.426797 16.7391798 118.286534 16.0085801 117.785877 14.8457761L125.653846 11.491343 125.24611 10.5098949C124.471105 8.41594944 122.531745 7.02061379 120.353272 6.98958333L120.344311 6.98958333zM120.447365 9.29345217C121.353468 9.25485451 122.199883 9.75736969 122.620466 10.5836187L117.364699 12.8506257C117.136187 11.0996853 118.74921 9.30266765 120.447365 9.30266765L120.447365 9.29345217z"/>
      <polygon fill="#767677" points="111.692 18.427 114.231 18.427 114.231 .635 111.692 .635"/>
      <path fill="#4386FA" d="M8.75770813,37.497184 L0.337455388,22.8673993 C-0.112485129,22.0857082 -0.112485129,21.1226251 0.337455388,20.340934 L8.75770813,5.71114932 C9.20701615,4.93055503 10.0368996,4.4491831 10.9355165,4.44791667 L27.7851151,4.44791667 C28.6804804,4.4524268 29.5061533,4.93336456 29.9538303,5.71114932 L38.3740831,20.340934 C38.8240236,21.1226251 38.8240236,22.0857082 38.3740831,22.8673993 L29.9538303,37.497184 C29.5045223,38.2777783 28.6746389,38.7591502 27.776022,38.7604167 L10.9309699,38.7604167 C10.0339784,38.7575263 9.20620158,38.2763718 8.75770813,37.497184 Z"/>
      <path fill="#000" d="M25.1633542,16.5208333 C25.1633542,16.5208333 27.5238901,22.0863623 24.3062276,25.2409131 C21.0885651,28.3954639 15.2307692,26.3765514 15.2307692,26.3765514 C15.2307692,26.3765514 23.9395424,35.0515662 27.1480378,38.125 L28.3580989,38.125 C29.2640272,38.1237485 30.1006627,37.6480666 30.5536264,36.8766992 L36.1730769,27.3093972 L25.1633542,16.5208333 Z" opacity=".1"/>
      <path fill="#FFF" d="M27.1709429,27.8701509 L24.6123838,25.3022667 C24.5846594,25.2736198 24.5528332,25.2492829 24.5179554,25.2300591 C26.7651357,22.3118106 26.3630251,18.1426706 23.5998678,15.7111943 C20.8367105,13.2797181 16.6657965,13.4247658 14.0769527,16.042363 C11.4881089,18.6599603 11.3744872,22.8470354 13.8175348,25.6021767 C16.2605824,28.357318 20.4174471,28.7300009 23.308373,26.453076 C23.3265127,26.4861977 23.3492196,26.5165839 23.3758218,26.5433355 L25.9343809,29.1112197 C26.0094569,29.1867311 26.1113785,29.2291667 26.217666,29.2291667 C26.3239535,29.2291667 26.4258752,29.1867311 26.5009511,29.1112197 L27.1709429,28.4387861 C27.2461801,28.3634365 27.2884615,28.2611434 27.2884615,28.1544685 C27.2884615,28.0477936 27.2461801,27.9455005 27.1709429,27.8701509 Z M19.0186271,26.2093752 C16.1279524,26.2093752 13.7845976,23.8574797 13.7845976,20.9562695 C13.7845976,18.0550593 16.1279524,15.7031637 19.0186271,15.7031637 C21.9093018,15.7031637 24.2526567,18.0550593 24.2526567,20.9562695 C24.2526567,22.3494797 23.7012159,23.6856277 22.7196449,24.6707762 C21.738074,25.6559246 20.4067781,26.2093752 19.0186271,26.2093752 Z"/>
      <path fill="#FFF" d="M15.8653846,20.9830469 L15.8653846,23.2753125 C16.1678582,23.898745 16.6056196,24.4181473 17.1346154,24.78125 L17.1346154,20.96875 L15.8653846,20.9830469 Z"/>
      <path fill="#FFF" d="M15.8653846 20.9830469L15.8653846 23.2753125C16.1678582 23.898745 16.6056196 24.4181473 17.1346154 24.78125L17.1346154 20.96875 15.8653846 20.9830469zM18.4038462 19.0625L18.4038462 24.7194211C18.8233907 24.8018596 19.2535324 24.8018596 19.6730769 24.7194211L19.6730769 19.0625 18.4038462 19.0625z"/>
      <path fill="#FFF" d="M18.4038462 19.0625L18.4038462 24.7194211C18.8233907 24.8018596 19.2535324 24.8018596 19.6730769 24.7194211L19.6730769 19.0625 18.4038462 19.0625zM22.2115385 22.8114583L22.2115385 21.6041667 20.9423077 21.6041667 20.9423077 24.1458333C21.4707817 23.8242448 21.9084944 23.3640663 22.2115385 22.8114583z"/>
      <path fill="#FFF" d="M22.2115385,22.8114583 L22.2115385,21.6041667 L20.9423077,21.6041667 L20.9423077,24.1458333 C21.4707817,23.8242448 21.9084944,23.3640663 22.2115385,22.8114583 Z"/>
      <path fill="#767677" d="M53.9423077 40.6666667L53.9423077 29.2295473 57.9670056 29.2295473C58.8081925 29.2164718 59.621306 29.5407291 60.2341936 30.1336674 60.855858 30.6932643 61.2036011 31.5082091 61.183249 32.3578029 61.2367418 33.4043004 60.6278833 34.3667793 59.6761841 34.7401594L59.6761841 34.8034478C60.2230922 34.9790063 60.7016145 35.3288647 61.0426482 35.8025005 61.3830492 36.2704516 61.5637594 36.8409438 61.5567199 37.4253961 61.5789596 38.3142058 61.2188004 39.167806 60.5725142 39.758026 59.9259207 40.3682086 59.0723608 40.6928658 58.1954819 40.6621461L53.9467015 40.6621461 53.9423077 40.6666667zM55.3702846 30.6309335L55.3702846 34.1298783 57.9626119 34.1298783C58.4400721 34.141965 58.9011731 33.9505649 59.2368066 33.600968 59.8958541 32.9538815 59.9214069 31.8800217 59.2939257 31.2005291L59.249988 31.1553231C58.9320046 30.8092559 58.4869102 30.6172157 58.0241247 30.6264129L55.3878597 30.6264129 55.3702846 30.6309335zM55.3702846 35.5086614L55.3702846 39.2607599 58.2438135 39.2607599C59.2540336 39.2708046 60.0815264 38.4376268 60.0935928 37.3982725 60.0935928 37.3982725 60.0935928 37.3982725 60.0935928 37.3982725 60.0941656 36.9029503 59.8972258 36.4290705 59.5487647 36.0872983 59.1878872 35.7145829 58.6934283 35.5117446 58.1823006 35.5267438L55.3658908 35.5267438 55.3702846 35.5086614zM64.7306167 29.6211297C64.7283537 30.1083811 64.4062118 30.526192 63.9609183 30.6194112 63.5156248 30.7126305 63.0709663 30.4553442 62.8984892 30.0046734 62.7260122 29.5540026 62.8736633 29.0352286 63.2512741 28.7651592 63.6288849 28.4950898 64.131484 28.5488012 64.4521414 28.8934926 64.6344658 29.0843827 64.7352428 29.3477062 64.7306167 29.6211297zM64.4521414 32.2995483L64.4521414 40.03125 63.1013282 40.03125 63.1013282 32.2995483 64.4521414 32.2995483zM69.8118579 44.4759234C69.4095262 44.4789334 69.008842 44.4212542 68.6218891 44.304625 68.264304 44.202704 67.9224657 44.0467783 67.6069156 43.8416564 67.3073804 43.6371146 67.0413923 43.382219 66.8194362 43.0870175 66.605506 42.8107909 66.438261 42.497542 66.3250741 42.1610802L67.6725389 41.5684804C67.8193801 42.0266754 68.1016071 42.4227304 68.4775178 42.6981238 68.8624871 42.9811217 69.3212783 43.130012 69.7899835 43.124055 70.4656491 43.1656687 71.125544 42.8974701 71.6011861 42.3879349 72.0587851 41.8270583 72.2925204 41.0999536 72.2530441 40.3601322L72.2530441 39.5684559 72.1917957 39.5684559C71.9181517 39.9985755 71.542487 40.3450296 71.1024492 40.5730978 70.6399933 40.8200964 70.1286207 40.9470537 69.6106132 40.9434727 68.6305247 40.9490031 67.6971412 40.5007967 67.05568 39.7166058 66.3557583 38.880626 65.979288 37.7961937 66.0013326 36.6795316 65.974629 35.565665 66.3501039 34.4829046 67.0513051 33.6517167 67.6876422 32.8580615 68.6226869 32.4022799 69.6062383 32.4063311 70.1242647 32.4025722 70.6356762 32.5295392 71.0980743 32.776706 71.5381121 33.0047742 71.9137769 33.3512284 72.1874208 33.7813479L72.2486692 33.7813479 72.2486692 32.6702232 73.6092586 32.6702232 73.6092586 40.3462432C73.6686604 41.4629728 73.2940693 42.5568582 72.5724107 43.374058 71.831265 44.1219123 70.8350964 44.5195296 69.8118579 44.4759234zM69.8599817 39.5638262C70.5162449 39.5827135 71.1458246 39.2886808 71.5749368 38.7628904 72.4995807 37.5463245 72.4995807 35.8127387 71.5749368 34.5961727 71.149185 34.0634914 70.519116 33.7624264 69.8599817 33.7767183 69.2017433 33.7670221 68.5734435 34.0672417 68.1450265 34.5961727 67.6693012 35.1723806 67.4203587 35.9196261 67.4494197 36.6841613 67.419463 37.446046 67.6686628 38.1907467 68.1450265 38.7628904 68.5742728 39.2900992 69.2024532 39.588566 69.8599817 39.5777152L69.8599817 39.5638262zM89.5253775 40.5379852L88.3396928 41.3020833 87.5337977 40.1145092C86.6593053 40.5493526 85.6956326 40.7777577 84.7177965 40.7819443 83.1029295 40.8166939 81.5473197 40.1772532 80.4289527 39.0189951 78.113426 36.591641 78.113426 32.7881052 80.4289527 30.3607511 81.566877 29.2293843 83.110514 28.59375 84.7201123 28.59375 86.3297107 28.59375 87.8733477 29.2293843 89.011272 30.3607511 90.1610903 31.5007251 90.7890739 33.0601642 90.7481148 34.6737626 90.7538121 35.551632 90.5722817 36.4207385 90.215483 37.2238249 89.8694927 38.0153144 89.3579477 38.7245476 88.7148508 39.3043811L89.5253775 40.5379852zM84.7270597 39.3504111C85.4116682 39.3503077 86.086967 39.1927651 86.7001132 38.8901111L85.3106389 36.8371728 86.4963236 36.0408537 87.8533768 38.07538C88.7619289 37.1868772 89.2498613 35.957852 89.1965352 34.6921746 89.2421692 33.4524902 88.7752302 32.248269 87.9043242 31.3596022 87.0760504 30.4916591 85.9164286 30.013277 84.713165 30.0431441 83.5046983 30.0143985 82.3398035 30.4921821 81.5034794 31.3596022 79.802004 33.2595612 79.802004 36.124788 81.5034794 38.024747 82.3414681 38.899158 83.5123928 39.3806886 84.7270597 39.3504111zM99 40.3927821L97.5854447 40.3927821 97.5854447 39.2848239 97.5217669 39.2848239C97.2714355 39.7028863 96.9126842 40.0430522 96.4847296 40.2681368 96.0407587 40.5234843 95.5395325 40.6586154 95.0292386 40.6605387 94.2024583 40.7145957 93.3920628 40.4090861 92.8005179 39.820337 92.2447726 39.1564167 91.9672205 38.2980402 92.0272883 37.4289939L92.0272883 32.40625 93.5055214 32.40625 93.5055214 37.3320475C93.5388764 38.6431314 94.1847506 39.2986734 95.4431438 39.2986734 96.0194567 39.3016224 96.5642468 39.0319765 96.9168285 38.5692676 97.3156014 38.0809671 97.5271956 37.4629129 97.5126701 36.8288499L97.5126701 32.40625 98.9909032 32.40625 98.9909032 40.3927821 99 40.3927821zM104.191541 40.6651216C103.128666 40.6957864 102.103736 40.2687851 101.376915 39.4925068 100.631704 38.6914546 100.234266 37.627661 100.271648 36.5341159 100.238704 35.4480622 100.626698 34.3912974 101.354541 33.5846762 102.073053 32.8424578 103.058364 32.4182695 104.091222 32.4065015 105.12408 32.3947336 106.118796 32.7963623 106.854026 33.5220174 107.586595 34.3949549 107.952299 35.5179468 107.874272 36.6549579L107.874272 36.8116049 101.75727 36.8116049C101.749435 37.501555 102.024319 38.1646398 102.51798 38.6466128 103.083283 39.1988822 103.880035 39.4448298 104.658197 39.3072717 105.436359 39.1697136 106.100556 38.6655096 106.442348 37.9528903L107.740029 38.583954C107.409737 39.2197089 106.909348 39.7511845 106.294681 40.1190948 105.656892 40.4903926 104.929364 40.6792767 104.191541 40.6651216zM101.864664 35.603185L106.308105 35.603185C106.277739 35.0855028 106.040731 34.6017198 105.650314 34.2604962 105.205923 33.8911307 104.638814 33.7025905 104.061773 33.732372 103.544403 33.7220061 103.041231 33.9019727 102.647748 34.2381181 102.242884 34.592074 101.967367 35.0707782 101.864664 35.5987094L101.864664 35.603185zM110.703142 40.6620342L109.153846 40.6620342 109.153846 32.6479446 110.636403 32.6479446 110.636403 33.9589199 110.703142 33.9589199C110.885482 33.5019278 111.221483 33.1182776 111.656555 32.8703008 112.078049 32.5865219 112.574262 32.4257891 113.086674 32.4070586 113.477948 32.3979608 113.867085 32.465712 114.230769 32.6062528L113.754063 34.0654656C113.460155 33.974145 113.151746 33.9349175 112.843554 33.9496551 112.255568 33.9514711 111.697978 34.2037657 111.318093 34.6398859 110.898022 35.0733255 110.66585 35.6473153 110.669772 36.2427039L110.669772 40.6666667 110.703142 40.6620342z"/>
      <polygon fill="#767677" points="121.846 32.406 117.082 43.844 115.603 43.844 117.363 39.85 114.231 32.406 115.788 32.406 118.058 38.102 118.089 38.102 120.289 32.406 121.833 32.406"/>
    </g>
  </g>
</svg>
