<svg xmlns="http://www.w3.org/2000/svg" width="128" height="128" viewBox="0 0 128 128">
  <g fill="none">
    <rect width="128" height="128"/>
    <path fill="#F65E2E" d="M52.1169481,6.19713486 C53.8648799,5.83969402 55.6409597,5.55954635 57.4414607,5.36041857 L59.6363636,12 C61.0909091,11.821167 62.5454545,11.7317505 64,11.7317505 C65.4545455,11.7317505 66.9090909,11.821167 68.3636364,12 L70.5585393,5.36041857 C72.3590403,5.55954635 74.1351201,5.83969402 75.8830519,6.19713486 L75.9188189,13.1966234 C77.3574363,13.4760223 78.7684224,13.8404614 80.1517774,14.2899407 C81.5351323,14.73942 82.890856,15.2739394 84.2189485,15.8934989 L88.3637669,10.2495211 C90.005071,10.9946676 91.6062158,11.8127809 93.1630598,12.6997196 L91.0345771,19.3662352 C92.3164445,20.0765166 93.5457542,20.8591375 94.7225062,21.7140979 C95.8992582,22.5690582 97.0234525,23.4963581 98.0950891,24.4959974 L103.769443,20.4174753 C105.097513,21.6300355 106.369965,22.902487 107.582525,24.2305567 L103.504003,29.9049109 C104.503642,30.9765475 105.430942,32.1007418 106.285902,33.2774938 C107.140862,34.4542458 107.923483,35.6835555 108.633765,36.9654229 L115.30028,34.8369402 C116.187219,36.3937842 117.005332,37.994929 117.750479,39.6362331 L112.106501,43.7810515 C112.726061,45.109144 113.26058,46.4648677 113.710059,47.8482226 C114.159539,49.2315776 114.523978,50.6425637 114.803377,52.0811811 L121.802865,52.1169481 C122.160306,53.8648799 122.440454,55.6409597 122.639581,57.4414607 L116,59.6363636 C116.178833,61.0909091 116.26825,62.5454545 116.26825,64 C116.26825,65.4545455 116.178833,66.9090909 116,68.3636364 L122.639581,70.5585393 C122.440454,72.3590403 122.160306,74.1351201 121.802865,75.8830519 L114.803377,75.9188189 C114.523978,77.3574363 114.159539,78.7684224 113.710059,80.1517774 C113.26058,81.5351323 112.726061,82.890856 112.106501,84.2189485 L117.750479,88.3637669 C117.005332,90.005071 116.187219,91.6062158 115.30028,93.1630598 L108.633765,91.0345771 C107.923483,92.3164445 107.140862,93.5457542 106.285902,94.7225062 C105.430942,95.8992582 104.503642,97.0234525 103.504003,98.0950891 L107.582525,103.769443 C106.369965,105.097513 105.097513,106.369965 103.769443,107.582525 L98.0950891,103.504003 C97.0234525,104.503642 95.8992582,105.430942 94.7225062,106.285902 C93.5457542,107.140862 92.3164445,107.923483 91.0345771,108.633765 L93.1630598,115.30028 C91.6062158,116.187219 90.005071,117.005332 88.3637669,117.750479 L84.2189485,112.106501 C82.890856,112.726061 81.5351323,113.26058 80.1517774,113.710059 C78.7684224,114.159539 77.3574363,114.523978 75.9188189,114.803377 L75.8830519,121.802865 C74.1351201,122.160306 72.3590403,122.440454 70.5585393,122.639581 L68.3636364,116 C66.9090909,116.178833 65.4545455,116.26825 64,116.26825 C62.5454545,116.26825 61.0909091,116.178833 59.6363636,116 L57.4414607,122.639581 C55.6409597,122.440454 53.8648799,122.160306 52.1169481,121.802865 L52.0811811,114.803377 C50.6425637,114.523978 49.2315776,114.159539 47.8482226,113.710059 C46.4648677,113.26058 45.109144,112.726061 43.7810515,112.106501 L39.6362331,117.750479 C37.994929,117.005332 36.3937842,116.187219 34.8369402,115.30028 L36.9654229,108.633765 C35.6835555,107.923483 34.4542458,107.140862 33.2774938,106.285902 C32.1007418,105.430942 30.9765475,104.503642 29.9049109,103.504003 L24.2305567,107.582525 C22.902487,106.369965 21.6300355,105.097513 20.4174753,103.769443 L24.4959974,98.0950891 C23.4963581,97.0234525 22.5690582,95.8992582 21.7140979,94.7225062 C20.8591375,93.5457542 20.0765166,92.3164445 19.3662352,91.0345771 L12.6997196,93.1630598 C11.8127809,91.6062158 10.9946676,90.005071 10.2495211,88.3637669 L15.8934989,84.2189485 C15.2739394,82.890856 14.73942,81.5351323 14.2899407,80.1517774 C13.8404614,78.7684224 13.4760223,77.3574363 13.1966234,75.9188189 L6.19713486,75.8830519 C5.83969401,74.1351201 5.55954635,72.3590403 5.36041857,70.5585393 L12,68.3636364 C11.821167,66.9090909 11.7317505,65.4545455 11.7317505,64 C11.7317505,62.5454545 11.821167,61.0909091 12,59.6363636 L5.36041857,57.4414607 C5.55954635,55.6409597 5.83969402,53.8648799 6.19713486,52.1169481 L13.1966234,52.0811811 C13.4760223,50.6425637 13.8404614,49.2315776 14.2899407,47.8482226 C14.73942,46.4648677 15.2739394,45.109144 15.8934989,43.7810515 L10.2495211,39.6362331 C10.9946676,37.994929 11.8127809,36.3937842 12.6997196,34.8369402 L19.3662352,36.9654229 C20.0765166,35.6835555 20.8591375,34.4542458 21.7140979,33.2774938 C22.5690582,32.1007418 23.4963581,30.9765475 24.4959974,29.9049109 L20.4174753,24.2305567 C21.6300355,22.902487 22.902487,21.6300355 24.2305567,20.4174753 L29.9049109,24.4959974 C30.9765475,23.4963581 32.1007418,22.5690582 33.2774938,21.7140979 C34.4542458,20.8591375 35.6835555,20.0765166 36.9654229,19.3662352 L34.8369402,12.6997196 C36.3937842,11.8127809 37.994929,10.9946676 39.6362331,10.2495211 L43.7810515,15.8934989 C45.109144,15.2739394 46.4648677,14.73942 47.8482226,14.2899407 C49.2315776,13.8404614 50.6425637,13.4760223 52.0811811,13.1966234 L52.1169481,6.19713486 Z" opacity=".4"/>
    <g transform="translate(21 28)">
      <path fill="#FFF" d="M47.1384225,10.6780935 C44.620272,5.55936448 39.2869657,3 31.1385035,3 C21.7490691,3 14.7727474,8.9679284 10.2095386,20.9037852 L4.22921723,38.5675462 C3.87499989,39.6137793 4.43598955,40.7490688 5.48222272,41.1032861 C5.68882167,41.1732332 5.90547139,41.2089134 6.12358997,41.2089134 L9.05275926,41.2089134 L9.05275926,54.2045154 C9.05275926,59.0659426 11.032395,61.4966562 14.9916664,61.4966562 C18.9509379,61.4966562 22.1169386,61.4966562 24.4896686,61.4966562 L24.4896686,67 C24.4896686,68.6568542 25.8328144,70 27.4896686,70 L51.8132072,70.0000047 C52.9177793,70.0000047 53.8132119,69.1045721 53.8132119,68 C53.8132119,67.9411584 53.8106152,67.8823455 53.8054293,67.8237329 C52.3566758,51.4494948 51.632299,39.2973538 51.632299,31.3673099 C51.632299,23.089868 50.1343401,16.1934625 47.1384225,10.6780935 Z"/>
      <path fill="#FFF" d="M79.3789035,67.971431 C79.2643827,59.9551764 79.5430424,53.4670128 80.2148826,48.5069403 C81.3063252,40.4490204 83.6688059,24.6064359 82.623599,18.7937614 C81.5783921,12.9810869 77.7105262,5.48734145 63.7119693,4.10015878 C54.3795981,3.17537034 47.1663372,8.65466573 42.0721866,20.5380449 L36.1040625,38.3593278 C35.7533022,39.4067251 36.3180382,40.5401557 37.3654354,40.8909159 C37.5701627,40.9594765 37.7846407,40.9944354 38.000543,40.9944354 L40.9194467,40.9944354 L40.9194467,42.148878 C42.3829387,55.0051666 45.0874076,61.4333109 49.0328535,61.4333109 C52.9782993,61.4333109 55.6300714,61.4333109 56.9881697,61.4333109 L56.9881697,67 C56.9881697,68.6568542 58.3313155,70 59.9881697,70 L77.3791206,69.999987 C78.4836829,69.999987 79.3791076,69.1045623 79.3791076,68 C79.3791076,67.9904766 79.3790396,67.9809534 79.3789035,67.971431 Z"/>
      <path stroke="#053157" stroke-linecap="round" stroke-linejoin="round" stroke-width="2" d="M43 7.74416083C40.4899298 2.58138694 35.173737-2.27373675e-13 27.0514215-2.27373675e-13 17.6921159-2.25801004e-13 10.7381799 6.0192804 6.18961343 18.0578412L.218617808 35.9030726C-.131870654 36.9505608.433159308 38.0838449 1.48064755 38.4343333 1.6852275 38.5027856 1.89953483 38.5376881 2.11526305 38.5376881L5.03654598 38.5376881 5.03654598 51.6451128C5.03654598 56.5483709 7.00982945 59 10.9563964 59 16.8762468 59 18.0290551 59 23.6645347 59 27.4215212 59 29.3000144 56.5483709 29.3000144 51.6451128M21 67L21 62"/>
      <circle cx="13.5" cy="22.5" r="1.5" stroke="#053157" stroke-linecap="square" stroke-linejoin="round" stroke-width="2"/>
      <path stroke="#053157" stroke-linecap="round" stroke-linejoin="round" stroke-width="2" d="M75.4061612,66 C75.2114109,57.3407864 75.4778499,50.3534985 76.2054783,45.0381361 C77.2969209,37.0650925 79.6594016,21.3893825 78.6141947,15.6379345 C77.5689878,9.88648658 73.7011219,2.47167486 59.7025651,1.09910378 C50.3701938,0.184056398 43.1569329,5.60563682 38.0627823,17.363845 L32.1061066,34.9635856 C31.7519943,36.0098543 32.313098,37.1450874 33.3593668,37.4991997 C33.5659089,37.5691044 33.7824926,37.6047625 34.0005437,37.6047625 L36.9100424,37.6047625 L36.9100424,38.7470451 C38.3735344,51.4679147 41.0780033,57.8283496 45.0234492,57.8283496 C50.941618,57.8283496 49.8988608,57.8283496 55.5327396,57.8283496"/>
      <circle cx="44.5" cy="26.5" r="1.5" stroke="#053157" stroke-linecap="square" stroke-linejoin="round" stroke-width="2" transform="matrix(-1 0 0 1 89 0)"/>
      <path stroke="#053157" stroke-linecap="round" stroke-linejoin="round" stroke-width="2" d="M54.25,67 L54.25,61" transform="matrix(-1 0 0 1 108.1 0)"/>
    </g>
  </g>
</svg>
