<svg xmlns="http://www.w3.org/2000/svg" width="72" height="72" viewBox="0 0 72 72">
  <g fill="none">
    <rect width="72" height="72"/>
    <path fill="#5DCC9B" d="M30.439209,17 L67,17 C68.6568542,17 70,18.3431458 70,20 C70,21.6568542 68.6568542,23 67,23 L30.0534668,23 M13.567627,23 L11,23 C9.34314575,23 8,21.6568542 8,20 C8,18.3431458 9.34314575,17 11,17 L13.8427734,17 L13.567627,23 Z M60.2446289,37 L67,37 C68.6568542,37 70,38.3431458 70,40 C70,41.6568542 68.6568542,43 67,43 L60.0410156,43 L60.2446289,37 Z M43.7836914,43 L11,43 C9.34314575,43 8,41.6568542 8,40 C8,38.3431458 9.34314575,37 11,37 L43.8125,37 L43.7836914,43 Z M40.1123047,57 L67,57 C68.6568542,57 70,58.3431458 70,60 C70,61.6568542 68.6568542,63 67,63 L40.3088379,63 L40.1123047,57 Z M23.8017578,63 L11,63 C9.34314575,63 8,61.6568542 8,60 C8,58.3431458 9.34314575,57 11,57 L23.630127,57 L23.8017578,63 Z M22,28 C17.581722,28 14,24.418278 14,20 C14,15.581722 17.581722,12 22,12 C26.418278,12 30,15.581722 30,20 C30,24.418278 26.418278,28 22,28 Z M52,48 C47.581722,48 44,44.418278 44,40 C44,35.581722 47.581722,32 52,32 C56.418278,32 60,35.581722 60,40 C60,44.418278 56.418278,48 52,48 Z M32,68 C27.581722,68 24,64.418278 24,60 C24,55.581722 27.581722,52 32,52 C36.418278,52 40,55.581722 40,60 C40,64.418278 36.418278,68 32,68 Z" opacity=".9"/>
    <path stroke="#053157" stroke-linecap="square" stroke-linejoin="round" stroke-width="2" d="M27.439209 14L64 14C65.6568542 14 67 15.3431458 67 17 67 18.6568542 65.6568542 20 64 20L27.0534668 20M10.567627 20L8 20C6.34314575 20 5 18.6568542 5 17 5 15.3431458 6.34314575 14 8 14L10.8427734 14M57.2446289 34L64 34C65.6568542 34 67 35.3431458 67 37 67 38.6568542 65.6568542 40 64 40L57.0410156 40M40.7836914 40L8 40C6.34314575 40 5 38.6568542 5 37 5 35.3431458 6.34314575 34 8 34L40.8125 34M37.1123047 54L64 54C65.6568542 54 67 55.3431458 67 57 67 58.6568542 65.6568542 60 64 60L37.3088379 60M20.8017578 60L8 60C6.34314575 60 5 58.6568542 5 57 5 55.3431458 6.34314575 54 8 54L20.630127 54"/>
    <circle cx="19" cy="17" r="8" stroke="#053157" stroke-linecap="square" stroke-linejoin="round" stroke-width="2"/>
    <circle cx="49" cy="37" r="8" stroke="#053157" stroke-linecap="square" stroke-linejoin="round" stroke-width="2"/>
    <circle cx="29" cy="57" r="8" stroke="#053157" stroke-linecap="square" stroke-linejoin="round" stroke-width="2"/>
  </g>
</svg>
