<svg width="51" height="55" xmlns="http://www.w3.org/2000/svg"><g stroke-width="1.033" fill="none" fill-rule="evenodd"><path stroke="#C72C48" stroke-linejoin="round" d="M26.183 1.097L25.117.554l-1.066.544"/><path d="M22.01 2.137l-19.385 9.88" stroke="#C72C48" stroke-linejoin="round" stroke-dasharray="2.184"/><path stroke="#C72C48" stroke-linejoin="round" d="M1.605 12.536l-1.067.545 1.067.543"/><path d="M3.645 14.664l19.385 9.879" stroke="#C72C48" stroke-linejoin="round" stroke-dasharray="2.184"/><path stroke="#C72C48" stroke-linejoin="round" d="M24.051 25.063l1.066.543 1.066-.542"/><path d="M28.228 24.024l19.427-9.882" stroke="#C72C48" stroke-linejoin="round" stroke-dasharray="2.187"/><path stroke="#C72C48" stroke-linejoin="round" d="M48.678 13.623l1.066-.542-1.066-.543"/><path d="M46.633 11.497l-19.427-9.88" stroke="#C72C48" stroke-linejoin="round" stroke-dasharray="2.187"/><path stroke="#C72C48" stroke-linejoin="round" d="M.538 40.4v1.226l1.067.543"/><path d="M3.645 43.21l19.385 9.878" stroke="#C72C48" stroke-linejoin="round" stroke-dasharray="2.184"/><path stroke="#C72C48" stroke-linejoin="round" d="M24.051 53.609l1.066.543v-1.225"/><path d="M25.117 50.555V28.017" stroke="#C72C48" stroke-linejoin="round" stroke-dasharray="2.21"/><path stroke="#C72C48" stroke-linejoin="round" d="M25.117 26.831v-1.225l-1.066-.543"/><path d="M22.01 24.023l-19.385-9.88" stroke="#C72C48" stroke-linejoin="round" stroke-dasharray="2.184"/><path stroke="#C72C48" stroke-linejoin="round" d="M1.605 13.624L.538 13.08v1.224"/><path d="M.538 16.678v22.536" stroke="#C72C48" stroke-linejoin="round" stroke-dasharray="2.21"/><path stroke="#C72C48" stroke-linejoin="round" d="M49.744 40.4v1.226l-1.066.542"/><path d="M46.633 43.208L27.206 53.09" stroke="#C72C48" stroke-linejoin="round" stroke-dasharray="2.187"/><path stroke="#C72C48" stroke-linejoin="round" d="M26.183 53.609l-1.066.543v-1.225"/><path d="M25.117 50.555V28.017" stroke="#C72C48" stroke-linejoin="round" stroke-dasharray="2.21"/><path stroke="#C72C48" stroke-linejoin="round" d="M25.117 26.831v-1.225l1.066-.542"/><path d="M28.228 24.024l19.427-9.882" stroke="#C72C48" stroke-linejoin="round" stroke-dasharray="2.187"/><path stroke="#C72C48" stroke-linejoin="round" d="M48.678 13.623l1.066-.542v1.224"/><path d="M49.744 16.678v22.536" stroke="#C72C48" stroke-linejoin="round" stroke-dasharray="2.21"/><path stroke="#FFF" fill="#C72C48" fill-rule="nonzero" d="M41.706 17.525l-16.6-8.473-16.552 8.473v19.704l16.552 8.424 16.6-8.424z"/><path stroke="#FFF" fill="#C72C48" fill-rule="nonzero" d="M25.13 45.63v-9.853l-8.277-4.236v9.853zm8.275-14.089v-9.804L41.73 17.5v9.852zM25.13 45.63v-9.853l8.275-4.236v9.853zm-8.277-14.089v-9.804L8.577 17.5v9.852zm8.277-5.616V45.63"/><path stroke="#FFF" fill="#C72C48" fill-rule="nonzero" d="M8.577 17.501l16.552 8.424 16.6-8.424"/><path stroke="#FFF" fill="#C72C48" fill-rule="nonzero" d="M41.682 17.501l-8.277-4.237-8.276 4.237 8.276 4.236z"/><path stroke="#FFF" fill="#C72C48" fill-rule="nonzero" d="M25.13 17.501l-8.277-4.237-8.276 4.237 8.276 4.236z"/></g></svg>