<svg width="58" height="52" xmlns="http://www.w3.org/2000/svg"><g fill="none" fill-rule="evenodd"><path stroke="#FFF" stroke-width=".516" fill="#C72C48" fill-rule="nonzero" stroke-linejoin="round" d="M13.812 27.802l5.67 3.274 5.67-3.274-5.67-3.275zm0 0l-.002 6.547 5.67 3.275v-6.548z"/><path stroke="#FFF" stroke-width=".516" fill="#C72C48" fill-rule="nonzero" stroke-linejoin="round" d="M25.151 27.802v6.547l-5.67 3.275v-6.548zm8.469.3l5.67 3.273 5.672-3.273-5.672-3.275z"/><path stroke="#FFF" stroke-width=".516" fill="#C72C48" fill-rule="nonzero" stroke-linejoin="round" d="M33.62 28.102v6.547l5.67 3.274v-6.548zm11.34 0v6.547l-5.67 3.274v-6.548zM23.715 13.114l5.67 3.275 5.672-3.275-5.671-3.273zm0 0v6.55l5.67 3.272V16.39z"/><path stroke="#FFF" stroke-width=".516" fill="#C72C48" fill-rule="nonzero" stroke-linejoin="round" d="M35.055 13.114v6.55l-5.67 3.272V16.39z"/><path d="M14.136 30.108C11.749 29.74.966 28.077.943 25.8c-.008-.91 1.704-2.19 9.367-3.78m37.351 0c5.757.934 9.366 2.285 9.366 3.781 0 2.317-11.222 4-13.476 4.34M35.117 7.438c3.858-4.801 6.985-7.44 8.32-6.669 2.45 1.418-2.027 13.773-10.01 27.597-7.982 13.824-16.44 23.883-18.893 22.466-1.227-.708-.721-4.15 1.09-9.145" stroke="#C72C48" stroke-width="1.033"/><path d="M42.287 41.528c1.86 5.08 2.39 8.589 1.15 9.304-2.45 1.417-10.914-8.642-18.897-22.466C16.556 14.542 12.08 2.186 14.534.77c1.338-.772 4.462 1.867 8.32 6.67" stroke="#C72C48" stroke-width="1.033"/></g></svg>