<svg xmlns="http://www.w3.org/2000/svg" xmlns:xlink="http://www.w3.org/1999/xlink" width="198" height="61" viewBox="0 0 198 61">
  <defs>
    <polygon id="google_cloud-a" points=".023 .713 18.863 .713 18.863 9.272 .023 9.272"/>
    <polygon id="google_cloud-c" points="0 .708 14.996 .708 14.996 15.735 0 15.735"/>
    <polygon id="google_cloud-e" points=".11 .645 66.148 .645 66.148 22.24 .11 22.24"/>
    <polygon id="google_cloud-g" points="0 25.975 159.923 25.975 159.923 .89 0 .89"/>
  </defs>
  <g fill="none" fill-rule="evenodd">
    <rect width="198" height="61"/>
    <g transform="translate(19.038 17.156)">
      <g transform="translate(3.554 .177)">
        <mask id="google_cloud-b" fill="#fff">
          <use xlink:href="#google_cloud-a"/>
        </mask>
        <path fill="#EA4335" d="M15.2570169,7.29262625 L15.3503054,7.29262625 L15.2943323,7.24547833 L18.8561746,3.67913875 L18.8632823,3.61508875 C15.8647246,0.964130417 11.7049477,0.04963875 7.87301308,1.20075958 C4.04019,2.35632833 1.07272846,5.40582 0.0225669227,9.27194917 C0.0847592304,9.24704083 0.148728461,9.22569083 0.213586153,9.20967833 C1.53650538,8.33699708 3.10908231,7.83616167 4.76961692,7.82459708 C5.32312846,7.82281792 5.86953231,7.87619292 6.40349769,7.98027417 C6.43015154,7.96426167 6.45680538,7.957145 6.47901692,7.96070333 C8.77213615,5.43873458 12.6289477,5.14606167 15.2756746,7.29262625 L15.2570169,7.29262625 Z" mask="url(#google_cloud-b)"/>
      </g>
      <path fill="#4285F4" d="M25.963245,9.44915417 C25.3706412,7.26700625 24.1543373,5.305475 22.4644835,3.80118958 L18.848445,7.42268333 C20.3739335,8.67165833 21.2446258,10.5522375 21.2073104,12.5280021 L21.2073104,13.1693917 C25.4976912,13.1693917 25.4976912,19.6153125 21.2073104,19.6153125 L14.7695181,19.6153125 L14.759745,19.6250979 L14.759745,24.7402021 L14.7330912,24.7402021 L14.7695181,24.7775646 L21.2073104,24.7775646 C24.8997565,24.8069208 28.1719604,22.4103833 29.2700988,18.8805167 C30.3620181,15.3524292 29.0186642,11.5192146 25.963245,9.44915417"/>
      <path fill="#34A853" d="M8.32372962,24.7406469 L14.759745,24.7406469 L14.759745,19.5819531 L8.32372962,19.5819531 C7.86883731,19.5819531 7.41572192,19.4849885 7.00258731,19.2928385 L3.27993346,23.0184135 L3.27016038,23.0575552 C4.72546038,24.1561906 6.501495,24.7504323 8.32372962,24.7406469"/>
      <g transform="translate(0 7.294)">
        <mask id="google_cloud-d" fill="#fff">
          <use xlink:href="#google_cloud-c"/>
        </mask>
        <path fill="#FBBC05" d="M8.32372962,0.708108333 C4.74944885,0.732127083 1.58030654,3.02369375 0.439521923,6.41389583 C-0.704816538,9.80765625 0.435968077,13.5519125 3.27016038,15.73495 L7.00525269,11.9960312 C4.95201808,11.0673062 4.46158731,8.37542708 6.05371038,6.78040417 C7.644945,5.18805 10.3343181,5.67821042 11.2618719,7.73225833 L14.9960758,3.99511875 C13.408395,1.91527292 10.936695,0.698322917 8.32372962,0.708108333" mask="url(#google_cloud-d)"/>
      </g>
      <g transform="translate(38.204 3.735)">
        <mask id="google_cloud-f" fill="#fff">
          <use xlink:href="#google_cloud-e"/>
        </mask>
        <path fill="#5F6368" d="M58.4996838,11.8530752 L63.3071492,9.85418146 C63.16233,9.50012729 62.8975685,9.20834396 62.5590646,9.02864812 C62.1832454,8.81692729 61.75323,8.70395021 61.3205492,8.71373562 C60.5857915,8.73152729 59.8839069,9.03754396 59.3757069,9.57129396 C58.7591146,10.1655356 58.43838,10.9990752 58.4996838,11.8530752 Z M61.5177877,17.402296 C60.0909185,17.4396585 58.7120262,16.8783315 57.7133954,15.8562002 C56.7014377,14.8367377 56.1497031,13.4507669 56.1834646,12.0185377 C56.1310454,10.574744 56.6641223,9.17898771 57.6574223,8.14262312 C58.5983031,7.15251687 59.9123377,6.60097521 61.2734608,6.62855229 C61.8944954,6.62410437 62.5119762,6.74241896 63.0823685,6.98260646 C63.5994531,7.18987937 64.0712262,7.49767521 64.4657031,7.88731271 C64.8095377,8.21734812 65.1107262,8.58563562 65.3692685,8.98150021 C65.5824992,9.32043146 65.76108,9.67448562 65.9032338,10.0427731 L66.1475608,10.660144 L58.9145954,13.6358002 C59.3614915,14.6677169 60.3974377,15.3135544 61.5177877,15.2664065 C62.6008223,15.2664065 63.6083377,14.701521 64.1698454,13.7719065 L65.9778646,14.9933044 C65.5149762,15.6533752 64.9223723,16.2138127 64.2409223,16.6434815 C63.4253146,17.1576606 62.4835454,17.4209773 61.5177877,17.402296 Z M52.6847031,17.0767085 L55.0480108,17.0767085 L55.0480108,1.25368979 L52.6847031,1.25368979 L52.6847031,17.0767085 Z M46.1056454,15.2850877 C46.8874915,15.3002106 47.6355762,14.9692856 48.1499954,14.3803815 C48.7052838,13.7389919 49.00203,12.9090106 48.9691569,12.0603481 C49.00203,11.1974523 48.7097262,10.3532377 48.1499954,9.69761479 C47.6355762,9.10426271 46.8874915,8.77422729 46.1056454,8.79290854 C45.3006992,8.77778563 44.53218,9.10426271 43.9866646,9.69761479 C43.3878415,10.329219 43.0626646,11.1743231 43.0822108,12.0407773 C43.0626646,12.9045627 43.3931723,13.7389919 43.9866646,14.3608106 C44.5277377,14.9595002 45.3006992,15.2957627 46.1056454,15.2850877 Z M45.9403915,22.2362919 C44.8582454,22.2736544 43.7938685,21.9338335 42.9320608,21.2791002 C42.1635415,20.6973127 41.5558338,19.9304919 41.1746838,19.0480252 L43.2376915,18.1895773 C43.4633608,18.7188794 43.8116377,19.1796835 44.2603108,19.5381856 C44.7356377,19.9251544 45.3380146,20.128869 45.9501646,20.1092981 C46.7373415,20.156446 47.5040838,19.8593252 48.05493,19.2926606 C48.6013338,18.6379273 48.8696492,17.7946023 48.8092338,16.9406023 L48.8092338,16.1622169 L48.7239415,16.1622169 C48.0273877,16.9921981 46.9763377,17.444996 45.8977454,17.3836148 C44.5232954,17.3889523 43.2137031,16.8169502 42.2817069,15.8081627 C41.2688608,14.808271 40.70913,13.4374231 40.7331185,12.0185377 C40.70913,10.5836398 41.2644185,9.20300646 42.2817069,8.19421896 C43.2092608,7.18543146 44.5232954,6.60898146 45.8977454,6.60898146 C46.47258,6.60898146 47.03853,6.73797104 47.5609454,6.98260646 C48.0078415,7.18098354 48.4120915,7.47276687 48.7328262,7.84016479 L48.8190069,7.84016479 L48.8190069,6.98260646 L51.0588185,6.98260646 L51.0588185,16.6239106 C51.1778723,18.1673377 50.6590108,19.6894148 49.6239531,20.8360877 C48.6342069,21.7781565 47.3059569,22.2878877 45.9403915,22.2362919 Z M32.2323185,14.3519148 C33.3908723,15.587546 35.3552608,15.587546 36.5138146,14.3519148 C37.1161915,13.7247585 37.44048,12.8858815 37.41738,12.0185377 C37.44048,11.1449669 37.1161915,10.297194 36.5138146,9.67092729 C35.3401569,8.44863979 33.3855415,8.44863979 32.2172146,9.67092729 C31.6103954,10.297194 31.2869954,11.1449669 31.3136492,12.0185377 C31.2905492,12.8858815 31.6201685,13.7292065 32.2225454,14.3519148 L32.2323185,14.3519148 Z M38.2036685,15.865096 C36.0615877,17.9164752 32.6845454,17.9164752 30.5424646,15.865096 C29.50563,14.855419 28.93968,13.4614419 28.9787723,12.0185377 C28.93968,10.5711856 29.50563,9.17453979 30.5424646,8.17020021 C32.6845454,6.11437313 36.0615877,6.11437313 38.2036685,8.17020021 C39.2396146,9.17453979 39.8046762,10.5711856 39.7673608,12.0185377 C39.8046762,13.4614419 39.2396146,14.855419 38.2036685,15.865096 Z M20.4637569,14.3519148 C21.6178685,15.587546 23.5822569,15.587546 24.7399223,14.3519148 C25.3431877,13.7247585 25.6683646,12.8858815 25.6443762,12.0185377 C25.6683646,11.1449669 25.3431877,10.297194 24.7399223,9.67092729 C23.5680415,8.44863979 21.6134262,8.44863979 20.4459877,9.67092729 C19.8391685,10.297194 19.5131031,11.1449669 19.5415338,12.0185377 C19.5184338,12.8858815 19.8480531,13.7292065 20.4548723,14.3519148 L20.4637569,14.3519148 Z M26.4297762,15.865096 C24.2885838,17.9164752 20.9115415,17.9164752 18.7739031,15.865096 C17.7335146,14.855419 17.1675646,13.4614419 17.2057685,12.0185377 C17.1675646,10.5711856 17.7388454,9.17453979 18.7739031,8.17020021 C20.9115415,6.11971063 24.2885838,6.11971063 26.4297762,8.17020021 C27.4666108,9.17453979 28.0325608,10.5711856 27.9934685,12.0185377 C28.0325608,13.4614419 27.4621685,14.855419 26.42178,15.865096 L26.4297762,15.865096 Z M8.58324923,17.402296 C6.34077231,17.4307627 4.18891846,16.5438481 2.61278769,14.9506044 C0.992233846,13.4187419 0.0833376923,11.2784044 0.11088,9.04732937 C0.0833376923,6.81180646 0.992233846,4.67235854 2.61278769,3.14405437 C4.18003385,1.53123979 6.33633,0.625643958 8.58324923,0.645214792 C10.7208877,0.617637708 12.7838954,1.44672938 14.3049415,2.95635229 L12.6941608,4.59229604 C11.5924685,3.52657521 10.11318,2.94122937 8.58324923,2.96524813 C6.97246846,2.94122937 5.43276462,3.60130021 4.33018385,4.77555021 C3.19117615,5.90710021 2.56125692,7.46298146 2.58879923,9.07490646 C2.57369538,10.6654815 3.20094923,12.1964544 4.33018385,13.3191085 C6.66239538,15.6444794 10.4143685,15.6862898 12.79278,13.4187419 C13.5044377,12.6403565 13.9371185,11.6502502 14.0312954,10.6041002 L8.60634923,10.6041002 L8.60634923,8.28406687 L16.2870992,8.28406687 C16.3626185,8.75109812 16.3901608,9.22613562 16.3777223,9.69761479 C16.4710108,11.674269 15.7557992,13.606444 14.3946762,15.0404523 C12.8825146,16.6194627 10.7679762,17.477021 8.58324923,17.402296 Z" mask="url(#google_cloud-f)"/>
      </g>
      <path fill="#5F6368" d="M116.712928,21.1380123 C114.682793,21.1709269 112.729066,20.3783081 111.301308,18.9362935 C109.870885,17.4978373 109.088151,15.536306 109.137016,13.5044977 C109.088151,11.4771373 109.870885,9.51560604 111.301308,8.07270187 C112.729066,6.63513521 114.682793,5.83806854 116.712928,5.87543104 C118.770605,5.80960187 120.742989,6.69117896 122.075682,8.26663104 L120.77142,9.53072896 C119.796778,8.30399354 118.289058,7.61100812 116.721812,7.67594771 C115.214093,7.64392271 113.764124,8.22393104 112.696193,9.28876229 C111.58917,10.401631 110.994789,11.9343831 111.062312,13.5044977 C110.994789,15.0781706 111.58917,16.6064748 112.696193,17.724681 C113.764124,18.7895123 115.214093,19.3704102 116.721812,19.3374956 C118.473858,19.3552873 120.137058,18.578681 121.242305,17.2202873 L122.543012,18.5217477 C121.864228,19.3374956 121.006862,19.9931185 120.041105,20.4307935 C118.996274,20.9111685 117.861708,21.1566935 116.712928,21.1380123"/>
      <mask id="google_cloud-h" fill="#fff">
        <use xlink:href="#google_cloud-g"/>
      </mask>
      <polygon fill="#5F6368" points="124.171 20.812 126.041 20.812 126.041 6.191 124.171 6.191" mask="url(#google_cloud-h)"/>
      <path fill="#5F6368" d="M130.491012 18.4406177C131.734858 19.7563115 133.830738 19.7563115 135.072808 18.4406177 135.737377 17.728951 136.085654 16.7859927 136.043896 15.8154573 136.085654 14.8431427 135.737377 13.9001844 135.072808 13.1885177 133.830738 11.872824 131.734858 11.872824 130.491012 13.1885177 129.831773 13.9001844 129.483496 14.8431427 129.526142 15.8154573 129.487938 16.7815448 129.836215 17.7245031 130.500785 18.4317219L130.491012 18.4406177zM129.097904 12.0142677C131.140477 9.98334896 134.437558 9.98334896 136.476577 12.0142677 137.446777 13.0381781 137.96475 14.4054677 137.921215 15.8154573 137.96475 17.2254469 137.446777 18.5909573 136.476577 19.6148677 134.437558 21.6475656 131.140477 21.6475656 129.097904 19.6148677 128.132146 18.5909573 127.610619 17.2254469 127.652377 15.8154573 127.610619 14.4054677 128.132146 13.0381781 129.097904 12.0142677zM148.296758 20.8122469L146.488739 20.8122469 146.488739 19.426276 146.431877 19.426276C146.111143 19.953799 145.653585 20.3843573 145.112512 20.6761406 144.548339 21.0017281 143.907758 21.1751969 143.257404 21.1751969 142.188585 21.2463635 141.142866 20.8273698 140.41877 20.0356406 139.734654 19.1665177 139.391708 18.0785573 139.453012 16.975474L139.453012 10.8168885 141.322335 10.8168885 141.322335 16.6303156C141.322335 18.4931031 142.145939 19.426276 143.790481 19.426276 144.534123 19.4494052 145.24045 19.110474 145.692677 18.5215698 146.176889 17.9033094 146.431877 17.1391573 146.422993 16.3572135L146.422993 10.8168885 148.296758 10.8168885 148.296758 20.8122469zM154.959331 19.4266319C155.812254 19.4408652 156.631416 19.0823631 157.210693 18.4498694 157.846831 17.724859 158.17112 16.7765631 158.115147 15.8149235 158.17112 14.853284 157.846831 13.9058777 157.210693 13.1790881 155.996166 11.8456027 153.900285 11.8456027 152.689312 13.1790881 152.04962 13.9005402 151.724443 14.8434985 151.785747 15.8051381 151.724443 16.7676673 152.04962 17.709736 152.689312 18.4320777 153.265035 19.0779152 154.093081 19.4408652 154.959331 19.4266319M154.64837 21.1381902C153.363654 21.1435277 152.143797 20.5822006 151.305977 19.6054381 150.369539 18.5726319 149.865781 17.2106798 149.903097 15.8149235 149.865781 14.4138298 150.369539 13.0563256 151.305977 12.0190715 152.143797 11.0476465 153.363654 10.4880985 154.64837 10.4907673 155.360027 10.482761 156.066354 10.6464444 156.69272 10.9827069 157.248897 11.2593673 157.71445 11.6801402 158.050289 12.2032152L158.128473 12.2032152 158.050289 10.8172444 158.050289 6.19141104 159.923166 6.19141104 159.923166 20.8126027 158.115147 20.8126027 158.115147 19.4266319 158.030743 19.4266319C157.695793 19.9497069 157.230239 20.3695902 156.674062 20.6480298 156.052139 20.9771756 155.354697 21.1488652 154.64837 21.1381902" mask="url(#google_cloud-h)"/>
    </g>
  </g>
</svg>
