<svg width="59" height="59" xmlns="http://www.w3.org/2000/svg"><g fill="none" fill-rule="evenodd"><path stroke="#C72C48" stroke-width="1.033" fill="#FFF" fill-rule="nonzero" stroke-linejoin="round" d="M11.536 34.548l18.02 10.403 18.017-10.403-18.017-10.403z"/><path fill="#C72C48" fill-rule="nonzero" d="M29.556 48.696l18.017-10.402v-3.746L29.556 44.951zm-18.02-14.148v3.746l18.02 10.402v-3.745z"/><path stroke="#C72C48" stroke-width="1.033" fill="#FFF" fill-rule="nonzero" stroke-linejoin="round" d="M11.536 27.475l18.02 10.402 18.017-10.402-18.017-10.403z"/><path fill="#C72C48" fill-rule="nonzero" d="M29.556 41.623L47.573 31.22v-3.745L29.556 37.877zm-18.02-14.148v3.745l18.02 10.403v-3.746z"/><path stroke="#C72C48" stroke-width="1.033" fill="#FFF" fill-rule="nonzero" stroke-linejoin="round" d="M11.536 20.816l18.02 10.404 18.017-10.404-18.017-10.402z"/><path fill="#C72C48" fill-rule="nonzero" d="M29.556 34.965l18.017-10.403v-3.746L29.556 31.22zm-18.02-14.149v3.746l18.02 10.403V31.22z"/><path d="M29.556 58.495A28.935 28.935 0 0 1 .62 29.555M29.556.621a28.935 28.935 0 0 1 28.939 28.935" stroke="#C72C48" stroke-width="1.033" stroke-linejoin="round" stroke-dasharray="2.282"/></g></svg>