<svg width="58" height="51" xmlns="http://www.w3.org/2000/svg"><g fill="none" fill-rule="evenodd"><path stroke="#C72C48" stroke-width="1.033" stroke-linejoin="round" d="M56.25 38.208l1.216-.56v-1.426"/><path d="M57.466 33.31V17.297" stroke="#C72C48" stroke-width="1.033" stroke-linejoin="round" stroke-dasharray="2.329"/><path stroke="#C72C48" stroke-width="1.033" stroke-linejoin="round" d="M57.466 15.84v-1.426l-1.203-.593"/><path d="M53.935 12.675L31.82 1.778" stroke="#C72C48" stroke-width="1.033" stroke-linejoin="round" stroke-dasharray="2.208"/><path stroke="#C72C48" stroke-width="1.033" stroke-linejoin="round" d="M30.656 1.205L29.453.612l-1.202.593"/><path d="M25.923 2.352L3.81 13.247" stroke="#C72C48" stroke-width="1.033" stroke-linejoin="round" stroke-dasharray="2.208"/><path stroke="#C72C48" stroke-width="1.033" stroke-linejoin="round" d="M2.645 13.821l-1.203.593v1.426"/><path d="M1.442 18.752v16.014" stroke="#C72C48" stroke-width="1.033" stroke-linejoin="round" stroke-dasharray="2.329"/><path stroke="#C72C48" stroke-width="1.033" stroke-linejoin="round" d="M1.442 36.222v1.427l1.216.559"/><path d="M4.984 39.275l22.09 10.15" stroke="#C72C48" stroke-width="1.033" stroke-linejoin="round" stroke-dasharray="2.181"/><path stroke="#C72C48" stroke-width="1.033" stroke-linejoin="round" d="M28.238 49.96l1.215.558 1.217-.559"/><path d="M32.996 48.891l22.09-10.15" stroke="#C72C48" stroke-width="1.033" stroke-linejoin="round" stroke-dasharray="2.181"/><path d="M57.466 37.649l-1.216-.562" stroke="#C72C48" stroke-width="1.033" stroke-linejoin="round"/><path d="M53.925 36.015L31.832 25.819" stroke="#C72C48" stroke-width="1.033" stroke-linejoin="round" stroke-dasharray="2.183"/><path stroke="#C72C48" stroke-width="1.033" stroke-linejoin="round" d="M30.67 25.282l-1.217-.561-1.215.561"/><path d="M25.913 26.355L3.821 36.551" stroke="#C72C48" stroke-width="1.033" stroke-linejoin="round" stroke-dasharray="2.183"/><path d="M2.657 37.087l-1.215.562M29.453.612v1.427" stroke="#C72C48" stroke-width="1.033" stroke-linejoin="round"/><path d="M29.453 5.075v16.702" stroke="#C72C48" stroke-width="1.033" stroke-linejoin="round" stroke-dasharray="2.429"/><path d="M29.453 23.294v1.427" stroke="#C72C48" stroke-width="1.033" stroke-linejoin="round"/><path d="M40.513 35.823v2.303a2.915 2.915 0 0 1-.188 1.016 1.56 1.56 0 0 1-.503.609c-.246.16-.524.253-.811.27a5.33 5.33 0 0 1-1.066.068 7.948 7.948 0 0 1-1.82-.202 5.627 5.627 0 0 1-1.757-.678c-1.25-.785-2.188-2.038-2.637-3.52l-1.756-5.147a6.386 6.386 0 0 1-.314-1.015c-.063-.271-.126-.609-.188-.875-.189.609-.377 1.219-.628 1.895l-3.013 8.26a2.097 2.097 0 0 1-.564.751 2.01 2.01 0 0 1-1.068.339h-5.212l7.719-17.943-1.507-4.537a4.232 4.232 0 0 0-.439-.948 2.48 2.48 0 0 0-.564-.609 1.688 1.688 0 0 0-.753-.271 5.024 5.024 0 0 0-1.004-.068h-1.569v-2.109c.011-.275.053-.548.125-.812a1.45 1.45 0 0 1 .565-.677 2.77 2.77 0 0 1 1.004-.474 4.002 4.002 0 0 1 1.57-.136 14.15 14.15 0 0 1 1.695.136 7.7 7.7 0 0 1 1.756.61 7.18 7.18 0 0 1 1.57 1.218 6.381 6.381 0 0 1 1.13 2.03l6.65 18.825c.128.5.39.947.754 1.285.51.33 1.099.495 1.694.475l1.129-.069z" fill="#C72C48" fill-rule="nonzero"/></g></svg>