<svg xmlns="http://www.w3.org/2000/svg" width="128" height="128" viewBox="0 0 128 128">
  <g fill="none" fill-rule="evenodd">
    <rect width="128" height="128"/>
    <polygon fill="#FFD76C" fill-rule="nonzero" points="76.177 106.464 53.384 126.174 38.446 100.005 8.825 94.474 19.972 66.479 5.827 39.872 34.665 31.132 46.648 3.484 71.461 20.58 100.548 12.711 102.652 42.77 126.941 60.605 104.751 80.992 105.951 111.101" opacity=".4"/>
    <path fill="#FFF" fill-rule="nonzero" d="M60,82.6703527 C54.1191569,80.1472964 50,74.3046885 50,67.5 C50,58.3873016 57.3873016,51 66.5,51 C75.6126984,51 83,58.3873016 83,67.5 C83,73.9120282 79.3425139,79.4698047 74,82.2008712 L74,92 L67,96 L60,92 L60,82.6703527 Z"/>
    <polyline stroke="#053157" stroke-linecap="round" stroke-linejoin="round" stroke-width="2" points="58 74 58 83.855 64 88 66 88 72 83.855 72 74"/>
    <path stroke="#053157" stroke-linecap="round" stroke-linejoin="round" stroke-width="2" d="M58 84L69.1926343 82.4010522M60.5319287 79.6382959L72 78M58 76L69.0532153 74.4209692M57.9968262 73.9730155L57.0666667 73.5795719C51.6744895 70.7701461 48 65.1860816 48 58.7561068 48 49.5019646 55.6111593 42 65 42 74.3888407 42 82 49.5019646 82 58.7561068 82 65.1860816 78.3255105 70.7701461 72.9333333 73.5795719L72 74"/>
    <g fill-rule="nonzero" transform="translate(58 59)">
      <path stroke="#053157" stroke-linecap="round" stroke-linejoin="round" stroke-width="2" d="M3 12L0 1M11 12L14 1"/>
      <circle cx="4" cy="1" r="1" fill="#053157"/>
      <circle cx="7" cy="1" r="1" fill="#053157"/>
      <circle cx="10" cy="1" r="1" fill="#053157"/>
    </g>
    <path fill="#053157" fill-rule="nonzero" d="M65,23 C64.4477153,23 64,22.5522847 64,22 C64,21.4477153 64.4477153,21 65,21 C65.5522847,21 66,21.4477153 66,22 C66,22.5522847 65.5522847,23 65,23 Z M65,31 C64.4477153,31 64,30.5522847 64,30 C64,29.4477153 64.4477153,29 65,29 C65.5522847,29 66,29.4477153 66,30 C66,30.5522847 65.5522847,31 65,31 Z M65,15 C64.4477153,15 64,14.5522847 64,14 C64,13.4477153 64.4477153,13 65,13 C65.5522847,13 66,13.4477153 66,14 C66,14.5522847 65.5522847,15 65,15 Z M65,7 C64.4477153,7 64,6.55228475 64,6 C64,5.44771525 64.4477153,5 65,5 C65.5522847,5 66,5.44771525 66,6 C66,6.55228475 65.5522847,7 65,7 Z M85.5,28.4929584 C85.0217074,28.2168161 84.8578322,27.6052257 85.1339746,27.126933 C85.410117,26.6486404 86.0217074,26.4847653 86.5,26.7609076 C86.9782926,27.03705 87.1421678,27.6486404 86.8660254,28.126933 C86.589883,28.6052257 85.9782926,28.7691008 85.5,28.4929584 Z M100.507042,43.5 C100.230899,43.0217074 100.394774,42.410117 100.873067,42.1339746 C101.35136,41.8578322 101.96295,42.0217074 102.239092,42.5 C102.515235,42.9782926 102.35136,43.589883 101.873067,43.8660254 C101.394774,44.1421678 100.783184,43.9782926 100.507042,43.5 Z M106,64 C106,63.4477153 106.447715,63 107,63 C107.552285,63 108,63.4477153 108,64 C108,64.5522847 107.552285,65 107,65 C106.447715,65 106,64.5522847 106,64 Z M100.507042,84.5 C100.783184,84.0217074 101.394774,83.8578322 101.873067,84.1339746 C102.35136,84.410117 102.515235,85.0217074 102.239092,85.5 C101.96295,85.9782926 101.35136,86.1421678 100.873067,85.8660254 C100.394774,85.589883 100.230899,84.9782926 100.507042,84.5 Z M85.5,99.5070416 C85.9782926,99.2308992 86.589883,99.3947743 86.8660254,99.873067 C87.1421678,100.35136 86.9782926,100.96295 86.5,101.239092 C86.0217074,101.515235 85.410117,101.35136 85.1339746,100.873067 C84.8578322,100.394774 85.0217074,99.7831839 85.5,99.5070416 Z M65,105 C65.5522847,105 66,105.447715 66,106 C66,106.552285 65.5522847,107 65,107 C64.4477153,107 64,106.552285 64,106 C64,105.447715 64.4477153,105 65,105 Z M44.5,99.5070416 C44.9782926,99.7831839 45.1421678,100.394774 44.8660254,100.873067 C44.589883,101.35136 43.9782926,101.515235 43.5,101.239092 C43.0217074,100.96295 42.8578322,100.35136 43.1339746,99.873067 C43.410117,99.3947743 44.0217074,99.2308992 44.5,99.5070416 Z M29.4929584,84.5 C29.7691008,84.9782926 29.6052257,85.589883 29.126933,85.8660254 C28.6486404,86.1421678 28.03705,85.9782926 27.7609076,85.5 C27.4847653,85.0217074 27.6486404,84.410117 28.126933,84.1339746 C28.6052257,83.8578322 29.2168161,84.0217074 29.4929584,84.5 Z M24,64 C24,64.5522847 23.5522847,65 23,65 C22.4477153,65 22,64.5522847 22,64 C22,63.4477153 22.4477153,63 23,63 C23.5522847,63 24,63.4477153 24,64 Z M29.4929584,43.5 C29.2168161,43.9782926 28.6052257,44.1421678 28.126933,43.8660254 C27.6486404,43.589883 27.4847653,42.9782926 27.7609076,42.5 C28.03705,42.0217074 28.6486404,41.8578322 29.126933,42.1339746 C29.6052257,42.410117 29.7691008,43.0217074 29.4929584,43.5 Z M44.5,28.4929584 C44.0217074,28.7691008 43.410117,28.6052257 43.1339746,28.126933 C42.8578322,27.6486404 43.0217074,27.03705 43.5,26.7609076 C43.9782926,26.4847653 44.589883,26.6486404 44.8660254,27.126933 C45.1421678,27.6052257 44.9782926,28.2168161 44.5,28.4929584 Z M81.5,35.4211617 C81.0217074,35.1450193 80.8578322,34.5334289 81.1339746,34.0551363 C81.410117,33.5768436 82.0217074,33.4129685 82.5,33.6891109 C82.9782926,33.9652532 83.1421678,34.5768436 82.8660254,35.0551363 C82.589883,35.5334289 81.9782926,35.6973041 81.5,35.4211617 Z M93.5788383,47.5 C93.3026959,47.0217074 93.4665711,46.410117 93.9448637,46.1339746 C94.4231564,45.8578322 95.0347468,46.0217074 95.3108891,46.5 C95.5870315,46.9782926 95.4231564,47.589883 94.9448637,47.8660254 C94.4665711,48.1421678 93.8549807,47.9782926 93.5788383,47.5 Z M98,64 C98,63.4477153 98.4477153,63 99,63 C99.5522847,63 100,63.4477153 100,64 C100,64.5522847 99.5522847,65 99,65 C98.4477153,65 98,64.5522847 98,64 Z M93.5788383,80.5 C93.8549807,80.0217074 94.4665711,79.8578322 94.9448637,80.1339746 C95.4231564,80.410117 95.5870315,81.0217074 95.3108891,81.5 C95.0347468,81.9782926 94.4231564,82.1421678 93.9448637,81.8660254 C93.4665711,81.589883 93.3026959,80.9782926 93.5788383,80.5 Z M81.5,92.5788383 C81.9782926,92.3026959 82.589883,92.4665711 82.8660254,92.9448637 C83.1421678,93.4231564 82.9782926,94.0347468 82.5,94.3108891 C82.0217074,94.5870315 81.410117,94.4231564 81.1339746,93.9448637 C80.8578322,93.4665711 81.0217074,92.8549807 81.5,92.5788383 Z M65,97 C65.5522847,97 66,97.4477153 66,98 C66,98.5522847 65.5522847,99 65,99 C64.4477153,99 64,98.5522847 64,98 C64,97.4477153 64.4477153,97 65,97 Z M48.5,92.5788383 C48.9782926,92.8549807 49.1421678,93.4665711 48.8660254,93.9448637 C48.589883,94.4231564 47.9782926,94.5870315 47.5,94.3108891 C47.0217074,94.0347468 46.8578322,93.4231564 47.1339746,92.9448637 C47.410117,92.4665711 48.0217074,92.3026959 48.5,92.5788383 Z M36.4211617,80.5 C36.6973041,80.9782926 36.5334289,81.589883 36.0551363,81.8660254 C35.5768436,82.1421678 34.9652532,81.9782926 34.6891109,81.5 C34.4129685,81.0217074 34.5768436,80.410117 35.0551363,80.1339746 C35.5334289,79.8578322 36.1450193,80.0217074 36.4211617,80.5 Z M32,64 C32,64.5522847 31.5522847,65 31,65 C30.4477153,65 30,64.5522847 30,64 C30,63.4477153 30.4477153,63 31,63 C31.5522847,63 32,63.4477153 32,64 Z M36.4211617,47.5 C36.1450193,47.9782926 35.5334289,48.1421678 35.0551363,47.8660254 C34.5768436,47.589883 34.4129685,46.9782926 34.6891109,46.5 C34.9652532,46.0217074 35.5768436,45.8578322 36.0551363,46.1339746 C36.5334289,46.410117 36.6973041,47.0217074 36.4211617,47.5 Z M48.5,35.4211617 C48.0217074,35.6973041 47.410117,35.5334289 47.1339746,35.0551363 C46.8578322,34.5768436 47.0217074,33.9652532 47.5,33.6891109 C47.9782926,33.4129685 48.589883,33.5768436 48.8660254,34.0551363 C49.1421678,34.5334289 48.9782926,35.1450193 48.5,35.4211617 Z M89.5,21.5647552 C89.0217074,21.2886128 88.8578322,20.6770224 89.1339746,20.1987298 C89.410117,19.7204372 90.0217074,19.556562 90.5,19.8327044 C90.9782926,20.1088468 91.1421678,20.7204372 90.8660254,21.1987298 C90.589883,21.6770224 89.9782926,21.8408976 89.5,21.5647552 Z M107.435245,39.5 C107.159102,39.0217074 107.322978,38.410117 107.80127,38.1339746 C108.279563,37.8578322 108.891153,38.0217074 109.167296,38.5 C109.443438,38.9782926 109.279563,39.589883 108.80127,39.8660254 C108.322978,40.1421678 107.711387,39.9782926 107.435245,39.5 Z M114,64 C114,63.4477153 114.447715,63 115,63 C115.552285,63 116,63.4477153 116,64 C116,64.5522847 115.552285,65 115,65 C114.447715,65 114,64.5522847 114,64 Z M107.435245,88.5 C107.711387,88.0217074 108.322978,87.8578322 108.80127,88.1339746 C109.279563,88.410117 109.443438,89.0217074 109.167296,89.5 C108.891153,89.9782926 108.279563,90.1421678 107.80127,89.8660254 C107.322978,89.589883 107.159102,88.9782926 107.435245,88.5 Z M89.5,106.435245 C89.9782926,106.159102 90.589883,106.322978 90.8660254,106.80127 C91.1421678,107.279563 90.9782926,107.891153 90.5,108.167296 C90.0217074,108.443438 89.410117,108.279563 89.1339746,107.80127 C88.8578322,107.322978 89.0217074,106.711387 89.5,106.435245 Z M65,113 C65.5522847,113 66,113.447715 66,114 C66,114.552285 65.5522847,115 65,115 C64.4477153,115 64,114.552285 64,114 C64,113.447715 64.4477153,113 65,113 Z M40.5,106.435245 C40.9782926,106.711387 41.1421678,107.322978 40.8660254,107.80127 C40.589883,108.279563 39.9782926,108.443438 39.5,108.167296 C39.0217074,107.891153 38.8578322,107.279563 39.1339746,106.80127 C39.410117,106.322978 40.0217074,106.159102 40.5,106.435245 Z M22.5647552,88.5 C22.8408976,88.9782926 22.6770224,89.589883 22.1987298,89.8660254 C21.7204372,90.1421678 21.1088468,89.9782926 20.8327044,89.5 C20.556562,89.0217074 20.7204372,88.410117 21.1987298,88.1339746 C21.6770224,87.8578322 22.2886128,88.0217074 22.5647552,88.5 Z M16,64 C16,64.5522847 15.5522847,65 15,65 C14.4477153,65 14,64.5522847 14,64 C14,63.4477153 14.4477153,63 15,63 C15.5522847,63 16,63.4477153 16,64 Z M22.5647552,39.5 C22.2886128,39.9782926 21.6770224,40.1421678 21.1987298,39.8660254 C20.7204372,39.589883 20.556562,38.9782926 20.8327044,38.5 C21.1088468,38.0217074 21.7204372,37.8578322 22.1987298,38.1339746 C22.6770224,38.410117 22.8408976,39.0217074 22.5647552,39.5 Z M40.5,21.5647552 C40.0217074,21.8408976 39.410117,21.6770224 39.1339746,21.1987298 C38.8578322,20.7204372 39.0217074,20.1088468 39.5,19.8327044 C39.9782926,19.556562 40.589883,19.7204372 40.8660254,20.1987298 C41.1421678,20.6770224 40.9782926,21.2886128 40.5,21.5647552 Z M93.5,14.636552 C93.0217074,14.3604096 92.8578322,13.7488192 93.1339746,13.2705266 C93.410117,12.792234 94.0217074,12.6283588 94.5,12.9045012 C94.9782926,13.1806436 95.1421678,13.792234 94.8660254,14.2705266 C94.589883,14.7488192 93.9782926,14.9126944 93.5,14.636552 Z M114.363448,35.5 C114.087306,35.0217074 114.251181,34.410117 114.729473,34.1339746 C115.207766,33.8578322 115.819356,34.0217074 116.095499,34.5 C116.371641,34.9782926 116.207766,35.589883 115.729473,35.8660254 C115.251181,36.1421678 114.63959,35.9782926 114.363448,35.5 Z M122,64 C122,63.4477153 122.447715,63 123,63 C123.552285,63 124,63.4477153 124,64 C124,64.5522847 123.552285,65 123,65 C122.447715,65 122,64.5522847 122,64 Z M114.363448,92.5 C114.63959,92.0217074 115.251181,91.8578322 115.729473,92.1339746 C116.207766,92.410117 116.371641,93.0217074 116.095499,93.5 C115.819356,93.9782926 115.207766,94.1421678 114.729473,93.8660254 C114.251181,93.589883 114.087306,92.9782926 114.363448,92.5 Z M93.5,113.363448 C93.9782926,113.087306 94.589883,113.251181 94.8660254,113.729473 C95.1421678,114.207766 94.9782926,114.819356 94.5,115.095499 C94.0217074,115.371641 93.410117,115.207766 93.1339746,114.729473 C92.8578322,114.251181 93.0217074,113.63959 93.5,113.363448 Z M65,121 C65.5522847,121 66,121.447715 66,122 C66,122.552285 65.5522847,123 65,123 C64.4477153,123 64,122.552285 64,122 C64,121.447715 64.4477153,121 65,121 Z M36.5,113.363448 C36.9782926,113.63959 37.1421678,114.251181 36.8660254,114.729473 C36.589883,115.207766 35.9782926,115.371641 35.5,115.095499 C35.0217074,114.819356 34.8578322,114.207766 35.1339746,113.729473 C35.410117,113.251181 36.0217074,113.087306 36.5,113.363448 Z M15.636552,92.5 C15.9126944,92.9782926 15.7488192,93.589883 15.2705266,93.8660254 C14.792234,94.1421678 14.1806436,93.9782926 13.9045012,93.5 C13.6283588,93.0217074 13.792234,92.410117 14.2705266,92.1339746 C14.7488192,91.8578322 15.3604096,92.0217074 15.636552,92.5 Z M8,64 C8,64.5522847 7.55228475,65 7,65 C6.44771525,65 6,64.5522847 6,64 C6,63.4477153 6.44771525,63 7,63 C7.55228475,63 8,63.4477153 8,64 Z M15.636552,35.5 C15.3604096,35.9782926 14.7488192,36.1421678 14.2705266,35.8660254 C13.792234,35.589883 13.6283588,34.9782926 13.9045012,34.5 C14.1806436,34.0217074 14.792234,33.8578322 15.2705266,34.1339746 C15.7488192,34.410117 15.9126944,35.0217074 15.636552,35.5 Z M36.5,14.636552 C36.0217074,14.9126944 35.410117,14.7488192 35.1339746,14.2705266 C34.8578322,13.792234 35.0217074,13.1806436 35.5,12.9045012 C35.9782926,12.6283588 36.589883,12.792234 36.8660254,13.2705266 C37.1421678,13.7488192 36.9782926,14.3604096 36.5,14.636552 Z"/>
  </g>
</svg>
