<svg xmlns="http://www.w3.org/2000/svg" xmlns:xlink="http://www.w3.org/1999/xlink" width="198" height="61" viewBox="0 0 198 61">
  <defs>
    <rect id="mariadb-a" width="127.13" height="38.322"/>
    <rect id="mariadb-c" width="127.13" height="38.322"/>
    <rect id="mariadb-e" width="127.13" height="38.322"/>
    <rect id="mariadb-g" width="127.13" height="38.322"/>
    <rect id="mariadb-i" width="127.13" height="38.322"/>
    <rect id="mariadb-k" width="127.13" height="38.322"/>
    <rect id="mariadb-m" width="127.13" height="38.322"/>
    <rect id="mariadb-o" width="127.13" height="38.322"/>
    <rect id="mariadb-q" width="127.13" height="38.322"/>
    <rect id="mariadb-s" width="127.13" height="38.322"/>
    <rect id="mariadb-u" width="127.13" height="38.322"/>
    <rect id="mariadb-w" width="127.13" height="38.322"/>
  </defs>
  <g fill="none" fill-rule="evenodd">
    <rect width="198" height="61"/>
    <g transform="translate(34.904 11.438)">
      <mask id="mariadb-b" fill="#fff">
        <use xlink:href="#mariadb-a"/>
      </mask>
      <path fill="#444B5E" fill-rule="nonzero" d="M49.9587674,3.56061207 C48.7150799,3.59202137 47.9809588,4.13734034 47.7397951,5.17785704 C48.0593537,5.45719935 48.4878678,5.57882687 48.9150532,5.56011494 C49.8551268,5.51934968 50.7865637,4.79960884 50.5228116,3.57865571 C50.3248314,3.56194864 50.1361523,3.5552658 49.9587674,3.56061207" mask="url(#mariadb-b)"/>
      <mask id="mariadb-d" fill="#fff">
        <use xlink:href="#mariadb-c"/>
      </mask>
      <path fill="#444B5E" fill-rule="nonzero" d="M101.333957,18.1204948 C100.322796,16.7251198 99.0040358,16.0281006 97.3803326,16.0281006 C95.9685613,16.0281006 94.7574276,16.5500296 93.7449384,17.5925512 C92.7331136,18.6230436 92.226869,19.8667184 92.226869,21.3242437 C92.226869,22.7697399 92.72647,24.0200975 93.7263362,25.0753165 C94.7381611,26.1185063 95.9758693,26.6404353 97.4361391,26.6404353 C98.8977377,26.6404353 100.197232,25.9554452 101.333957,24.585465 L101.333957,26.3009476 L102.590267,26.3009476 L102.590267,16.2920724 L101.333957,16.2920724 L101.333957,18.1204948 Z M100.247723,24.2840693 C99.473076,25.0632874 98.5423035,25.4528964 97.4554056,25.4528964 C96.3811307,25.4528964 95.4570018,25.05059 94.6823546,24.2459772 C93.9077073,23.4293353 93.5203837,22.4683443 93.5203837,21.3623358 C93.5203837,20.2569957 93.9017281,19.3020192 94.6637524,18.4974064 C95.4257767,17.6807645 96.3565493,17.2717753 97.4554056,17.2717753 C98.5675493,17.2717753 99.5043011,17.6680672 100.266325,18.4593143 C101.027685,19.2385323 101.409694,20.2001916 101.409694,21.3436239 C101.409694,22.5251483 101.02237,23.5048513 100.247723,24.2840693 Z" mask="url(#mariadb-d)"/>
      <mask id="mariadb-f" fill="#fff">
        <use xlink:href="#mariadb-e"/>
      </mask>
      <rect width="1.293" height="10.009" x="89.696" y="16.293" fill="#444B5E" fill-rule="nonzero" mask="url(#mariadb-f)"/>
      <mask id="mariadb-h" fill="#fff">
        <use xlink:href="#mariadb-g"/>
      </mask>
      <polygon fill="#444B5E" fill-rule="nonzero" points="69.05 12.768 63.616 23.87 58.144 12.768 57.938 12.768 56.026 26.301 57.32 26.301 58.631 16.537 63.447 26.301 63.784 26.301 68.544 16.613 69.856 26.301 71.186 26.301 69.256 12.768" mask="url(#mariadb-h)"/>
      <g>
        <mask id="mariadb-j" fill="#fff">
          <use xlink:href="#mariadb-i"/>
        </mask>
        <path fill="#444B5E" fill-rule="nonzero" d="M80.9619303,18.1204948 C79.9514342,16.7251198 78.6326737,16.0281006 77.0083062,16.0281006 C75.5971992,16.0281006 74.3860655,16.5500296 73.3735763,17.5925512 C72.3610871,18.6230436 71.8555069,19.8667184 71.8555069,21.3242437 C71.8555069,22.7697399 72.3551079,24.0200975 73.3543098,25.0753165 C74.3661346,26.1185063 75.6038428,26.6404353 77.064777,26.6404353 C78.5263756,26.6404353 79.8258696,25.9554452 80.9619303,24.585465 L80.9619303,26.3009476 L82.2175763,26.3009476 L82.2175763,16.2920724 L80.9619303,16.2920724 L80.9619303,18.1204948 Z M79.8756968,24.2840693 C79.1010496,25.0632874 78.170277,25.4528964 77.0833792,25.4528964 C76.0091043,25.4528964 75.0849754,25.05059 74.3103281,24.2459772 C73.5356809,23.4293353 73.1483573,22.4683443 73.1483573,21.3623358 C73.1483573,20.2569957 73.5290373,19.3020192 74.2910616,18.4974064 C75.0537503,17.6807645 75.9838585,17.2717753 77.0833792,17.2717753 C78.1955228,17.2717753 79.1322746,17.6680672 79.894299,18.4593143 C80.655659,19.2385323 81.0370033,20.2001916 81.0370033,21.3436239 C81.0376677,22.5251483 80.6510084,23.5048513 79.8756968,24.2840693 Z" mask="url(#mariadb-j)"/>
      </g>
      <g>
        <mask id="mariadb-l" fill="#fff">
          <use xlink:href="#mariadb-k"/>
        </mask>
        <path fill="#444B5E" fill-rule="nonzero" d="M113.376864,14.5391659 C112.727117,13.9236773 111.953135,13.4772642 111.053587,13.2012633 C110.166663,12.912565 108.767514,12.7675476 106.856142,12.7675476 L104.064489,12.7675476 L104.064489,26.3016158 L108.355609,26.3016158 C110.104877,26.3016158 111.440911,26.0369758 112.36504,25.5097004 C113.301791,24.9817568 114.039899,24.2025388 114.57604,23.1720463 C115.126132,22.1281882 115.400514,21.0235163 115.400514,19.8546893 C115.400514,18.6724966 115.225787,17.6433407 114.876332,16.7638802 C114.526877,15.8837514 114.026611,15.1426255 113.376864,14.5391659 M113.620686,22.0406431 C113.332352,22.7316478 112.914468,23.32241 112.364375,23.8122615 C111.815611,24.2900839 111.171179,24.6095232 110.435065,24.7732525 C109.710245,24.9369819 108.536316,25.0185124 106.911284,25.0185124 L105.35601,25.0185124 L105.35601,14.0867383 L106.311364,14.0867383 C107.923109,14.0867383 109.14155,14.1749517 109.966025,14.3507101 C110.802458,14.5144395 111.527278,14.8412299 112.139156,15.3310814 C112.751699,15.8209328 113.220075,16.4431043 113.544948,17.1969276 C113.882445,17.9507509 114.050529,18.7740756 114.050529,19.6662335 C114.050529,20.5583913 113.907691,21.3496385 113.620686,22.0406431" mask="url(#mariadb-l)"/>
      </g>
      <g>
        <mask id="mariadb-n" fill="#fff">
          <use xlink:href="#mariadb-m"/>
        </mask>
        <path fill="#444B5E" fill-rule="nonzero" d="M122.04813,18.9117419 C122.610846,18.6103463 123.034045,18.2147227 123.322378,17.7242029 C123.622006,17.2216541 123.772152,16.6749986 123.772152,16.0842364 C123.772152,15.01632 123.403431,14.1996782 122.666652,13.6336424 C121.941832,13.0555776 120.874201,12.7668793 119.462429,12.7668793 L116.801656,12.7668793 L116.801656,26.3009476 L120.511459,26.3009476 C121.798994,26.3009476 122.848023,25.936065 123.659875,25.2076365 C124.471726,24.4658423 124.877652,23.5362606 124.877652,22.4175548 C124.877652,21.5888838 124.633831,20.8718161 124.146853,20.2683565 C123.671833,19.6662335 122.972259,19.2138059 122.04813,18.9117419 Z M118.13171,14.0874066 L119.687648,14.0874066 C121.486743,14.0874066 122.386291,14.7530165 122.386291,16.0849046 C122.386291,16.8895174 122.099286,17.4802796 121.524612,17.8571913 C120.949274,18.2341029 120.074972,18.4225587 118.901043,18.4225587 L118.132375,18.4225587 L118.132375,14.0874066 L118.13171,14.0874066 Z M123.041353,23.7935496 C122.753019,24.195856 122.379647,24.4972516 121.916586,24.6984048 C121.467477,24.8868606 120.761259,24.9817568 119.799926,24.9817568 L118.131046,24.9817568 L118.131046,19.7791733 L118.880447,19.7791733 C120.092245,19.7791733 120.91672,19.8419919 121.3552,19.9676291 C121.804973,20.0932663 122.185653,20.2823904 122.497904,20.5336649 C122.822777,20.7849393 123.065934,21.0743059 123.229367,21.400428 C123.390808,21.7272184 123.472524,22.10413 123.472524,22.5311629 C123.472524,22.9581958 123.329022,23.3792141 123.041353,23.7935496 Z" mask="url(#mariadb-n)"/>
      </g>
      <g>
        <mask id="mariadb-p" fill="#fff">
          <use xlink:href="#mariadb-o"/>
        </mask>
        <path fill="#444B5E" fill-rule="nonzero" d="M126.979032,13.3322468 C126.878713,13.1511421 126.737868,13.0114709 126.55849,12.9139016 C126.377784,12.8163323 126.193755,12.7675476 126.004412,12.7675476 C125.815068,12.7675476 125.630375,12.8163323 125.450333,12.9139016 C125.270291,13.0114709 125.13011,13.1511421 125.028462,13.3322468 C124.927479,13.514688 124.876988,13.7038121 124.876988,13.9009556 C124.876988,14.0960943 124.926815,14.2838818 125.026469,14.46365 C125.125459,14.6440864 125.264311,14.7837575 125.443689,14.8833317 C125.622403,14.9835742 125.809753,15.0330271 126.004412,15.0330271 C126.19907,15.0330271 126.385756,14.9835742 126.565134,14.8833317 C126.744512,14.7837575 126.8827,14.6440864 126.981025,14.46365 C127.08068,14.2838818 127.130507,14.0960943 127.130507,13.9009556 C127.129843,13.7038121 127.079351,13.514688 126.979032,13.3322468 M126.819585,14.3700903 C126.737204,14.5197857 126.620941,14.6367353 126.472123,14.7202707 C126.323306,14.803806 126.167181,14.8452396 126.005076,14.8452396 C125.842971,14.8452396 125.686846,14.803806 125.537364,14.7202707 C125.388547,14.6367353 125.272284,14.5197857 125.189238,14.3700903 C125.106193,14.2203949 125.064338,14.0640167 125.064338,13.9009556 C125.064338,13.736558 125.106193,13.5788432 125.190567,13.427143 C125.275605,13.2754427 125.393198,13.1591615 125.542015,13.0776309 C125.692825,12.9961004 125.846293,12.9553351 126.004412,12.9553351 C126.161866,12.9553351 126.315334,12.9961004 126.46548,13.0776309 C126.615626,13.1591615 126.732553,13.2754427 126.816263,13.427143 C126.900637,13.5788432 126.942492,13.736558 126.942492,13.9009556 C126.943157,14.0640167 126.901966,14.2203949 126.819585,14.3700903" mask="url(#mariadb-p)"/>
      </g>
      <g>
        <mask id="mariadb-r" fill="#fff">
          <use xlink:href="#mariadb-q"/>
        </mask>
        <path fill="#444B5E" fill-rule="nonzero" d="M126.200399,14.0459731 C126.175817,14.0212466 126.140606,13.9991932 126.098087,13.9811496 C126.203056,13.9731302 126.286766,13.9363746 126.350545,13.8702146 C126.413659,13.8047229 126.445549,13.727202 126.445549,13.6383204 C126.445549,13.5755018 126.427611,13.5160246 126.389078,13.4598888 C126.350545,13.4037531 126.300053,13.3643244 126.236939,13.342271 C126.172495,13.3195494 126.070184,13.3081886 125.927346,13.3081886 L125.51079,13.3081886 L125.51079,14.5258003 L125.706777,14.5258003 L125.706777,14.0092175 L125.821712,14.0092175 C125.890141,14.0085492 125.942626,14.0225832 125.977173,14.0499828 C126.029657,14.0880749 126.098751,14.1829711 126.183125,14.3340031 L126.291416,14.5258003 L126.52793,14.5258003 L126.380441,14.2872232 C126.30869,14.1742834 126.249562,14.0940894 126.200399,14.0459731 M125.942626,13.8401419 L125.706113,13.8401419 L125.706113,13.4745911 L125.928674,13.4745911 C126.024343,13.4745911 126.088786,13.4812739 126.125326,13.4953078 C126.160537,13.5093418 126.187776,13.5300585 126.207707,13.5587947 C126.226973,13.5868626 126.237603,13.6196085 126.237603,13.6550275 C126.237603,13.710495 126.217008,13.7559382 126.175817,13.7893524 C126.133962,13.8234348 126.056232,13.8401419 125.942626,13.8401419" mask="url(#mariadb-r)"/>
      </g>
      <g>
        <mask id="mariadb-t" fill="#fff">
          <use xlink:href="#mariadb-s"/>
        </mask>
        <path fill="#444B5E" fill-rule="nonzero" d="M90.3347632,12.7675476 C90.0823053,12.7675476 89.8630655,12.8611072 89.6763795,13.0488948 C89.5009877,13.236014 89.4132918,13.4572157 89.4132918,13.7111633 C89.4132918,13.95375 89.5009877,14.1689371 89.6763795,14.3567247 C89.8630655,14.5445122 90.0823053,14.6380718 90.3347632,14.6380718 C90.5985153,14.6380718 90.8184195,14.5498585 90.9931469,14.3734318 C91.1798329,14.1856442 91.2728438,13.9644425 91.2728438,13.7111633 C91.2728438,13.4458549 91.1798329,13.2253215 90.9931469,13.0488948 C90.8177551,12.8611072 90.5985153,12.7675476 90.3347632,12.7675476" mask="url(#mariadb-t)"/>
      </g>
      <g>
        <mask id="mariadb-v" fill="#fff">
          <use xlink:href="#mariadb-u"/>
        </mask>
        <path fill="#444B5E" fill-rule="nonzero" d="M87.9463783,16.1363624 C86.8887124,16.2807116 85.9446526,16.7839287 85.242421,17.523718 C85.1952512,17.5738393 85.1480814,17.6252971 85.1029047,17.6780914 L85.1029047,16.3127892 L84.8796788,16.3127892 L84.8796788,16.2920724 L83.877155,16.2920724 L83.877155,16.3127892 L83.877155,26.3016158 L83.877155,26.3049573 L85.1826283,26.3049573 L85.1826283,23.8423342 L85.1826283,20.3712721 C85.1826283,19.792539 85.3414111,19.2719465 85.6556547,18.808158 C86.1911313,17.948746 87.1305406,17.3726861 88.2061442,17.3506327 L88.2061442,16.0795584 C87.9995273,16.1183188 87.9463783,16.133021 87.9463783,16.1363624" mask="url(#mariadb-v)"/>
      </g>
      <g>
        <mask id="mariadb-x" fill="#fff">
          <use xlink:href="#mariadb-w"/>
        </mask>
        <path fill="#444B5E" fill-rule="nonzero" d="M56.3638909,0 L56.2695514,0 L56.2529423,0 C55.3660177,0.028736171 55.2284946,0.512573096 53.3131361,0.987054059 C51.3785111,1.466213 49.5096581,1.00576598 47.4262157,1.88522647 C41.2071139,4.50957399 39.8823741,13.5614679 34.2286451,16.7739045 C30.0026322,19.1750454 25.9161355,20.2409569 22.0834255,21.4485444 C19.5641611,22.2424646 17.0661562,23.1566758 14.783405,25.1347936 C13.011549,26.6711764 12.5305502,27.8647299 10.6796349,29.7920582 C8.79616587,31.7521324 3.0042494,28.2830751 0.182035457,30.8212141 C-0.0657719351,31.0430841 -0.0591283053,31.4387076 0.191336538,31.6585727 C0.803214844,32.1965406 1.96585006,33.4776392 3.07201442,33.8732628 C2.72123077,34.5422141 0.738107272,36.5103077 1.14270433,37.4946886 C1.568561,38.529859 6.48351833,37.8268253 11.0284255,35.0668163 C13.1444216,33.7810397 14.8305748,31.9285591 18.1271439,31.486824 C22.3923543,30.915442 27.3066472,31.8537114 32.2448573,32.5694425 C31.5120649,34.7654206 30.042494,36.2269556 28.8645784,37.9751841 C28.4998431,38.3708077 29.5973708,38.4149143 30.8483663,38.1763373 C33.0998924,37.6163161 34.7229312,37.165225 36.4217073,36.1708199 C38.5098002,34.9478619 38.826037,31.8136144 41.3871562,31.1359754 C42.6255288,33.0506063 45.7114949,33.6948312 48.0799489,32.6790409 C48.2114928,32.6229052 48.3403792,32.5607548 48.4666082,32.4952631 C48.7529486,32.244657 48.5848648,31.951949 48.409473,31.7367619 C48.321777,31.6572362 48.2480328,31.5783788 48.1689736,31.4935068 C46.8322752,30.0486789 46.5266683,26.6377622 47.1199444,24.9790837 C47.7956016,23.0918524 48.4632864,20.0718813 49.1435941,17.577849 C49.8743933,14.8980339 50.1441247,11.5211997 51.0283918,10.1558974 C52.3584465,8.10293193 53.8286818,7.39789332 55.1049231,6.2397588 C56.3805,5.08162428 57.5491145,3.95489907 57.5105814,1.30515679 C57.4986229,0.490519756 57.0993407,0.0200484914 56.3638909,0 M56.499421,2.78206232 C56.2363332,4.60914817 55.0697118,5.62026042 53.7044459,6.58325629 C52.5019489,7.43197575 51.1838528,8.24928592 50.33679,9.57515948 C49.4697963,10.9324423 48.9190394,15.5796827 47.5737043,20.1687823 C46.4575745,23.9766591 44.7940096,27.7437707 41.948543,29.5581591 C41.7638501,29.6757769 41.5200288,29.5681834 41.4808314,29.3516597 C41.2888305,28.2877531 41.3213843,26.3383714 40.993189,26.972572 C40.581284,28.155433 40.1149011,29.2834948 39.5694591,30.3320309 C37.8952644,33.550482 35.472997,36.0157782 31.5592347,36.9807789 C31.2436623,37.0582997 31.0024985,36.6980952 31.1925063,36.4327868 C32.9982449,33.914028 34.6139757,31.203472 34.8112915,27.0674682 C34.8279005,26.7106051 34.382113,26.547544 34.1582227,26.8242132 C33.3051806,27.8821052 33.1012212,30.3975226 31.8482326,31.1720627 C30.8689615,31.2796563 29.8770676,31.278988 28.8791944,31.2188425 C24.7794105,30.9715778 20.5733284,29.7312444 16.7386253,30.9695729 C14.1270144,31.8129461 11.3858528,34.2100774 9.1741884,35.1750781 C6.57520042,36.3084862 5.34413582,37.3784073 2.06151833,37.3048962 C1.72601502,36.8504637 3.4314348,34.8837067 4.01075931,34.0349872 C4.19545222,33.762996 3.80015625,33.4769709 3.43010607,33.3058904 C2.5411884,32.8955647 1.64894892,31.7815368 0.701567308,31.3478211 C0.823145733,31.1226097 1.25365294,30.8973983 1.49016617,30.7590638 C3.64336659,29.5026916 9.35090895,32.1784969 10.8849231,30.6634993 C11.8316403,29.7292396 12.4694288,28.908588 13.1125322,27.9576212 C13.736369,27.0347223 14.6857437,26.0610339 15.6683365,25.2530797 C16.0310787,24.9543572 16.5393164,24.5827918 16.9578651,24.2940936 C18.6320598,23.1419736 19.5535313,23.0564334 21.7213477,22.2464743 C24.4797828,21.2146453 27.8952728,20.3097901 30.8543456,19.1723723 C32.6826725,18.4686703 34.6704465,17.6012389 36.2908278,16.3863003 C36.675494,16.097602 37.0395649,15.7895235 37.3763969,15.46006 C42.0030207,10.9224181 42.920506,2.91906034 50.1394742,2.17325647 C51.0124471,2.08303825 51.6329621,2.04494612 52.2840379,2.02422935 C53.0121797,2.00484914 53.7330135,1.81772989 54.4518543,1.47757381 C54.6737515,1.38000449 55.9958338,0.576059986 56.4422858,0.964332435 C56.7399204,1.22362626 56.5186875,2.62969379 56.499421,2.78206232" mask="url(#mariadb-x)"/>
      </g>
    </g>
  </g>
</svg>
