<svg xmlns="http://www.w3.org/2000/svg" xmlns:xlink="http://www.w3.org/1999/xlink" width="198" height="61" viewBox="0 0 198 61">
  <defs>
    <path id="ms_sql-a" d="M19.2747151,0.142809896 C19.4481916,1.26657406 19.5434895,2.37939714 19.5697392,3.45075928 C18.4786638,2.87894385 16.3706969,1.49374544 15.8068985,1.00542773 L15.4505299,1.18681934 C15.449674,1.1329777 15.4431115,1.08057568 15.4331252,1.03191667 L14.8639057,1.22396143 C14.6812989,1.36590755 14.7497765,1.20467057 14.7763115,1.42723519 C14.9603449,2.92501156 14.6747365,4.57596305 14.1428943,6.23612809 C13.0124442,5.27935937 11.9832839,3.93533398 11.7056646,2.66012223 C11.5841169,2.70618994 11.4634253,2.74707503 11.3393097,2.79573405 C11.2012134,2.84698437 11.1253174,2.82510221 11.1666893,2.97626188 C11.637187,4.65399023 12.9094426,5.99830355 13.7965121,6.7132168 C12.7562241,7.13502425 11.5761279,7.57007617 10.2468077,8.0163571 C9.77659523,8.17385107 9.15573222,8.37971615 8.43072628,8.60976676 C9.09210517,7.65702897 10.6128772,4.68220671 11.1555617,2.85187907 L10.3443882,3.18068734 C9.44419385,5.3380957 8.03640978,7.59195833 7.46233975,8.50985742 C7.43066889,8.56398698 7.39643012,8.60976676 7.36590055,8.66101709 C6.77927631,7.56633317 6.57897951,6.32538428 7.01894769,4.94162549 L7.00354025,4.96465934 C7.08371603,4.73086572 6.30021886,5.31678939 6.2277468,5.35594694 C5.99606446,5.4535529 6.01375449,5.62486719 5.9681028,5.85261442 C5.90105188,6.19006038 5.86823972,6.54017497 5.8716636,6.89230501 C5.87936732,7.67862321 6.15670135,8.45774333 6.59809615,9.19309912 C4.87788332,9.72374154 2.89717052,10.3148478 1.03144292,10.8198651 C1.03800535,10.7545065 1.04428246,10.6908755 1.05797797,10.6266686 C1.3204752,9.26220068 2.69544711,7.55078532 4.23162655,6.63518962 L4.6031172,6.18113477 L2.49001449,7.67084928 C1.57954855,8.44334717 0.580632462,9.60540511 0.185745323,10.715349 L0.185745323,12.7570122 C0.569790185,13.7955511 1.49623422,14.6636395 2.45491975,15.3460174 C4.03789218,16.4778434 5.69561926,17.037854 7.60443065,17.5955612 C9.46359582,18.1354172 13.029849,18.6507996 15.3161428,18.7748945 L16.458291,18.7748945 C16.4722719,18.7466781 16.5570128,18.5831377 16.5698524,18.5675898 C16.7536004,18.2350386 19.2644435,13.5004299 19.9423711,9.50146484 C20.3754916,6.92138525 20.698192,3.4746569 20.1132797,0.142809896 L19.2747151,0.142809896 Z M15.4759237,1.39268441 C16.3809685,2.00020231 18.7243269,3.3839611 19.5534758,3.70269206 C18.482373,4.50052718 16.9638835,5.36516048 14.8105503,6.29371273 C15.4202857,4.12824251 15.5558142,2.40703776 15.4759237,1.39268441 Z M14.9997195,6.87704508 C17.6560773,5.5442487 19.3834232,4.25377702 19.5811521,4.04762402 C19.595133,5.82670133 19.4393466,7.48571468 19.2008165,8.8772474 C17.6954519,8.45774333 16.2771109,7.72353923 14.9997195,6.87704508 Z M14.5255125,7.22226497 C16.4859674,8.43701286 18.5365843,8.94490934 19.1642951,9.07908154 L19.1642951,9.08944678 C18.0284239,9.77614355 14.2390482,11.2341865 12.4697598,11.8955461 C13.3953478,10.2238641 14.0604359,8.64431755 14.5255125,7.22226497 Z M10.0579238,11.5618431 C9.23933188,10.9554769 8.48893218,10.2725231 7.91600345,9.51528516 C8.92861505,9.24406152 9.92211,8.95383496 10.8765157,8.62128369 C11.8765731,8.27721549 12.8184246,7.89485352 13.6852361,7.5021263 C13.0198626,9.20202474 12.1424942,10.8607502 11.2870956,12.3314618 C11.2833864,12.334341 11.2734001,12.3369323 11.2682643,12.3406753 C10.8437035,12.0976681 10.4368328,11.8379614 10.0579238,11.5618431 Z M12.1059728,12.7777427 C14.0173521,11.9583133 17.9970384,10.138063 19.1083718,9.39262988 C19.0729917,9.5754611 19.0416062,9.74821501 19.0033729,9.91924137 C18.7574244,11.0438693 18.2287207,12.8318722 17.6789032,14.5136315 C15.8451318,14.1977798 13.8512941,13.630859 12.1059728,12.7777427 Z M1.02516582,11.1791932 C2.81242957,10.7355036 4.71610514,10.3208942 6.58782452,9.85561035 C5.20001308,11.9439172 3.9948084,13.4748047 3.28235668,14.6604723 C2.22951452,13.8266468 1.08993415,12.5001847 1.02516582,11.1791932 Z M3.53971809,14.8588514 C4.66389102,13.1912004 6.02545274,11.6614645 7.26461086,10.1317287 C7.56876526,10.505165 7.90316391,10.8607502 8.26324163,11.1884067 C8.8983708,11.7740425 9.6142464,12.2623602 10.3623635,12.6706353 C8.18220988,13.4609844 5.9198832,14.2778224 3.76398203,15.0174971 C3.69322191,14.9662467 3.61675532,14.916436 3.53971809,14.8588514 Z M8.7425844,17.2388244 C9.88444735,15.8973903 10.8437035,14.5697765 11.6485999,13.2882305 C14.4250788,14.4571986 17.2061228,14.6693979 17.5670565,14.7079797 C16.2517171,15.2219225 9.39740086,17.1901654 9.06414351,17.288923 C9.04645348,17.2941056 9.02990474,17.3004399 9.01620923,17.3041829 C8.92119665,17.2823008 8.82989326,17.2618582 8.7425844,17.2388244 Z M8.01101603,17.034111 C6.08080542,16.3808133 5.20143969,16.0096803 4.03789218,15.2092539 C4.92781486,14.9561694 8.81191791,13.9277078 10.7081751,13.312416 C9.64477597,15.0658682 8.70064191,16.445884 8.35825422,17.127686 L8.35197711,17.1380513 C8.22529366,17.0994696 8.11344702,17.0660705 8.01101603,17.034111 Z M9.58999394,17.4343242 C12.4469339,16.7669183 14.3303515,16.4677661 17.5522197,14.9101017 C17.0297932,16.4919517 16.5127878,17.9180352 16.2328858,18.5304478 C14.7309451,18.3542388 11.6508825,17.8757104 9.58999394,17.4343242 Z"/>
    <radialGradient id="ms_sql-b" cx="2599.672%" cy="-8865.671%" r="278.826%" fx="2599.672%" fy="-8865.671%" gradientTransform="matrix(.92033 0 0 1 2.071 0)">
      <stop offset="0%" stop-color="#F2F0F1"/>
      <stop offset="100%" stop-color="#8E9BA7"/>
    </radialGradient>
    <path id="ms_sql-d" d="M7.66948431,0.0264889323 C7.78047498,1.04573698 8.02414089,2.0336014 8.42330788,3.06753353 C7.08371603,2.71741895 3.82133197,2.2273737 2.69858566,2.08801888 C4.17456194,1.1963208 6.08822382,0.410578451 7.05775163,0.0264889323 L6.2574204,0.0264889323 C4.24361012,0.761844727 0.999201415,2.08801888 0.0196872923,3.16571533 L0.0196872923,3.9330306 C0.309290215,4.208861 0.825724985,4.43545654 1.05483942,4.60245199 C0.3449556,4.05223079 1.09392868,3.27483822 1.54131526,2.89621924 C1.71250911,2.7516818 1.90624348,2.60455306 2.11823852,2.45886393 C2.66834142,3.15074333 4.0727016,4.95803711 4.61253286,5.52841292 L5.58947908,5.45815967 C5.09415822,5.01303044 2.94225157,2.86022884 2.33108954,2.31576611 C2.33850794,2.30914388 2.34735295,2.30684049 2.34735295,2.30684049 C3.35910858,2.70302279 6.79097455,3.38597656 8.59450172,3.49625114 C8.59450172,3.49625114 8.60477335,3.51525407 8.60734126,3.52821061 C7.96992951,3.84262272 6.8138004,4.41328646 5.56437065,5.24164144 L6.38296255,5.38243587 C7.32452871,4.89411816 7.99389665,4.40436084 8.71005757,3.76200423 C9.04074702,4.50542187 9.4436232,5.28022314 9.94037068,6.1244139 L10.7327129,6.20877539 C9.42536252,3.9131639 8.40732978,1.81909863 7.89374825,0.0264889323 L7.66948431,0.0264889323 Z"/>
    <radialGradient id="ms_sql-e" cx="4858.58%" cy="-26432.314%" r="626.718%" fx="4858.58%" fy="-26432.314%" gradientTransform="matrix(.57708 0 0 1 20.548 0)">
      <stop offset="0%" stop-color="#F2F0F1"/>
      <stop offset="100%" stop-color="#8E9BA7"/>
    </radialGradient>
    <path id="ms_sql-g" d="M2.96051225,0.0400213216 C3.00673458,0.175633138 3.09889394,0.293393717 3.18220828,0.378618978 C5.26021625,2.76521419 8.24640757,4.16279329 8.24640757,9.02034521 C8.24640757,13.4837303 4.26415338,17.6214743 0.27819,20.965702 C0.238244769,20.9976615 0.198299538,21.0299089 0.157783662,21.0627321 L0.157783662,21.1819323 C4.66674425,18.450693 7.58930852,17.2716476 11.1815261,15.8550656 C15.8710962,14.0109176 25.194313,11.367207 30.5755062,10.6062261 L30.4399778,10.3925871 C28.4589797,7.22859928 25.4031695,4.32287858 16.3073551,2.62701107 C14.3831363,2.27027425 12.1031196,1.98091146 8.12714252,1.28269775 C7.02208625,1.08777376 4.17941243,0.644659993 3.29148702,0.0400213216 L2.96051225,0.0400213216 Z M4.40396169,1.01291374 C5.04993314,1.24699528 5.87251957,1.46812028 6.73676317,1.67916797 C7.12223465,2.78824805 7.42496243,3.79597917 7.66463382,4.71157487 C6.91423412,3.30708561 5.79034652,2.05375602 4.40396169,1.01291374 Z M7.10597123,1.76352946 C8.72803292,2.13351074 10.4491017,2.43899723 11.4491591,2.60656852 C10.7255798,2.97597396 9.06014898,3.9888877 8.27579585,4.96494727 C7.88661517,3.46573128 7.36932443,2.30079411 7.10597123,1.76352946 Z M8.78623883,5.33579232 C9.52779351,4.46482471 10.6328498,3.59990348 11.8623069,2.67423047 C11.8725786,2.67797347 11.8825649,2.67941309 11.8942631,2.67941309 C12.2754547,3.83916764 12.407274,5.08645085 12.2985659,6.3728916 C11.1056301,5.96864746 9.91297966,5.64387012 8.78623883,5.33579232 Z M12.2551968,2.73958903 C14.0256265,3.02981559 15.7926323,3.33559001 17.536527,3.73724284 C15.885077,4.46741602 14.4858526,5.17052441 12.9245647,6.28853011 C12.9702164,4.96494727 12.7191321,3.76027669 12.2551968,2.73958903 Z M13.437861,6.78750098 C14.7737436,5.83073226 16.3413086,4.82415283 18.0954749,3.89416097 C18.0004623,4.93413949 17.442941,6.38815153 16.3629931,8.22596517 C15.4251362,7.64551204 14.4404862,7.17850065 13.437861,6.78750098 Z M18.4909326,3.96470215 C19.8987167,4.32287858 21.2856722,4.74986865 22.6426687,5.29116423 C23.1890624,5.49443799 23.7112037,5.72477653 24.2082365,5.96260107 C21.6366196,6.51771696 19.333777,7.27322738 17.2803068,8.13411768 C18.0546737,6.55572282 18.4059064,5.14749056 18.4909326,3.96470215 Z M8.55455649,6.27067887 C9.42165332,6.44199316 10.516438,6.7604362 11.7090884,7.22341667 C10.7977665,7.96539469 9.80798077,8.86803385 8.67125363,10.0012995 C8.83189052,8.69931087 8.7500028,7.42438704 8.55455649,6.27067887 Z M20.2613623,12.0475695 C19.4501888,10.7559461 18.4566939,9.73784977 17.3653331,8.91266195 C19.5631768,7.9294043 21.9938441,7.01092936 24.6074034,6.2859388 C23.7591379,7.75031608 22.3601989,9.32352832 20.2613623,12.0475695 L20.2690661,12.0490091 L20.2539439,12.0553434 L20.2613623,12.0475695 Z M25.0279697,6.38959115 C27.3542087,7.67372852 28.9788383,9.22505859 29.8074165,10.1982389 C29.8519269,10.250641 29.9329587,10.3197425 30.0265446,10.3822218 C28.9115021,10.4461408 25.7304351,10.6920272 20.9432845,11.8802861 C22.9596627,9.99122217 23.9291905,8.80181152 25.0279697,6.38959115 Z M12.7724875,7.65818066 C13.6307394,8.03679964 14.5198061,8.47530664 15.3971745,8.97946012 C13.9551517,9.67911344 12.6529372,10.4130296 11.4833979,11.149825 C12.1524805,9.95004915 12.5670549,8.77733805 12.7724875,7.65818066 Z M8.79023335,10.6306995 C9.37343372,10.0588841 10.4998892,9.01631429 12.0737313,7.80156641 C11.7724302,9.15077441 11.2072051,10.5218646 10.3883279,11.8391131 C9.85220585,11.2010754 9.22221249,10.8247598 8.79023335,10.6306995 Z M16.4440249,9.61634619 C17.6164174,10.3721445 18.7343132,11.2367778 19.7026998,12.2024722 C17.442941,12.8062471 14.8710388,13.6052339 12.0297916,14.6797632 C14.0256265,12.9006859 15.4476767,11.1921497 16.4440249,9.61634619 Z M10.7837857,12.3930773 C12.100837,11.5897716 13.6190411,10.7288813 15.3021619,9.89131283 C14.3021046,11.3723896 13.0155828,13.0529972 11.4237654,14.9149964 L11.4186295,14.916436 C11.4263333,13.8548633 11.1641214,13.0299634 10.7837857,12.3930773 Z M8.34256145,11.6151089 C8.83331714,11.8494784 9.24903286,12.1218537 9.58999394,12.4235972 C8.62046612,13.1143249 7.76249963,13.7869134 7.01181462,14.3981743 C7.64180797,13.4940955 8.06751,12.5566177 8.34256145,11.6151089 Z M10.2111423,13.0685451 C10.7295743,13.7333597 10.9752375,14.4482729 11.0360113,15.0647165 C8.84729797,15.9126502 7.10340332,16.6186379 5.43283671,17.4947881 C7.48858948,16.0508534 9.05358655,14.5556683 10.2111423,13.0685451 Z M6.34130538,15.3753856 C7.06887923,14.8384089 8.09204778,14.1093874 9.36573,13.2830479 C8.13227834,14.8291953 6.52419748,16.269387 4.54576726,17.4729059 C5.23653443,16.7709492 5.83599822,16.0721597 6.34130538,15.3753856 Z"/>
    <radialGradient id="ms_sql-h" cx="1662.729%" cy="-7728.689%" r="133.791%" fx="1662.729%" fy="-7728.689%" gradientTransform="matrix(.69505 0 0 1 5.07 0)">
      <stop offset="0%" stop-color="#E22E2A"/>
      <stop offset="100%" stop-color="#A51D35"/>
    </radialGradient>
    <path id="ms_sql-j" d="M2.96051225,0.0400213216 C3.00673458,0.175633138 3.09889394,0.293393717 3.18220828,0.378618978 C5.26021625,2.76521419 8.24640757,4.16279329 8.24640757,9.02034521 C8.24640757,13.4837303 4.26415338,17.6214743 0.27819,20.965702 C0.238244769,20.9976615 0.198299538,21.0299089 0.157783662,21.0627321 L0.157783662,21.1819323 C4.66674425,18.450693 7.58930852,17.2716476 11.1815261,15.8550656 C15.8710962,14.0109176 25.194313,11.367207 30.5755062,10.6062261 L30.4399778,10.3925871 C28.4589797,7.22859928 25.4031695,4.32287858 16.3073551,2.62701107 C14.3831363,2.27027425 12.1031196,1.98091146 8.12714252,1.28269775 C7.02208625,1.08777376 4.17941243,0.644659993 3.29148702,0.0400213216 L2.96051225,0.0400213216 Z M4.40396169,1.01291374 C5.04993314,1.24699528 5.87251957,1.46812028 6.73676317,1.67916797 C7.12223465,2.78824805 7.42496243,3.79597917 7.66463382,4.71157487 C6.91423412,3.30708561 5.79034652,2.05375602 4.40396169,1.01291374 Z M7.10597123,1.76352946 C8.72803292,2.13351074 10.4491017,2.43899723 11.4491591,2.60656852 C10.7255798,2.97597396 9.06014898,3.9888877 8.27579585,4.96494727 C7.88661517,3.46573128 7.36932443,2.30079411 7.10597123,1.76352946 Z M8.78623883,5.33579232 C9.52779351,4.46482471 10.6328498,3.59990348 11.8623069,2.67423047 C11.8725786,2.67797347 11.8825649,2.67941309 11.8942631,2.67941309 C12.2754547,3.83916764 12.407274,5.08645085 12.2985659,6.3728916 C11.1056301,5.96864746 9.91297966,5.64387012 8.78623883,5.33579232 Z M12.2551968,2.73958903 C14.0256265,3.02981559 15.7926323,3.33559001 17.536527,3.73724284 C15.885077,4.46741602 14.4858526,5.17052441 12.9245647,6.28853011 C12.9702164,4.96494727 12.7191321,3.76027669 12.2551968,2.73958903 Z M13.437861,6.78750098 C14.7737436,5.83073226 16.3413086,4.82415283 18.0954749,3.89416097 C18.0004623,4.93413949 17.442941,6.38815153 16.3629931,8.22596517 C15.4251362,7.64551204 14.4404862,7.17850065 13.437861,6.78750098 Z M18.4909326,3.96470215 C19.8987167,4.32287858 21.2856722,4.74986865 22.6426687,5.29116423 C23.1890624,5.49443799 23.7112037,5.72477653 24.2082365,5.96260107 C21.6366196,6.51771696 19.333777,7.27322738 17.2803068,8.13411768 C18.0546737,6.55572282 18.4059064,5.14749056 18.4909326,3.96470215 Z M8.55455649,6.27067887 C9.42165332,6.44199316 10.516438,6.7604362 11.7090884,7.22341667 C10.7977665,7.96539469 9.80798077,8.86803385 8.67125363,10.0012995 C8.83189052,8.69931087 8.7500028,7.42438704 8.55455649,6.27067887 Z M20.2613623,12.0475695 C19.4501888,10.7559461 18.4566939,9.73784977 17.3653331,8.91266195 C19.5631768,7.9294043 21.9938441,7.01092936 24.6074034,6.2859388 C23.7591379,7.75031608 22.3601989,9.32352832 20.2613623,12.0475695 L20.2690661,12.0490091 L20.2539439,12.0553434 L20.2613623,12.0475695 Z M25.0279697,6.38959115 C27.3542087,7.67372852 28.9788383,9.22505859 29.8074165,10.1982389 C29.8519269,10.250641 29.9329587,10.3197425 30.0265446,10.3822218 C28.9115021,10.4461408 25.7304351,10.6920272 20.9432845,11.8802861 C22.9596627,9.99122217 23.9291905,8.80181152 25.0279697,6.38959115 Z M12.7724875,7.65818066 C13.6307394,8.03679964 14.5198061,8.47530664 15.3971745,8.97946012 C13.9551517,9.67911344 12.6529372,10.4130296 11.4833979,11.149825 C12.1524805,9.95004915 12.5670549,8.77733805 12.7724875,7.65818066 Z M8.79023335,10.6306995 C9.37343372,10.0588841 10.4998892,9.01631429 12.0737313,7.80156641 C11.7724302,9.15077441 11.2072051,10.5218646 10.3883279,11.8391131 C9.85220585,11.2010754 9.22221249,10.8247598 8.79023335,10.6306995 Z M16.4440249,9.61634619 C17.6164174,10.3721445 18.7343132,11.2367778 19.7026998,12.2024722 C17.442941,12.8062471 14.8710388,13.6052339 12.0297916,14.6797632 C14.0256265,12.9006859 15.4476767,11.1921497 16.4440249,9.61634619 Z M10.7837857,12.3930773 C12.100837,11.5897716 13.6190411,10.7288813 15.3021619,9.89131283 C14.3021046,11.3723896 13.0155828,13.0529972 11.4237654,14.9149964 L11.4186295,14.916436 C11.4263333,13.8548633 11.1641214,13.0299634 10.7837857,12.3930773 Z M8.34256145,11.6151089 C8.83331714,11.8494784 9.24903286,12.1218537 9.58999394,12.4235972 C8.62046612,13.1143249 7.76249963,13.7869134 7.01181462,14.3981743 C7.64180797,13.4940955 8.06751,12.5566177 8.34256145,11.6151089 Z M10.2111423,13.0685451 C10.7295743,13.7333597 10.9752375,14.4482729 11.0360113,15.0647165 C8.84729797,15.9126502 7.10340332,16.6186379 5.43283671,17.4947881 C7.48858948,16.0508534 9.05358655,14.5556683 10.2111423,13.0685451 Z M6.34130538,15.3753856 C7.06887923,14.8384089 8.09204778,14.1093874 9.36573,13.2830479 C8.13227834,14.8291953 6.52419748,16.269387 4.54576726,17.4729059 C5.23653443,16.7709492 5.83599822,16.0721597 6.34130538,15.3753856 Z"/>
    <radialGradient id="ms_sql-k" cx="1662.729%" cy="-7728.689%" r="53.367%" fx="1662.729%" fy="-7728.689%" gradientTransform="matrix(.69505 0 0 1 5.07 0)">
      <stop offset="0%" stop-color="#F37063"/>
      <stop offset="100%" stop-color="#E22E2A"/>
    </radialGradient>
    <polygon id="ms_sql-m" points=".209 .163 7.311 .163 7.311 12.794 .209 12.794"/>
  </defs>
  <g fill="none" fill-rule="evenodd">
    <rect width="198" height="61"/>
    <g transform="translate(9.52 10.802)">
      <g transform="translate(0 17.765)">
        <mask id="ms_sql-c" fill="#fff">
          <use xlink:href="#ms_sql-a"/>
        </mask>
        <path fill="url(#ms_sql-b)" d="M19.2747151,0.142809896 C19.4481916,1.26657406 19.5434895,2.37939714 19.5697392,3.45075928 C18.4786638,2.87894385 16.3706969,1.49374544 15.8068985,1.00542773 L15.4505299,1.18681934 C15.449674,1.1329777 15.4431115,1.08057568 15.4331252,1.03191667 L14.8639057,1.22396143 C14.6812989,1.36590755 14.7497765,1.20467057 14.7763115,1.42723519 C14.9603449,2.92501156 14.6747365,4.57596305 14.1428943,6.23612809 C13.0124442,5.27935937 11.9832839,3.93533398 11.7056646,2.66012223 C11.5841169,2.70618994 11.4634253,2.74707503 11.3393097,2.79573405 C11.2012134,2.84698437 11.1253174,2.82510221 11.1666893,2.97626188 C11.637187,4.65399023 12.9094426,5.99830355 13.7965121,6.7132168 C12.7562241,7.13502425 11.5761279,7.57007617 10.2468077,8.0163571 C9.77659523,8.17385107 9.15573222,8.37971615 8.43072628,8.60976676 C9.09210517,7.65702897 10.6128772,4.68220671 11.1555617,2.85187907 L10.3443882,3.18068734 C9.44419385,5.3380957 8.03640978,7.59195833 7.46233975,8.50985742 C7.43066889,8.56398698 7.39643012,8.60976676 7.36590055,8.66101709 C6.77927631,7.56633317 6.57897951,6.32538428 7.01894769,4.94162549 L7.00354025,4.96465934 C7.08371603,4.73086572 6.30021886,5.31678939 6.2277468,5.35594694 C5.99606446,5.4535529 6.01375449,5.62486719 5.9681028,5.85261442 C5.90105188,6.19006038 5.86823972,6.54017497 5.8716636,6.89230501 C5.87936732,7.67862321 6.15670135,8.45774333 6.59809615,9.19309912 C4.87788332,9.72374154 2.89717052,10.3148478 1.03144292,10.8198651 C1.03800535,10.7545065 1.04428246,10.6908755 1.05797797,10.6266686 C1.3204752,9.26220068 2.69544711,7.55078532 4.23162655,6.63518962 L4.6031172,6.18113477 L2.49001449,7.67084928 C1.57954855,8.44334717 0.580632462,9.60540511 0.185745323,10.715349 L0.185745323,12.7570122 C0.569790185,13.7955511 1.49623422,14.6636395 2.45491975,15.3460174 C4.03789218,16.4778434 5.69561926,17.037854 7.60443065,17.5955612 C9.46359582,18.1354172 13.029849,18.6507996 15.3161428,18.7748945 L16.458291,18.7748945 C16.4722719,18.7466781 16.5570128,18.5831377 16.5698524,18.5675898 C16.7536004,18.2350386 19.2644435,13.5004299 19.9423711,9.50146484 C20.3754916,6.92138525 20.698192,3.4746569 20.1132797,0.142809896 L19.2747151,0.142809896 Z M15.4759237,1.39268441 C16.3809685,2.00020231 18.7243269,3.3839611 19.5534758,3.70269206 C18.482373,4.50052718 16.9638835,5.36516048 14.8105503,6.29371273 C15.4202857,4.12824251 15.5558142,2.40703776 15.4759237,1.39268441 Z M14.9997195,6.87704508 C17.6560773,5.5442487 19.3834232,4.25377702 19.5811521,4.04762402 C19.595133,5.82670133 19.4393466,7.48571468 19.2008165,8.8772474 C17.6954519,8.45774333 16.2771109,7.72353923 14.9997195,6.87704508 Z M14.5255125,7.22226497 C16.4859674,8.43701286 18.5365843,8.94490934 19.1642951,9.07908154 L19.1642951,9.08944678 C18.0284239,9.77614355 14.2390482,11.2341865 12.4697598,11.8955461 C13.3953478,10.2238641 14.0604359,8.64431755 14.5255125,7.22226497 Z M10.0579238,11.5618431 C9.23933188,10.9554769 8.48893218,10.2725231 7.91600345,9.51528516 C8.92861505,9.24406152 9.92211,8.95383496 10.8765157,8.62128369 C11.8765731,8.27721549 12.8184246,7.89485352 13.6852361,7.5021263 C13.0198626,9.20202474 12.1424942,10.8607502 11.2870956,12.3314618 C11.2833864,12.334341 11.2734001,12.3369323 11.2682643,12.3406753 C10.8437035,12.0976681 10.4368328,11.8379614 10.0579238,11.5618431 Z M12.1059728,12.7777427 C14.0173521,11.9583133 17.9970384,10.138063 19.1083718,9.39262988 C19.0729917,9.5754611 19.0416062,9.74821501 19.0033729,9.91924137 C18.7574244,11.0438693 18.2287207,12.8318722 17.6789032,14.5136315 C15.8451318,14.1977798 13.8512941,13.630859 12.1059728,12.7777427 Z M1.02516582,11.1791932 C2.81242957,10.7355036 4.71610514,10.3208942 6.58782452,9.85561035 C5.20001308,11.9439172 3.9948084,13.4748047 3.28235668,14.6604723 C2.22951452,13.8266468 1.08993415,12.5001847 1.02516582,11.1791932 Z M3.53971809,14.8588514 C4.66389102,13.1912004 6.02545274,11.6614645 7.26461086,10.1317287 C7.56876526,10.505165 7.90316391,10.8607502 8.26324163,11.1884067 C8.8983708,11.7740425 9.6142464,12.2623602 10.3623635,12.6706353 C8.18220988,13.4609844 5.9198832,14.2778224 3.76398203,15.0174971 C3.69322191,14.9662467 3.61675532,14.916436 3.53971809,14.8588514 Z M8.7425844,17.2388244 C9.88444735,15.8973903 10.8437035,14.5697765 11.6485999,13.2882305 C14.4250788,14.4571986 17.2061228,14.6693979 17.5670565,14.7079797 C16.2517171,15.2219225 9.39740086,17.1901654 9.06414351,17.288923 C9.04645348,17.2941056 9.02990474,17.3004399 9.01620923,17.3041829 C8.92119665,17.2823008 8.82989326,17.2618582 8.7425844,17.2388244 Z M8.01101603,17.034111 C6.08080542,16.3808133 5.20143969,16.0096803 4.03789218,15.2092539 C4.92781486,14.9561694 8.81191791,13.9277078 10.7081751,13.312416 C9.64477597,15.0658682 8.70064191,16.445884 8.35825422,17.127686 L8.35197711,17.1380513 C8.22529366,17.0994696 8.11344702,17.0660705 8.01101603,17.034111 Z M9.58999394,17.4343242 C12.4469339,16.7669183 14.3303515,16.4677661 17.5522197,14.9101017 C17.0297932,16.4919517 16.5127878,17.9180352 16.2328858,18.5304478 C14.7309451,18.3542388 11.6508825,17.8757104 9.58999394,17.4343242 Z" mask="url(#ms_sql-c)"/>
      </g>
      <g transform="translate(5.992 .201)">
        <mask id="ms_sql-f" fill="#fff">
          <use xlink:href="#ms_sql-d"/>
        </mask>
        <path fill="url(#ms_sql-e)" d="M7.66948431,0.0264889323 C7.78047498,1.04573698 8.02414089,2.0336014 8.42330788,3.06753353 C7.08371603,2.71741895 3.82133197,2.2273737 2.69858566,2.08801888 C4.17456194,1.1963208 6.08822382,0.410578451 7.05775163,0.0264889323 L6.2574204,0.0264889323 C4.24361012,0.761844727 0.999201415,2.08801888 0.0196872923,3.16571533 L0.0196872923,3.9330306 C0.309290215,4.208861 0.825724985,4.43545654 1.05483942,4.60245199 C0.3449556,4.05223079 1.09392868,3.27483822 1.54131526,2.89621924 C1.71250911,2.7516818 1.90624348,2.60455306 2.11823852,2.45886393 C2.66834142,3.15074333 4.0727016,4.95803711 4.61253286,5.52841292 L5.58947908,5.45815967 C5.09415822,5.01303044 2.94225157,2.86022884 2.33108954,2.31576611 C2.33850794,2.30914388 2.34735295,2.30684049 2.34735295,2.30684049 C3.35910858,2.70302279 6.79097455,3.38597656 8.59450172,3.49625114 C8.59450172,3.49625114 8.60477335,3.51525407 8.60734126,3.52821061 C7.96992951,3.84262272 6.8138004,4.41328646 5.56437065,5.24164144 L6.38296255,5.38243587 C7.32452871,4.89411816 7.99389665,4.40436084 8.71005757,3.76200423 C9.04074702,4.50542187 9.4436232,5.28022314 9.94037068,6.1244139 L10.7327129,6.20877539 C9.42536252,3.9131639 8.40732978,1.81909863 7.89374825,0.0264889323 L7.66948431,0.0264889323 Z" mask="url(#ms_sql-f)"/>
      </g>
      <g transform="translate(2.853 3.944)">
        <mask id="ms_sql-i" fill="#fff">
          <use xlink:href="#ms_sql-g"/>
        </mask>
        <path fill="url(#ms_sql-h)" d="M2.96051225,0.0400213216 C3.00673458,0.175633138 3.09889394,0.293393717 3.18220828,0.378618978 C5.26021625,2.76521419 8.24640757,4.16279329 8.24640757,9.02034521 C8.24640757,13.4837303 4.26415338,17.6214743 0.27819,20.965702 C0.238244769,20.9976615 0.198299538,21.0299089 0.157783662,21.0627321 L0.157783662,21.1819323 C4.66674425,18.450693 7.58930852,17.2716476 11.1815261,15.8550656 C15.8710962,14.0109176 25.194313,11.367207 30.5755062,10.6062261 L30.4399778,10.3925871 C28.4589797,7.22859928 25.4031695,4.32287858 16.3073551,2.62701107 C14.3831363,2.27027425 12.1031196,1.98091146 8.12714252,1.28269775 C7.02208625,1.08777376 4.17941243,0.644659993 3.29148702,0.0400213216 L2.96051225,0.0400213216 Z M4.40396169,1.01291374 C5.04993314,1.24699528 5.87251957,1.46812028 6.73676317,1.67916797 C7.12223465,2.78824805 7.42496243,3.79597917 7.66463382,4.71157487 C6.91423412,3.30708561 5.79034652,2.05375602 4.40396169,1.01291374 Z M7.10597123,1.76352946 C8.72803292,2.13351074 10.4491017,2.43899723 11.4491591,2.60656852 C10.7255798,2.97597396 9.06014898,3.9888877 8.27579585,4.96494727 C7.88661517,3.46573128 7.36932443,2.30079411 7.10597123,1.76352946 Z M8.78623883,5.33579232 C9.52779351,4.46482471 10.6328498,3.59990348 11.8623069,2.67423047 C11.8725786,2.67797347 11.8825649,2.67941309 11.8942631,2.67941309 C12.2754547,3.83916764 12.407274,5.08645085 12.2985659,6.3728916 C11.1056301,5.96864746 9.91297966,5.64387012 8.78623883,5.33579232 Z M12.2551968,2.73958903 C14.0256265,3.02981559 15.7926323,3.33559001 17.536527,3.73724284 C15.885077,4.46741602 14.4858526,5.17052441 12.9245647,6.28853011 C12.9702164,4.96494727 12.7191321,3.76027669 12.2551968,2.73958903 Z M13.437861,6.78750098 C14.7737436,5.83073226 16.3413086,4.82415283 18.0954749,3.89416097 C18.0004623,4.93413949 17.442941,6.38815153 16.3629931,8.22596517 C15.4251362,7.64551204 14.4404862,7.17850065 13.437861,6.78750098 Z M18.4909326,3.96470215 C19.8987167,4.32287858 21.2856722,4.74986865 22.6426687,5.29116423 C23.1890624,5.49443799 23.7112037,5.72477653 24.2082365,5.96260107 C21.6366196,6.51771696 19.333777,7.27322738 17.2803068,8.13411768 C18.0546737,6.55572282 18.4059064,5.14749056 18.4909326,3.96470215 Z M8.55455649,6.27067887 C9.42165332,6.44199316 10.516438,6.7604362 11.7090884,7.22341667 C10.7977665,7.96539469 9.80798077,8.86803385 8.67125363,10.0012995 C8.83189052,8.69931087 8.7500028,7.42438704 8.55455649,6.27067887 Z M20.2613623,12.0475695 C19.4501888,10.7559461 18.4566939,9.73784977 17.3653331,8.91266195 C19.5631768,7.9294043 21.9938441,7.01092936 24.6074034,6.2859388 C23.7591379,7.75031608 22.3601989,9.32352832 20.2613623,12.0475695 L20.2690661,12.0490091 L20.2539439,12.0553434 L20.2613623,12.0475695 Z M25.0279697,6.38959115 C27.3542087,7.67372852 28.9788383,9.22505859 29.8074165,10.1982389 C29.8519269,10.250641 29.9329587,10.3197425 30.0265446,10.3822218 C28.9115021,10.4461408 25.7304351,10.6920272 20.9432845,11.8802861 C22.9596627,9.99122217 23.9291905,8.80181152 25.0279697,6.38959115 Z M12.7724875,7.65818066 C13.6307394,8.03679964 14.5198061,8.47530664 15.3971745,8.97946012 C13.9551517,9.67911344 12.6529372,10.4130296 11.4833979,11.149825 C12.1524805,9.95004915 12.5670549,8.77733805 12.7724875,7.65818066 Z M8.79023335,10.6306995 C9.37343372,10.0588841 10.4998892,9.01631429 12.0737313,7.80156641 C11.7724302,9.15077441 11.2072051,10.5218646 10.3883279,11.8391131 C9.85220585,11.2010754 9.22221249,10.8247598 8.79023335,10.6306995 Z M16.4440249,9.61634619 C17.6164174,10.3721445 18.7343132,11.2367778 19.7026998,12.2024722 C17.442941,12.8062471 14.8710388,13.6052339 12.0297916,14.6797632 C14.0256265,12.9006859 15.4476767,11.1921497 16.4440249,9.61634619 Z M10.7837857,12.3930773 C12.100837,11.5897716 13.6190411,10.7288813 15.3021619,9.89131283 C14.3021046,11.3723896 13.0155828,13.0529972 11.4237654,14.9149964 L11.4186295,14.916436 C11.4263333,13.8548633 11.1641214,13.0299634 10.7837857,12.3930773 Z M8.34256145,11.6151089 C8.83331714,11.8494784 9.24903286,12.1218537 9.58999394,12.4235972 C8.62046612,13.1143249 7.76249963,13.7869134 7.01181462,14.3981743 C7.64180797,13.4940955 8.06751,12.5566177 8.34256145,11.6151089 Z M10.2111423,13.0685451 C10.7295743,13.7333597 10.9752375,14.4482729 11.0360113,15.0647165 C8.84729797,15.9126502 7.10340332,16.6186379 5.43283671,17.4947881 C7.48858948,16.0508534 9.05358655,14.5556683 10.2111423,13.0685451 Z M6.34130538,15.3753856 C7.06887923,14.8384089 8.09204778,14.1093874 9.36573,13.2830479 C8.13227834,14.8291953 6.52419748,16.269387 4.54576726,17.4729059 C5.23653443,16.7709492 5.83599822,16.0721597 6.34130538,15.3753856 Z" mask="url(#ms_sql-i)"/>
      </g>
      <g transform="translate(2.853 3.944)">
        <mask id="ms_sql-l" fill="#fff">
          <use xlink:href="#ms_sql-j"/>
        </mask>
        <path fill="url(#ms_sql-k)" d="M2.96051225,0.0400213216 C3.00673458,0.175633138 3.09889394,0.293393717 3.18220828,0.378618978 C5.26021625,2.76521419 8.24640757,4.16279329 8.24640757,9.02034521 C8.24640757,13.4837303 4.26415338,17.6214743 0.27819,20.965702 C0.238244769,20.9976615 0.198299538,21.0299089 0.157783662,21.0627321 L0.157783662,21.1819323 C4.66674425,18.450693 7.58930852,17.2716476 11.1815261,15.8550656 C15.8710962,14.0109176 25.194313,11.367207 30.5755062,10.6062261 L30.4399778,10.3925871 C28.4589797,7.22859928 25.4031695,4.32287858 16.3073551,2.62701107 C14.3831363,2.27027425 12.1031196,1.98091146 8.12714252,1.28269775 C7.02208625,1.08777376 4.17941243,0.644659993 3.29148702,0.0400213216 L2.96051225,0.0400213216 Z M4.40396169,1.01291374 C5.04993314,1.24699528 5.87251957,1.46812028 6.73676317,1.67916797 C7.12223465,2.78824805 7.42496243,3.79597917 7.66463382,4.71157487 C6.91423412,3.30708561 5.79034652,2.05375602 4.40396169,1.01291374 Z M7.10597123,1.76352946 C8.72803292,2.13351074 10.4491017,2.43899723 11.4491591,2.60656852 C10.7255798,2.97597396 9.06014898,3.9888877 8.27579585,4.96494727 C7.88661517,3.46573128 7.36932443,2.30079411 7.10597123,1.76352946 Z M8.78623883,5.33579232 C9.52779351,4.46482471 10.6328498,3.59990348 11.8623069,2.67423047 C11.8725786,2.67797347 11.8825649,2.67941309 11.8942631,2.67941309 C12.2754547,3.83916764 12.407274,5.08645085 12.2985659,6.3728916 C11.1056301,5.96864746 9.91297966,5.64387012 8.78623883,5.33579232 Z M12.2551968,2.73958903 C14.0256265,3.02981559 15.7926323,3.33559001 17.536527,3.73724284 C15.885077,4.46741602 14.4858526,5.17052441 12.9245647,6.28853011 C12.9702164,4.96494727 12.7191321,3.76027669 12.2551968,2.73958903 Z M13.437861,6.78750098 C14.7737436,5.83073226 16.3413086,4.82415283 18.0954749,3.89416097 C18.0004623,4.93413949 17.442941,6.38815153 16.3629931,8.22596517 C15.4251362,7.64551204 14.4404862,7.17850065 13.437861,6.78750098 Z M18.4909326,3.96470215 C19.8987167,4.32287858 21.2856722,4.74986865 22.6426687,5.29116423 C23.1890624,5.49443799 23.7112037,5.72477653 24.2082365,5.96260107 C21.6366196,6.51771696 19.333777,7.27322738 17.2803068,8.13411768 C18.0546737,6.55572282 18.4059064,5.14749056 18.4909326,3.96470215 Z M8.55455649,6.27067887 C9.42165332,6.44199316 10.516438,6.7604362 11.7090884,7.22341667 C10.7977665,7.96539469 9.80798077,8.86803385 8.67125363,10.0012995 C8.83189052,8.69931087 8.7500028,7.42438704 8.55455649,6.27067887 Z M20.2613623,12.0475695 C19.4501888,10.7559461 18.4566939,9.73784977 17.3653331,8.91266195 C19.5631768,7.9294043 21.9938441,7.01092936 24.6074034,6.2859388 C23.7591379,7.75031608 22.3601989,9.32352832 20.2613623,12.0475695 L20.2690661,12.0490091 L20.2539439,12.0553434 L20.2613623,12.0475695 Z M25.0279697,6.38959115 C27.3542087,7.67372852 28.9788383,9.22505859 29.8074165,10.1982389 C29.8519269,10.250641 29.9329587,10.3197425 30.0265446,10.3822218 C28.9115021,10.4461408 25.7304351,10.6920272 20.9432845,11.8802861 C22.9596627,9.99122217 23.9291905,8.80181152 25.0279697,6.38959115 Z M12.7724875,7.65818066 C13.6307394,8.03679964 14.5198061,8.47530664 15.3971745,8.97946012 C13.9551517,9.67911344 12.6529372,10.4130296 11.4833979,11.149825 C12.1524805,9.95004915 12.5670549,8.77733805 12.7724875,7.65818066 Z M8.79023335,10.6306995 C9.37343372,10.0588841 10.4998892,9.01631429 12.0737313,7.80156641 C11.7724302,9.15077441 11.2072051,10.5218646 10.3883279,11.8391131 C9.85220585,11.2010754 9.22221249,10.8247598 8.79023335,10.6306995 Z M16.4440249,9.61634619 C17.6164174,10.3721445 18.7343132,11.2367778 19.7026998,12.2024722 C17.442941,12.8062471 14.8710388,13.6052339 12.0297916,14.6797632 C14.0256265,12.9006859 15.4476767,11.1921497 16.4440249,9.61634619 Z M10.7837857,12.3930773 C12.100837,11.5897716 13.6190411,10.7288813 15.3021619,9.89131283 C14.3021046,11.3723896 13.0155828,13.0529972 11.4237654,14.9149964 L11.4186295,14.916436 C11.4263333,13.8548633 11.1641214,13.0299634 10.7837857,12.3930773 Z M8.34256145,11.6151089 C8.83331714,11.8494784 9.24903286,12.1218537 9.58999394,12.4235972 C8.62046612,13.1143249 7.76249963,13.7869134 7.01181462,14.3981743 C7.64180797,13.4940955 8.06751,12.5566177 8.34256145,11.6151089 Z M10.2111423,13.0685451 C10.7295743,13.7333597 10.9752375,14.4482729 11.0360113,15.0647165 C8.84729797,15.9126502 7.10340332,16.6186379 5.43283671,17.4947881 C7.48858948,16.0508534 9.05358655,14.5556683 10.2111423,13.0685451 Z M6.34130538,15.3753856 C7.06887923,14.8384089 8.09204778,14.1093874 9.36573,13.2830479 C8.13227834,14.8291953 6.52419748,16.269387 4.54576726,17.4729059 C5.23653443,16.7709492 5.83599822,16.0721597 6.34130538,15.3753856 Z" mask="url(#ms_sql-l)"/>
      </g>
      <g transform="translate(17.975 5.672)">
        <path fill="#000" d="M2.70472011 29.688421C2.70472011 30.0365201 2.58545506 30.329338 2.34464238 30.5660109 2.10639762 30.809018 1.81108823 30.925339 1.46014085 30.925339 1.10634023 30.925339.811030846 30.8124731.579348508 30.5812708.342245031 30.3445979.225833215 30.0503404.225833215 29.6973466.225833215 29.3469441.343671646 29.0541263.584199 28.8177413.822443769 28.5758859 1.11661186 28.4529427 1.46898586 28.4529427 1.81765066 28.4529427 2.10896552 28.5707032 2.34321577 28.7970109 2.58545506 29.0336837 2.70472011 29.3316842 2.70472011 29.688421zM2.5574934 29.6938916C2.5574934 29.3803432 2.45106789 29.1168935 2.23964349 28.9058458 2.02907506 28.6973894 1.77171365 28.5911458 1.46613263 28.5911458 1.15341854 28.5911458.889780015 28.6973894.685774015 28.9095888.476346877 29.1206365.373915892 29.3817828.373915892 29.6938916.373915892 30.010607.4803414 30.2729051.693192415 30.4862561.906043431 30.6975917 1.16226355 30.7963494 1.46613263 30.7963494 1.77171365 30.7963494 2.02536586 30.6909695 2.23964349 30.4842407 2.44878531 30.2665708 2.5574934 30.0080157 2.5574934 29.6938916zM2.06588174 30.4738754L1.79967531 30.4738754 1.62762549 30.0903618C1.54003131 29.898317 1.44616002 29.7998473 1.34857952 29.7998473L1.20049685 29.7998473 1.20049685 30.4738754.978515492 30.4738754.978515492 28.8813723 1.42476078 28.8813723C1.61963645 28.8813723 1.77171365 28.9262884 1.86815285 29.0158325 1.9528938 29.092708 1.99854549 29.1920415 1.99854549 29.313545 1.99854549 29.4249713 1.96573334 29.5145154 1.89468789 29.5951339 1.82364245 29.6705698 1.72492066 29.7203805 1.59823722 29.7474453L1.59823722 29.7537796C1.68697269 29.7768134 1.77542285 29.8741315 1.86187574 30.0491888L2.06588174 30.4738754zM1.76543654 29.3420494C1.76543654 29.253657 1.73890149 29.1859951 1.68440478 29.1433824 1.62762549 29.0976027 1.5337542 29.0719775 1.3965138 29.0719775L1.20049685 29.0719775 1.20049685 29.6141368 1.43474709 29.6141368C1.65644312 29.6141368 1.76543654 29.527184 1.76543654 29.3420494zM126.535791 14.6199903C126.535791 14.9715445 126.415385 15.2646503 126.173146 15.5024749 125.937754 15.7391477 125.639877 15.85806 125.290071 15.85806 124.937412 15.85806 124.642388 15.745482 124.409279 15.5114005 124.173602 15.2787586 124.055763 14.9819098 124.055763 14.6274763 124.055763 14.2796651 124.175884 13.9854076 124.416697 13.7490227 124.652374 13.5097586 124.945401 13.388255 125.301484 13.388255 125.648722 13.388255 125.938896 13.5022726 126.173146 13.7323232 126.415385 13.9664047 126.535791 14.2629656 126.535791 14.6199903zM126.389991 14.6251729C126.389991 14.3142159 126.282425 14.0470232 126.072141 13.8397185 125.859005 13.6301104 125.600502 13.5224272 125.296348 13.5224272 124.982207 13.5224272 124.723419 13.6350051 124.514277 13.8423098 124.305421 14.0545092 124.204987 14.3168072 124.204987 14.6251729 124.204987 14.9395851 124.311413 15.2044744 124.523122 15.4204168 124.734832 15.6288731 124.991052 15.7325255 125.296348 15.7325255 125.600502 15.7325255 125.853869 15.6265698 126.068147 15.4129308 126.282425 15.2044744 126.389991 14.9395851 126.389991 14.6251729zM125.895812 15.4065965L125.628464 15.4065965 125.460979 15.0242345C125.371103 14.8321897 125.277517 14.737463 125.175656 14.737463L125.029 14.737463 125.029 15.4065965 124.809587 15.4065965 124.809587 13.8115021 125.253264 13.8115021C125.450993 13.8115021 125.600502 13.8601611 125.700651 13.9485535 125.786818 14.0239894 125.829617 14.1224591 125.829617 14.2477057 125.829617 14.3539493 125.793095 14.4472364 125.726045 14.5267032 125.652431 14.6047304 125.555992 14.6545411 125.428167 14.681318L125.428167 14.6865006C125.519185 14.7069431 125.604212 14.8054129 125.693232 14.9793185L125.895812 15.4065965zM125.594225 14.2759221C125.594225 14.1852263 125.567405 14.1161248 125.516903 14.0763914 125.460979 14.0303237 125.364826 14.0035468 125.225303 14.0035468L125.029 14.0035468 125.029 14.5482975 125.268672 14.5482975C125.484947 14.5482975 125.594225 14.4576017 125.594225 14.2759221zM127.79438 26.0383613L127.79438 25.1918672 131.150635 21.5876448C132.344427 20.3009162 133.129922 19.3507697 133.508831 18.7380692 133.880321 18.1268083 134.068064 17.4438545 134.068064 16.6917991 134.068064 15.8833109 133.843515 15.25679 133.400123 14.8067661 132.955304 14.3578939 132.321601 14.1364809 131.502724 14.1364809 130.415358 14.1364809 129.391333 14.5700932 128.428083 15.4258009L128.428083 14.4920661C129.367366 13.7708185 130.42563 13.4074595 131.603158 13.4074595 132.658853 13.4074595 133.470027 13.693943 134.038961 14.2643188 134.606469 14.8398773 134.892933 15.6020099 134.892933 16.5625216 134.892933 17.4170776 134.686359 18.1921668 134.282056 18.8826066 133.880321 19.578229 133.010942 20.63865 131.682763 22.0647335L128.671463 25.2799717 128.671463 25.3145224 134.828165 25.3145224 134.828165 26.0383613 127.79438 26.0383613zM139.873818 26.2583634C138.744794 26.2583634 137.851163 25.7340553 137.21261 24.6825599 136.569777 23.632504 136.251927 22.1016165 136.251927 20.0950799 136.251927 17.8864212 136.590035 16.2184822 137.260829 15.0918388 137.931053 13.9700901 138.892877 13.4074882 140.14031 13.4074882 142.511344 13.4074882 143.694009 15.5317854 143.694009 19.7751972 143.694009 21.8920084 143.359325 23.5009231 142.691383 24.6045327 142.019733 25.7058388 141.079308 26.2583634 139.873818 26.2583634M140.074115 14.139101C139.126271 14.139101 138.391279 14.6251154 137.863717 15.5994474 137.337866 16.5740674 137.074228 18.0424756 137.074228 19.9940188 137.074228 21.7693532 137.326453 23.1390037 137.830905 24.0969241 138.334215 25.0511015 139.05009 25.5293419 139.979102 25.5293419 140.888141 25.5293419 141.596313 25.0459189 142.104474 24.0687076 142.60921 23.096679 142.858583 21.7054342 142.858583 19.8969887 142.858583 16.0586849 141.934706 14.139101 140.074115 14.139101"/>
        <polygon fill="#000" points="145.26 26.038 145.26 25.315 148.075 25.315 148.075 14.222 145.059 15.305 145.059 14.511 148.866 13.175 148.866 25.315 151.637 25.315 151.637 26.038"/>
        <g transform="translate(152.648 13.244)">
          <mask id="ms_sql-n" fill="#fff">
            <use xlink:href="#ms_sql-m"/>
          </mask>
          <path fill="#000" d="M0.209284477,12.7938952 L0.209284477,11.947401 L3.56782242,8.34317869 C4.76304078,7.05645002 5.54625263,6.10630353 5.92516168,5.49360301 C6.30064685,4.88234211 6.4855362,4.19938833 6.4855362,3.44733299 C6.4855362,2.63884471 6.26384017,2.01232388 5.81502697,1.56229995 C5.37020829,1.11342772 4.73650574,0.892014795 3.91791383,0.892014795 C2.83283017,0.892014795 1.80623774,1.3256271 0.845554938,2.18133478 L0.845554938,1.24759992 C1.78455318,0.52635236 2.84196051,0.162993311 4.02148611,0.162993311 C5.07632552,0.162993311 5.88721371,0.449476872 6.45757454,1.01985269 C7.02422617,1.59541112 7.31069054,2.35754377 7.31069054,3.31805549 C7.31069054,4.17261147 7.10925245,4.94770067 6.70095512,5.63814045 C6.29408442,6.33376284 5.42984082,7.3941839 4.09766737,8.8202674 L1.084941,12.0355055 L1.084941,12.0700563 L7.24192768,12.0700563 L7.24192768,12.7938952 L0.209284477,12.7938952 Z" mask="url(#ms_sql-n)"/>
        </g>
        <path fill="#000" d="M28.0639213 21.705319C28.0639213 23.0378275 27.6256651 24.1198428 26.7471553 24.9424393 25.7459567 25.8773259 24.2985127 26.345201 22.40625 26.345201 21.7725475 26.345201 21.0677995 26.2481709 20.2911501 26.0474885 19.5113621 25.8465181 18.9350095 25.6187709 18.5649455 25.3630951L18.5649455 22.9739086C19.0956464 23.4535886 19.7624464 23.8359506 20.5636336 24.126465 21.3100388 24.3899147 22.0122189 24.5240869 22.6790189 24.5240869 24.8677322 24.5240869 25.9573811 23.662045 25.9573811 21.9431436 25.9573811 21.1988622 25.6823296 20.5389423 25.1288028 19.9633838 24.6369059 19.4609579 23.7204481 18.8226322 22.3822829 18.0579082 20.9804906 17.2583456 19.9958407 16.488439 19.4328983 15.7516436 18.8716678 15.0177274 18.5889126 14.1505028 18.5889126 13.149106 18.5889126 11.8318575 19.0668287 10.7420682 20.0260849 9.88780016 21.0335607 8.99898132 22.3594571 8.5552917 23.9994941 8.5552917 25.5279698 8.5552917 26.6432977 8.75712585 27.3517549 9.1665526L27.3517549 11.4227186C26.4555551 10.7193223 25.3022793 10.3660406 23.8905007 10.3660406 22.8970057 10.3660406 22.0998131 10.6220043 21.5154714 11.1362351 20.960518 11.6144755 20.681472 12.2257364 20.681472 12.9688661 20.681472 13.7707321 20.9362655 14.4358347 21.4444259 14.9754027 21.8741225 15.4205319 22.7243853 16.001273 23.9994941 16.7110036 25.393868 17.4872445 26.3999171 18.2367085 27.0196389 18.9556527 27.7152565 19.7638531 28.0639213 20.6794488 28.0639213 21.705319M45.735292 17.2290062C45.735292 19.5948709 45.2068736 21.5556278 44.1434745 23.1072458 43.0837846 24.6597276 41.5744255 25.6533504 39.6265249 26.0947367L43.5999341 30.2664556 40.8394333 30.2664556 37.4860312 26.3452298C35.1169937 26.3314095 33.2107502 25.5076613 31.7712953 23.8883814 30.3338376 22.285801 29.6165354 20.2064198 29.6165354 17.6485103 29.6165354 14.9780228 30.3047346 12.8257971 31.686269 11.1924089 33.1742288 9.43636541 35.2627938 8.55532049 37.9485399 8.55532049 40.2565182 8.55532049 42.1308055 9.35459523 43.5745403 10.955736 45.0157072 12.5531338 45.735292 14.6454715 45.735292 17.2290062M43.6441591 17.4924559C43.6441591 15.1979961 43.1054692 13.4189188 42.0269479 12.1655892 40.9903692 10.9646616 39.5628978 10.3660694 37.7496697 10.3660694 35.9689684 10.3660694 34.5112528 11.023398 33.3922157 12.3320088 32.2706106 13.6478177 31.7076682 15.3566418 31.7076682 17.4668307 31.7076682 19.6156014 32.2640482 21.3342149 33.3745256 22.6275658 34.4530469 23.889821 35.8611162 24.5215244 37.602443 24.5215244 39.4413502 24.5215244 40.8976392 23.9266751 41.968742 22.7349611 43.0852112 21.4931485 43.6441591 19.7471823 43.6441591 17.4924559"/>
        <polygon fill="#000" points="57.205 26.047 48.36 26.047 48.36 8.842 50.356 8.842 50.356 24.221 57.205 24.221"/>
        <path fill="#000" d="M71.30626 21.705319C71.30626 23.0378275 70.8665771 24.1198428 69.9897793 24.9424393 68.9897219 25.8773259 67.5422779 26.345201 65.6500153 26.345201 65.0137448 26.345201 64.3092822 26.2481709 63.5334887 26.0474885 62.756554 25.8465181 62.179916 25.6187709 61.8087107 25.3630951L61.8087107 22.9739086C62.3394116 23.4535886 63.0036438 23.8359506 63.804831 24.126465 64.5509508 24.3899147 65.2545575 24.5240869 65.9199309 24.5240869 68.1089296 24.5240869 69.2014316 23.662045 69.2014316 21.9431436 69.2014316 21.1988622 68.923527 20.5389423 68.3697149 19.9633838 67.8781032 19.4609579 66.9627868 18.8226322 65.6234803 18.0579082 64.2205467 17.2583456 63.2381793 16.488439 62.6755222 15.7516436 62.1140064 15.0177274 61.8312512 14.1505028 61.8312512 13.149106 61.8312512 11.8318575 62.310594 10.7420682 63.2698502 9.88780016 64.2787526 8.99898132 65.6017957 8.5552917 67.2432594 8.5552917 68.774303 8.5552917 69.8882043 8.75712585 70.5929523 9.1665526L70.5929523 11.4227186C69.6993204 10.7193223 68.5446179 10.3660406 67.1379751 10.3660406 66.1393444 10.3660406 65.3407251 10.6220043 64.7603779 11.1362351 64.2037126 11.6144755 63.9263786 12.2257364 63.9263786 12.9688661 63.9263786 13.7707321 64.1797455 14.4358347 64.6841967 14.9754027 65.1138932 15.4205319 65.964156 16.001273 67.2432594 16.7110036 68.6362066 17.4872445 69.645109 18.2367085 70.2608362 18.9556527 70.9553126 19.7638531 71.30626 20.6794488 71.30626 21.705319M83.4037872 20.3955853L74.8095708 20.3955853C74.8412417 21.7718581 75.2061699 22.8256569 75.9046408 23.5624523 76.5991172 24.2963685 77.5598 24.6686532 78.7801268 24.6686532 80.1528161 24.6686532 81.4062404 24.2197809 82.5481033 23.3220365L82.5481033 25.1558192C81.4875575 25.9501992 80.0754936 26.3452298 78.3124823 26.3452298 76.6496194 26.3452298 75.3317121 25.8183304 74.3570484 24.7619403 73.312766 23.6416312 72.7880568 22.0378991 72.7880568 19.9518957 72.7880568 17.9781823 73.3532819 16.3796328 74.4862998 15.1634453 75.5511255 14.0304676 76.8513428 13.4638348 78.3886635 13.4638348 80.0349777 13.4638348 81.2983883 14.0163594 82.1654851 15.1300462 82.9906394 16.1685851 83.4037872 17.582 83.4037872 19.3636686L83.4037872 20.3955853zM81.4062404 18.7279343C81.3908329 17.6073373 81.1300476 16.735218 80.6218872 16.1135918 80.0943249 15.4651888 79.3379334 15.1392598 78.3646964 15.1392598 77.4416762 15.1392598 76.6650268 15.4718111 76.0224792 16.1302914 75.3799317 16.7916509 74.981906 17.6536929 74.8323967 18.7279343L81.4062404 18.7279343zM91.8751435 15.7543789C91.5341825 15.4897775 91.0397176 15.3567569 90.3908929 15.3567569 89.5976947 15.3567569 88.9308947 15.7146455 88.3896368 16.4361809 87.781328 17.2443813 87.475747 18.3609474 87.475747 19.7844396L87.475747 26.0473445 85.5267051 26.0473445 85.5267051 13.7631022 87.475747 13.7631022 87.475747 16.2927952 87.5265345 16.2927952C87.8078631 15.3962024 88.2489725 14.7069143 88.8407326 14.2157174 89.3985392 13.7708761 90.0233968 13.5457202 90.7101694 13.5457202 91.2263189 13.5457202 91.6126463 13.6018652 91.8751435 13.7118518L91.8751435 15.7543789zM103.816371 13.7604245L98.9673051 26.0472581 97.0396624 26.0472581 92.441681 13.7604245 94.5950143 13.7604245 97.68221 22.6722227C97.8976289 23.315443 98.034584 23.8935928 98.0879394 24.4037926L98.1475719 24.4037926C98.2157641 23.7962747 98.3450155 23.2385675 98.5276223 22.7335503L101.773458 13.7604245 103.816371 13.7604245zM114.867076 20.3955853L106.276569 20.3955853C106.301677 21.7718581 106.669459 22.8256569 107.365077 23.5624523 108.064689 24.2963685 109.023089 24.6686532 110.244842 24.6686532 111.613537 24.6686532 112.872097 24.2197809 114.009966 23.3220365L114.009966 25.1558192C112.950561 25.9501992 111.539924 26.3452298 109.779766 26.3452298 108.112908 26.3452298 106.795001 25.8183304 105.820337 24.7619403 104.773202 23.6416312 104.252487 22.0378991 104.252487 19.9518957 104.252487 17.9781823 104.818853 16.3796328 105.952157 15.1634453 107.014129 14.0304676 108.311779 13.4638348 109.850526 13.4638348 111.499408 13.4638348 112.759109 14.0163594 113.632483 15.1300462 114.458779 16.1685851 114.867076 17.582 114.867076 19.3636686L114.867076 20.3955853zM112.872097 18.7279343C112.854122 17.6073373 112.590483 16.735218 112.087459 16.1135918 111.553905 15.4651888 110.801222 15.1392598 109.8277 15.1392598 108.907533 15.1392598 108.128316 15.4718111 107.484342 16.1302914 106.844362 16.7916509 106.447478 17.6536929 106.296827 18.7279343L112.872097 18.7279343zM123.340658 15.7543789C122.998556 15.4897775 122.501808 15.3567569 121.852698 15.3567569 121.0595 15.3567569 120.394127 15.7146455 119.855437 16.4361809 119.24456 17.2443813 118.940406 18.3609474 118.940406 19.7844396L118.940406 26.0473445 116.989652 26.0473445 116.989652 13.7631022 118.940406 13.7631022 118.940406 16.2927952 118.988625 16.2927952C119.272236 15.3962024 119.712204 14.7069143 120.306532 14.2157174 120.862912 13.7708761 121.484061 13.5457202 122.174543 13.5457202 122.688124 13.5457202 123.079587 13.6018652 123.340658 13.7118518L123.340658 15.7543789zM25.6406439 6.80555376L24.9196325 6.80555376 24.9196325 2.63354692C24.9196325 2.30502658 24.9387491 1.90337375 24.9815476 1.43031597L24.961575 1.43031597C24.8942387 1.70758599 24.8348915 1.90855636 24.7778269 2.03005994L22.6775638 6.80555376 22.3251898 6.80555376 20.2240706 2.06576242C20.1644381 1.93274191 20.1036643 1.72054253 20.0374693 1.43031597L20.0234885 1.43031597C20.0454584 1.67821782 20.0568713 2.08246196 20.0568713 2.64132085L20.0568713 6.80555376 19.3595417 6.80555376 19.3595417.59505083 20.3150887.59505083 22.2022155 4.92541541C22.3454477 5.25537537 22.4378924 5.49838254 22.4812615 5.66998475L22.5115057 5.66998475C22.6333387 5.32965955 22.734343 5.07772677 22.8068151 4.90756418L24.7344578.59505083 25.6406439.59505083 25.6406439 6.80555376zM27.9853719.77914891C27.9853719.909578109 27.9371523 1.01956476 27.8475608 1.10910887 27.7599667 1.19980467 27.6495466 1.24472069 27.5202953 1.24472069 27.397321 1.24472069 27.2908955 1.19980467 27.1970242 1.11170018 27.1045795 1.02733869 27.0603545.913609033 27.0603545.77914891 27.0603545.64871971 27.1045795.542476058 27.1970242.454371566 27.2908955.364827458 27.397321.321351058 27.5202953.321351058 27.6495466.321351058 27.7599667.364827458 27.8475608.454371566 27.9371523.542476058 27.9853719.64871971 27.9853719.77914891zM27.1590763 6.80566893L27.8649655 6.80566893 27.8649655 2.36906069 27.1590763 2.36906069 27.1590763 6.80566893zM32.2526638 6.60086917C31.9131294 6.81076517 31.5099679 6.9129779 31.0460325 6.9129779 30.4174658 6.9129779 29.9093054 6.70452152 29.5215513 6.28242614 29.1437836 5.87184769 28.9526171 5.34235697 28.9526171 4.69539359 28.9526171 3.9675238 29.1614736 3.37785713 29.5746214 2.93416751 29.9891959 2.48644697 30.5455759 2.26388236 31.2426201 2.26388236 31.6280916 2.26388236 31.9661995 2.33816654 32.2629355 2.48644697L32.2629355 3.21431676C31.9348139 2.98167484 31.5847225 2.87140026 31.2160851 2.87140026 30.7686985 2.87140026 30.4023437 3.02371162 30.1195885 3.33956335 29.8231378 3.66059769 29.6761964 4.09420999 29.6761964 4.63377803 29.6761964 5.14800882 29.8117249 5.55714766 30.0830671 5.85543607 30.3529828 6.15717956 30.7164844 6.30920299 31.1678655 6.30920299 31.5544783 6.30920299 31.9131294 6.1813651 32.2526638 5.92568932L32.2526638 6.60086917zM35.6099463 3.08757298C35.4869721 2.99543757 35.3060773 2.94447516 35.0712564 2.94447516 34.7862186 2.94447516 34.5456913 3.07605605 34.3516716 3.33720238 34.1322581 3.62742894 34.0232647 4.03138516 34.0232647 4.54302464L34.0232647 6.80437327 33.3162341 6.80437327 33.3162341 2.37150804 34.0232647 2.37150804 34.0232647 3.28336074 34.0372455 3.28336074C34.1399618 2.9623264 34.2994574 2.71154531 34.5151617 2.53389671 34.7165998 2.37381143 34.9382958 2.29204124 35.1870975 2.29204124 35.3745548 2.29204124 35.5137925 2.3113321 35.6099463 2.3536568L35.6099463 3.08757298zM40.2564897 4.57247918C40.2564897 5.27846681 40.0561929 5.84625132 39.6618764 6.27468101 39.2678453 6.701959 38.7317232 6.91300669 38.0663498 6.91300669 37.4035443 6.91300669 36.8788351 6.701959 36.4910811 6.27468101 36.1170225 5.85920786 35.9244294 5.31820021 35.9244294 4.64273244 35.9244294 3.86908286 36.1409897 3.27308188 36.5695449 2.8483952 36.9712798 2.4571076 37.4999835 2.26391115 38.1690661 2.26391115 38.8267358 2.26391115 39.3326136 2.46977622 39.7026776 2.87402036 40.0701737 3.28459881 40.2564897 3.85123162 40.2564897 4.57247918M39.5340517 4.59666473C39.5340517 4.02888022 39.4070829 3.59526792 39.1514334 3.29611574 38.9054849 3.01078387 38.5608147 2.86768605 38.1171373 2.86768605 37.6785957 2.86768605 37.3299309 3.01337518 37.0640098 3.30129836 36.7875317 3.61081577 36.6482941 4.04673146 36.6482941 4.61451597 36.6482941 5.14803761 36.7823959 5.56235907 37.0474611 5.85920786 37.3125262 6.15979966 37.6706067 6.30923179 38.1171373 6.30923179 38.5807873 6.30923179 38.9331613 6.15720835 39.1779685 5.85402524 39.415072 5.55976776 39.5340517 5.1417033 39.5340517 4.59666473M43.746961 5.62000129C43.746961 5.98451203 43.610006 6.28251252 43.3412316 6.52148875 43.0459222 6.78637808 42.6441874 6.91306427 42.1348857 6.91306427 41.7177433 6.91306427 41.3550977 6.82352017 41.0435249 6.64702326L41.0435249 5.88460269C41.3881952 6.16590363 41.7682455 6.30928937 42.1865291 6.30928937 42.7429091 6.30928937 43.024523 6.10227261 43.024523 5.69025454 43.024523 5.51375763 42.960896 5.37065981 42.8393483 5.25808185 42.7178007 5.14550389 42.476988 5.01133169 42.1194782 4.8512464 41.7468463 4.68626642 41.4883436 4.52243813 41.3311306 4.34997215 41.1473825 4.14669839 41.0512286 3.87691437 41.0512286 3.54666649 41.0512286 3.17582144 41.1978847 2.87148664 41.4883436 2.62588817 41.7736666 2.38172931 42.1462986 2.26396873 42.6036715 2.26396873 42.949483 2.26396873 43.2627678 2.32932729 43.5415284 2.4709855L43.5415284 3.18359536C43.2527815 2.97254767 42.9243746 2.86889533 42.5477482 2.86889533 42.3123566 2.86889533 42.1257553 2.92388866 41.9825231 3.04280093 41.8469947 3.15681851 41.7736666 3.30769025 41.7736666 3.48936978 41.7736666 3.68486961 41.8355818 3.83574136 41.949711 3.94601593 42.0587044 4.04938035 42.2789738 4.17088394 42.6113752 4.31542137 42.9877163 4.47406704 43.2562054 4.63530402 43.42369 4.804027 43.6376823 5.017666 43.746961 5.29119302 43.746961 5.62000129M48.7696458 4.57247918C48.7696458 5.27846681 48.5707756 5.84625132 48.1738912 6.27468101 47.7795748 6.701959 47.2474472 6.91300669 46.5780793 6.91300669 45.9164151 6.91300669 45.3945592 6.701959 45.0053785 6.27468101 44.6276107 5.85920786 44.4401535 5.31820021 44.4401535 4.64273244 44.4401535 3.86908286 44.6541458 3.27308188 45.082701 2.8483952 45.4821533 2.4571076 46.011713 2.26391115 46.6807956 2.26391115 47.337324 2.26391115 47.8506202 2.46977622 48.216975 2.87402036 48.5833299 3.28459881 48.7696458 3.85123162 48.7696458 4.57247918M48.0457812 4.59666473C48.0457812 4.02888022 47.9179564 3.59526792 47.6631629 3.29611574 47.4172144 3.01078387 47.0739708 2.86768605 46.6302934 2.86768605 46.1891839 2.86768605 45.8390925 3.01337518 45.5757393 3.30129836 45.3021145 3.61081577 45.1614502 4.04673146 45.1614502 4.61451597 45.1614502 5.14803761 45.2966933 5.56235907 45.5591906 5.85920786 45.8242557 6.15979966 46.1829068 6.30923179 46.6302934 6.30923179 47.0928021 6.30923179 47.4448908 6.15720835 47.6885567 5.85402524 47.9293694 5.55976776 48.0457812 5.1417033 48.0457812 4.59666473M51.8708509.860947884C51.7327545.782920703 51.5741149.744626921 51.4017797.744626921 50.912736.744626921 50.6653609 1.05788734 50.6653609 1.6872874L50.6653609 2.36880156 51.6973745 2.36880156 51.6973745 2.97142477 50.6653609 2.97142477 50.6653609 6.80425811 49.9597569 6.80425811 49.9597569 2.97142477 49.2119251 2.97142477 49.2119251 2.36880156 49.9597569 2.36880156 49.9597569 1.65014531C49.9597569 1.16038799 50.1104075.779177702 50.4097114.50536276 50.6679288.264946908 50.9826401.143443327 51.3626905.143443327 51.5741149.143443327 51.7478766.167628874 51.8708509.221470508L51.8708509.860947884zM54.6477292 6.76337301C54.4805299 6.85925143 54.2599751 6.90531914 53.9886329 6.90531914 53.2219698 6.90531914 52.8379249 6.47314645 52.8379249 5.59555661L52.8379249 2.97142477 52.0812481 2.97142477 52.0812481 2.36880156 52.8379249 2.36880156 52.8379249 1.28678626C53.0633302 1.21279001 53.2955831 1.13850583 53.540105 1.05673564L53.540105 2.36880156 54.6477292 2.36880156 54.6477292 2.97142477 53.540105 2.97142477 53.540105 5.47290133C53.540105 5.77349313 53.5894659 5.9842529 53.688473 6.1109391 53.7934719 6.23762529 53.9581033 6.29924085 54.1889297 6.29924085 54.3664006 6.29924085 54.5159099 6.25432484 54.6477292 6.15729473L54.6477292 6.76337301zM57.676776 2.66680205C57.676776 3.01720456 57.5577963 3.31002243 57.3181249 3.54669528 57.0784536 3.78855075 56.7831442 3.90746302 56.4336234 3.90746302 56.0783962 3.90746302 55.7833721 3.79114206 55.5514044 3.55965182 55.3180102 3.32153936 55.1990304 3.03275241 55.1990304 2.67313636 55.1990304 2.32935609 55.3180102 2.03365898 55.5576816 1.79583444 55.794785 1.55426689 56.0898091 1.43391501 56.4436097 1.43391501 56.7897066 1.43391501 57.0784536 1.55052389 57.315557 1.77539189 57.5577963 2.01206475 57.676776 2.31006523 57.676776 2.66680205zM57.530976 2.67198467C57.530976 2.35872425 57.4245504 2.09642624 57.2128407 1.88681816 56.9985631 1.67692217 56.7437696 1.57470944 56.4410418 1.57470944 56.1266158 1.57470944 55.8644039 1.67692217 55.6564033 1.88940947 55.4486881 2.10304847 55.3473984 2.36246725 55.3473984 2.67198467 55.3473984 2.9904277 55.4552506 3.25531702 55.6678163 3.46751641 55.8769581 3.67222979 56.1357461 3.77962513 56.4410418 3.77962513 56.7429136 3.77962513 56.9985631 3.67222979 57.2102728 3.4649251 57.4245504 3.25272572 57.530976 2.9866847 57.530976 2.67198467zM57.0393643 3.45340817L56.7717312 3.45340817 56.6008227 3.0698945C56.5132285 2.87784974 56.4222105 2.78312301 56.3194942 2.78312301L56.1748354 2.78312301 56.1748354 3.45340817 55.9531393 3.45340817 55.9531393 1.86378431 56.3968167 1.86378431C56.5916924 1.86378431 56.7429136 1.9084124 56.8413501 1.99651689 56.9289443 2.07339238 56.974596 2.16811911 56.974596 2.29480531 56.974596 2.40076104 56.936648 2.49548776 56.8656025 2.56977194 56.7959837 2.65154212 56.6984032 2.70135283 56.5702932 2.72812969L56.5702932 2.73100892C56.6601699 2.75778577 56.7437696 2.85222458 56.8339317 3.0301611L57.0393643 3.45340817zM56.7363512 2.32273385C56.7363512 2.22944674 56.712384 2.16293649 56.659314 2.12464271 56.6031053 2.07598369 56.5046688 2.05554115 56.3699964 2.05554115L56.1748354 2.05554115 56.1748354 2.59280579 56.4107976 2.59280579C56.6299257 2.59280579 56.7363512 2.50326169 56.7363512 2.32273385z"/>
      </g>
    </g>
  </g>
</svg>
