<svg xmlns="http://www.w3.org/2000/svg" width="198" height="61" viewBox="0 0 198 61">
  <g fill="none">
    <rect width="198" height="61"/>
    <g transform="translate(52.673)">
      <path fill="#5D87A1" d="M21.3280065,54.9532268 L17.9049686,54.9532268 C17.7839221,49.1219662 17.4505479,43.6398468 16.9055077,38.5028633 L16.8750807,38.5028633 L11.6634642,54.9532268 L9.05732518,54.9532268 L3.87679712,38.5028633 L3.84703157,38.5028633 C3.46272529,43.4349015 3.22063217,48.918356 3.12009077,54.9532268 L0,54.9532268 C0.201082806,47.6145836 0.706435646,40.7345638 1.51407415,34.3125 L5.75665676,34.3125 L10.6944303,49.4791184 L10.7248573,49.4791184 L15.6930578,34.3125 L19.7524169,34.3125 C20.6414146,41.8347261 21.1666111,48.7154135 21.3280065,54.9532268 Z M36.1730769,39.7245241 C34.7793879,47.3575675 32.9405385,52.903774 30.6585133,56.3658138 C28.8805179,59.0307701 26.9325283,60.3645833 24.811237,60.3645833 C24.2456916,60.3645833 23.5478549,60.1923492 22.7210341,59.8505512 L22.7210341,58.0100491 C23.1251841,58.0687956 23.5994485,58.1021744 24.1444887,58.1021744 C25.1353507,58.1021744 25.9317444,57.8271338 26.5389616,57.2757175 C27.2652409,56.6041378 27.6283806,55.8491114 27.6283806,55.0139761 C27.6283806,54.4411974 27.3452772,53.2702723 26.7803932,51.4971952 L23.0239812,39.7238565 L26.3868266,39.7238565 L29.0829237,48.5291603 C29.6888179,50.528545 29.9414943,51.9244427 29.8402915,52.7195235 C31.3146782,48.7454543 32.3445661,44.4122301 32.9312781,39.7231889 L36.1730769,39.7231889 L36.1730769,39.7245241 Z"/>
      <path fill="#F8981D" d="M82.5,55.0353473 L72.6924308,55.0353473 L72.6924308,34.6162863 L75.9916437,34.6162863 L75.9916437,52.521846 L82.5,52.521846 L82.5,55.0353473 Z M70.125116,55.5286698 L66.3328559,53.6762339 C66.6691154,53.4028263 66.990697,53.1069648 67.2802538,52.7642147 C68.8921645,50.8899854 69.6961183,48.1182657 69.6961183,44.4470746 C69.6961183,37.6917922 67.0180514,34.3125 61.6599161,34.3125 C59.0325551,34.3125 56.9829732,35.1697056 55.5171753,36.8847773 C53.906599,38.7603274 53.1026452,41.522141 53.1026452,45.17352 C53.1026452,48.762821 53.8151951,51.3958556 55.2409621,53.0660197 C56.5453021,54.5790075 58.5114862,55.336492 61.1408489,55.336492 C62.1216058,55.336492 63.0216337,55.2176191 63.8415999,54.9778921 L68.7787436,57.8229167 L70.125116,55.5286698 Z M57.8403016,50.9494218 C57.0049902,49.6193662 56.5873346,47.4836166 56.5873346,44.5388708 C56.5873346,39.3976182 58.165219,36.8240201 61.3243238,36.8240201 C62.9755982,36.8240201 64.1858656,37.4395175 64.9597962,38.6678707 C65.7937732,39.9999075 66.2134304,42.1165054 66.2134304,45.0203061 C66.2134304,50.2038246 64.6342116,52.7959141 61.4771084,52.7959141 C59.8251668,52.7965745 58.6148994,52.1830583 57.8403016,50.9494218 Z M51.6648689,49.3756768 C51.6648689,51.1072586 51.0230402,52.5277897 49.7407172,53.640572 C48.4570598,54.7487316 46.7357313,55.3041321 44.5787333,55.3041321 C42.5611762,55.3041321 40.6049998,54.6661809 38.7115385,53.3968826 L39.5982228,51.6435074 C41.2274802,52.4511827 42.7026187,52.8527089 44.0269741,52.8527089 C45.2699334,52.8527089 46.2413498,52.5799617 46.9458935,52.03909 C47.6497701,51.4962371 48.0694273,50.7347902 48.0694273,49.7719198 C48.0694273,48.5587559 47.2147677,47.5219201 45.646891,46.6534875 C44.2011085,45.8676056 41.3095435,44.2245181 41.3095435,44.2245181 C39.742334,43.0939048 38.9577285,41.8800805 38.9577285,39.8803742 C38.9577285,38.2253994 39.5428467,36.8894002 40.7137504,35.8730369 C41.8859884,34.8527113 43.3984891,34.3441994 45.2525867,34.3441994 C47.1673978,34.3441994 48.9080746,34.8520509 50.4759513,35.8571872 L49.6806708,37.6112228 C48.3396359,37.0472369 47.0159476,36.765244 45.7102732,36.765244 C44.6527904,36.765244 43.8361602,37.0168583 43.2683887,37.5220681 C42.6959469,38.0252967 42.3430078,38.6691915 42.3430078,39.4590359 C42.3430078,40.6662561 43.2156813,41.7163 44.8262577,42.6019031 C46.2913884,43.3891058 49.255009,45.0605908 49.255009,45.0605908 C50.8622494,46.1892228 51.6648689,47.3918203 51.6648689,49.3756768 Z"/>
      <path fill="#5D87A1" d="M86.5745181,27.5213542 C84.5709003,27.4711978 83.0196041,27.6698435 81.7175876,28.2123244 C81.3416579,28.3601538 80.7439231,28.3601538 80.6916548,28.8280601 C80.894697,29.0260458 80.9181507,29.3454628 81.0943887,29.6186831 C81.3945963,30.1116676 81.9179494,30.7749198 82.3957352,31.1207349 C82.9204284,31.5167064 83.447132,31.9087181 83.9992996,32.2538732 C84.972964,32.8471705 86.0766291,33.1923256 87.0254997,33.783643 C87.5783374,34.1274782 88.1278246,34.5722862 88.6813324,34.9425195 C88.9533956,35.1398453 89.1276232,35.4599222 89.4807692,35.5833333 L89.4807692,35.5080988 C89.3038612,35.2863547 89.2536032,34.9656178 89.0800457,34.7187956 L88.3281864,34.0047271 C87.6017911,33.0438363 86.6991579,32.2050368 85.7254934,31.5160464 C84.9240463,30.9722456 83.1710482,30.2330988 82.8460466,29.3236844 L82.7951185,29.273528 C83.3459459,29.2227116 83.9992996,29.0260458 84.5226526,28.8749167 C85.3743577,28.6538326 86.1510109,28.703989 87.0248296,28.4829049 C87.4268934,28.3839121 87.8256066,28.259841 88.2290106,28.1377498 L88.2290106,27.9153458 C87.7760188,27.4711978 87.4530275,26.8812004 86.9765819,26.4614706 C85.7020397,25.3771687 84.2974969,24.3166251 82.8460466,23.4289891 C82.0687233,22.9346847 81.0689247,22.6165876 80.2413434,22.1961979 C79.943146,22.0477086 79.4405663,21.9744539 79.2649985,21.7276317 C78.8160272,21.1851508 78.5633971,20.4710822 78.2377255,19.8289485 C77.5140107,18.4740661 76.8110691,16.9706945 76.18653,15.5379377 C75.7348784,14.5770469 75.4601348,13.6174761 74.9093074,12.7285201 C72.3293981,8.53782208 69.5276836,5.99964497 65.2215804,3.50832448 C64.2961636,2.98960185 63.1951789,2.76851778 62.0191423,2.49661737 L60.1408343,2.39894441 C59.7401107,2.22603687 59.3387171,1.75681068 58.9889216,1.53506666 C57.5602549,0.648090568 53.8820413,-1.27435091 52.8313146,1.2638262 C52.1545072,2.8681706 53.8324535,4.44545695 54.4087449,5.25917832 C54.8342624,5.82409761 55.3857599,6.4668913 55.6832871,7.10836508 C55.8595251,7.52743488 55.9091129,7.97224283 56.0853509,8.41507092 C56.4860745,9.50003275 56.8606639,10.7070858 57.3873675,11.7194528 C57.6621111,12.2355356 57.9616486,12.7780166 58.3127843,13.2452629 C58.5138162,13.5184832 58.8636117,13.6392545 58.9400038,14.0847224 C58.5908784,14.575727 58.5634041,15.3168536 58.3630423,15.9332492 C57.4624194,18.7189085 57.8142252,22.1697998 59.0907777,24.2169723 C59.4901611,24.8333679 60.4430523,26.1902301 61.7175945,25.6701876 C62.8460535,25.2266996 62.5961039,23.8216608 62.9204353,22.5895296 C62.9948171,22.291891 62.9458994,22.0965451 63.0960032,21.9011992 L63.0960032,21.9493757 C63.4451286,22.639026 63.7976045,23.3035981 64.1212658,23.9952283 C64.897919,25.2022813 66.2501936,26.4601507 67.3766423,27.2963104 C67.9763875,27.7424383 68.4514928,28.5053433 69.202682,28.7779037 L69.202682,28.703989 L69.1530942,28.703989 C69.00098,28.4829049 68.7785047,28.3839121 68.578813,28.2123244 C68.1271614,27.7681764 67.6272621,27.2256955 67.2767965,26.733371 C66.22741,25.3520905 65.2986426,23.8229807 64.4744119,22.2450344 C64.0710079,21.4794896 63.7232227,20.6426699 63.3982211,19.8784449 C63.2467771,19.5834462 63.2467771,19.1386382 62.9954872,18.9901489 C62.6188875,19.5319699 62.0700704,20.0011961 61.7953268,20.6651083 C61.3188812,21.7269717 61.2692934,23.0330176 61.0923853,24.3911998 L60.9938797,24.4387164 C60.1964531,24.2413906 59.9190291,23.4289891 59.6161411,22.7393388 C58.8662921,20.987825 58.7403121,18.1764276 59.3909853,16.1556532 C59.565213,15.6389104 60.3190826,14.0114677 60.0182049,13.5191432 C59.8674309,13.0472772 59.3661914,12.7786765 59.0914478,12.4071233 C58.7684566,11.9398769 58.4146404,11.3485596 58.1894847,10.8298369 C57.5890695,9.44987636 57.2868515,7.92076654 56.6401989,6.54146593 C56.337981,5.89867224 55.8132877,5.23344017 55.3884403,4.64146283 C54.9113246,3.97623076 54.3866314,3.50766452 54.0093615,2.71902135 C53.8847218,2.44778089 53.709824,2.00429285 53.9101858,1.7092941 C53.9591036,1.51130837 54.0609597,1.4373937 54.2606514,1.38789726 C54.5849829,1.11797671 55.5117399,1.46115198 55.8367415,1.60964128 C56.7648387,1.97921466 57.5408218,2.32436979 58.3154647,2.8417725 C58.6659303,3.08925467 59.04186,3.55782091 59.4915013,3.68123202 L60.0182049,3.68123202 C60.8176417,3.85281965 61.7189347,3.72874859 62.4714641,3.95181252 C63.7976045,4.37154228 64.9991051,4.98727791 66.0766361,5.65185003 C69.3554663,7.69968247 72.0593452,10.6094128 73.8847148,14.0847224 C74.1842524,14.6509616 74.3115726,15.1696842 74.5849759,15.7603417 C75.1123496,16.9693745 75.7643631,18.2021657 76.2877161,19.3854605 C76.8137496,20.543677 77.3149891,21.7263118 78.0661783,22.6885225 C78.4407677,23.2059252 79.9458265,23.4771656 80.6206235,23.7484061 C81.1198527,23.9694902 81.8971761,24.166156 82.3474875,24.4373964 C83.1991926,24.9541392 84.0475472,25.5474365 84.8483243,26.1156555 C85.2470375,26.4113142 86.5001363,27.0277098 86.5745181,27.5213542 M61.0394469,6.09665798 C60.6938426,6.09312009 60.3492942,6.13484252 60.0148543,6.22072904 L60.0148543,6.27022547 L60.063102,6.27022547 C60.264804,6.66421708 60.6152696,6.93743739 60.8652192,7.28127262 C61.0669212,7.67658414 61.241819,8.06859589 61.4395004,8.46324745 L61.487748,8.41441097 C61.840894,8.16824871 62.0164619,7.77359714 62.0164619,7.1816198 C61.8643478,7.00739235 61.840894,6.83712462 61.7142439,6.66421708 C61.5668206,6.41739487 61.241819,6.29464371 61.0394469,6.09665798"/>
      <path fill="#F8981D" d="M88.9367462,54.6458333 L89.4807692,54.6458333 L89.4807692,52.1048375 L88.6647348,52.1048375 L87.9991149,53.8388592 L87.2758595,52.1048375 L86.4900486,52.1048375 L86.4900486,54.6458333 L87.003848,54.6458333 L87.003848,52.7125836 L87.0326658,52.7125836 L87.7903619,54.6458333 L88.1818616,54.6458333 L88.9367462,52.7125836 L88.9367462,54.6458333 Z M84.5543389,54.6458333 L85.1299911,54.6458333 L85.1299911,52.535492 L85.88347,52.535492 L85.88347,52.1041667 L83.7692308,52.1041667 L83.7692308,52.535492 L84.5529331,52.535492 L84.5543389,54.6458333 Z"/>
    </g>
  </g>
</svg>
