<svg xmlns="http://www.w3.org/2000/svg" width="198" height="61" viewBox="0 0 198 61">
  <g fill="none">
    <rect width="198" height="61"/>
    <g fill="#ED1F23" transform="translate(30.462 22.24)">
      <path d="M96.3474581,0.258470737 L99.1769433,0.258470737 L99.1769433,14.9262886 L111.443792,14.9262886 L109.642356,17.7916667 L96.3474581,17.7916667 L96.3474581,0.258470737 Z M74.1300049,17.7916667 L63.6645924,1.08303996 C63.0212783,-0.00158571004 61.3060351,-0.00158571004 60.5765278,1.12664698 L50.1973085,17.7916667 L53.6285784,17.7916667 L56.7597396,12.7570373 L63.4506768,12.7570373 L65.2098001,9.89245209 L58.5188629,9.89245209 L62.1648321,4.1212604 L70.7003021,17.7916667 L74.1300049,17.7916667 Z M80.4981096,0.264020722 C75.7167419,0.264020722 72.5691257,4.18627451 72.5691257,9.0250687 C72.5691257,13.86307 75.7175255,17.7869095 80.4981096,17.7869095 L92.1247785,17.7726381 L93.944237,14.9326315 L80.5835192,14.9326315 C77.3606799,14.9326315 75.4746176,12.2876671 75.4746176,9.0250687 C75.4746176,5.76247029 77.3598963,3.11750594 80.5835192,3.11750594 L92.4852225,3.11750594 L94.2419951,0.255299317 L80.4981096,0.264020722 Z M7.92976745,3.11750594 L20.1958326,3.11750594 C23.4202391,3.11750594 25.3055178,5.76247029 25.3055178,9.0250687 C25.3055178,12.2876671 23.4210226,14.9326315 20.1958326,14.9326315 L7.92976745,14.9326315 C4.70536102,14.9326315 2.82086589,12.2876671 2.82086589,9.0250687 C2.82086589,5.76247029 4.70536102,3.11750594 7.92976745,3.11750594 Z M7.92976745,0.264020722 C3.14761619,0.264020722 0,4.18627451 0,9.0250687 C0,13.86307 3.14761619,17.7869095 7.92976745,17.7869095 L20.1958326,17.7869095 C24.9779839,17.7869095 28.1256001,13.86307 28.1256001,9.0250687 C28.1256001,4.18627451 24.9779839,0.264020722 20.1958326,0.264020722 L7.92976745,0.264020722 Z M114.467604,10.4141507 C114.928345,13.0067866 116.691386,14.9326315 119.443298,14.9326315 L132.804015,14.9326315 L130.98299,17.7726381 L119.357888,17.7869095 C114.574953,17.7869095 111.428904,13.86307 111.428904,9.0250687 C111.428904,4.18627451 114.575737,0.264020722 119.357888,0.264020722 L133.10099,0.256092172 L131.345784,3.1182988 L119.444081,3.1182988 C116.730565,3.1182988 114.959688,5.01163659 114.468387,7.55035836 L131.260375,7.55035836 L129.458939,10.4149436 L114.467604,10.4149436 L114.467604,10.4141507 Z M44.128529,10.6678643 C46.9328524,10.6183206 49.1805778,8.30391468 49.1805778,5.46594251 C49.1805778,2.62797034 46.9328524,0.313564426 44.128529,0.264020722 L29.6958821,0.257677882 L29.6958821,17.7908738 L32.8701398,17.7908738 L32.8701398,3.1182988 L44.128529,3.1182988 C45.4099192,3.1182988 46.4486912,4.16937469 46.4486912,5.46594251 C46.4486912,6.76251034 45.4099192,7.81358623 44.128529,7.81358623 L35.100191,7.81358623 L45.285084,17.7710524 L49.3823917,17.7710524 L42.091237,10.6742071 L44.128529,10.6678643 Z M136.066033,0.274327837 C136.801809,0.274327837 137.384005,0.862626263 137.384005,1.6427956 C137.384005,2.43565062 136.802593,3.01919192 136.066033,3.01919192 C135.320855,3.01919192 134.74101,2.43565062 134.74101,1.6427956 C134.74101,0.862626263 135.320855,0.274327837 136.066033,0.274327837 L136.066033,0 C135.170408,0 134.413476,0.696919563 134.413476,1.64200275 C134.413476,2.59660019 135.171192,3.29351976 136.066033,3.29351976 C136.953823,3.29351976 137.711538,2.59660019 137.711538,1.64200275 C137.711538,0.696919563 136.953823,0 136.066033,0 L136.066033,0.274327837 Z"/>
      <path d="M135.195597,0.984333612 L135.576404,0.984333612 C135.769879,0.984333612 135.976406,1.03334238 135.976406,1.29798971 C135.976406,1.62590289 135.765273,1.64639747 135.528036,1.64639747 L135.194829,1.64639747 L135.194829,1.92084655 L135.515752,1.92084655 L136.001742,2.84666667 L136.313452,2.84666667 L135.789841,1.90658945 C136.060092,1.86738244 136.266619,1.70164371 136.266619,1.31937535 C136.266619,0.897899972 136.050879,0.711666667 135.617096,0.711666667 L134.915365,0.711666667 L134.915365,2.84666667 L135.194061,2.84666667 L135.194061,0.984333612 L135.195597,0.984333612 Z"/>
    </g>
  </g>
</svg>
