<svg xmlns="http://www.w3.org/2000/svg" width="198" height="61" viewBox="0 0 198 61">
  <g fill="none" fill-rule="evenodd">
    <rect width="198" height="61"/>
    <g fill-rule="nonzero" transform="translate(33.635 40.031)">
      <path fill="#231F20" d="M7.87250116 7.64088723L1.84481524 7.64088723 1.84481524 1.55520181 8.19960421 1.55520181C10.5254236 1.55520181 11.688613 2.58522357 11.688613 4.6450615 11.688613 6.64245475 10.4164684 7.64088723 7.87250116 7.64088723zM12.2046497 1.48398975C11.3786519.741437299 10.2229058.37010933 8.73781861.37010933L.105804375.418140022.105804375 14.9756443 1.84481524 14.9756443 1.82882632 8.7780171 8.25192849 8.7780171C9.86275674 8.7780171 11.1306117 8.40687703 12.0556974 7.66447708 12.9807988 6.92192462 13.4435109 5.89209076 13.4435109 4.57427563 13.4435109 3.25654627 13.0304781 2.22661029 12.2046497 1.48398975zM23.4612539 11.9201625C23.2848339 12.4116523 23.0095465 12.8242016 22.6359179 13.1584421 21.8571237 13.9218625 20.6685005 14.302975 19.0695749 14.302975 17.6262156 14.302975 16.5179107 13.9323292 15.7446602 13.1900314 14.9711561 12.4480576 14.5845234 11.4552758 14.5845234 10.2113469 14.5845234 9.5635446 14.6856955 8.98875848 14.8881087 8.48705799 15.0905396 7.98535614 15.383698 7.56184594 15.7678389 7.21703663 16.5672508 6.48537703 17.6677902 6.11946145 19.0695749 6.11946145 22.1739518 6.11946145 23.7261823 7.48363795 23.7261823 10.2113469 23.7261823 10.8594038 23.6376752 11.4290145 23.4612539 11.9201625zM23.7766075 6.54994989C22.7165576 5.57977212 21.1476092 5.09459746 19.0695749 5.09459746 17.1054822 5.09459746 15.5882639 5.59032458 14.5181262 6.58128455 13.5518897 7.47822692 13.0687972 8.68818507 13.0687972 10.2111767 13.0687972 11.723718 13.5673706 12.9440407 14.5649908 13.8721625 15.1156159 14.3731332 15.7573266 14.7354732 16.4900184 14.9596781 17.2224566 15.1839021 18.0824847 15.2960986 19.0695749 15.2960986 21.1371809 15.2960986 22.7114195 14.8164044 23.7923245 13.8567096 24.7584932 12.9805998 25.2419071 11.7656718 25.2419071 10.2111767 25.2419071 8.64670643 24.7532709 7.42621353 23.7766075 6.54994989zM36.9340786 12.3406962C36.9340786 14.3003199 35.1850465 15.2798097 31.6871028 15.2798097 30.6179472 15.2798097 29.7175152 15.2118314 28.9856535 15.0753644 28.2537918 14.9387448 27.6596931 14.7130244 27.2029493 14.398391 26.8500904 14.1583737 26.5698519 13.845731 26.3622165 13.4597834 26.1544969 13.0740061 26.0198712 12.5891718 25.9576273 12.0056047L27.5849362 11.9899789C27.5849362 12.7612109 27.8695667 13.3291549 28.439487 13.6941501 29.0506441 14.1322812 30.1332948 14.3510234 31.6873402 14.3510234 34.13205 14.3510234 35.3545161 13.7363599 35.3545161 12.5062336 35.3545161 11.7872873 34.9445515 11.2922247 34.1246751 11.0209585 33.9583591 10.9687735 32.9697592 10.8308264 31.1584004 10.606774 29.3471257 10.3825513 28.2185246 10.1819362 27.7724626 10.0047394 26.8071254 9.61913221 26.3245416 8.92595571 26.3245416 7.9251908 26.3245416 6.94536196 26.7554631 6.21560862 27.6180507 5.73618674 28.0440877 5.53830982 28.5765882 5.3845517 29.2157379 5.27494096 29.8548713 5.16539967 30.5952609 5.1105623 31.4370613 5.1105623 34.8038897 5.1105623 36.4873385 6.17115214 36.4873385 8.29159929L34.9397538 8.29159929C34.9397538 6.80092949 33.7561833 6.05546592 31.3894682 6.05546592 30.1854496 6.05546592 29.2874252 6.20663835 28.6957342 6.50881301 28.1039402 6.81115788 27.8083063 7.27512551 27.8083063 7.90042589 27.8083063 8.48423266 28.2078427 8.90633087 29.0072723 9.16678862 29.4745284 9.30250681 30.5489049 9.45898951 32.2308617 9.63608422 33.7362275 9.77171663 34.769199 9.9641975 35.3299308 10.2146651 36.3992546 10.6315375 36.9340786 11.3404242 36.9340786 12.3406949L36.9340786 12.3406962zM43.32644 14.9955919C43.0771621 15.0371372 42.8562852 15.0682159 42.6643666 15.0889968 42.4722121 15.1092847 42.3345344 15.1199229 42.2515888 15.1199229 41.1921153 15.1199229 40.4280547 14.966011 39.9593743 14.6575212 39.4907115 14.3496958 39.2566595 13.8090016 39.2566595 13.035779L39.2566595 6.39179922 37.3261709 6.39179922 37.3261709 5.41481342 39.2411786 5.41481342 39.2566595 2.27581469 40.7403387 2.27581469 40.7403387 5.41481342 43.3239645 5.41481342 43.3239645 6.40776406 40.7403387 6.39179922 40.7403387 12.8557745C40.7403387 13.3371203 40.867504 13.669215 41.1220896 13.8523865 41.3763348 14.0355567 41.8307564 14.1268007 42.4851321 14.1268007 42.5786064 14.1374349 42.6825943 14.134276 42.7966701 14.1166568 42.9109154 14.0990417 43.0822148 14.0596572 43.3107231 13.9989799L43.32644 14.9955919zM53.5880012 12.7914549C53.1831585 13.1247083 52.7215315 13.3798394 52.2024421 13.5571887 51.6835059 13.7342154 51.0868464 13.8228056 50.4123454 13.8228056 47.3092232 13.8228056 45.7579938 12.5363251 45.7579938 9.96353304 45.7579938 8.76572723 46.1547997 7.8283642 46.9488374 7.15121926 47.7424669 6.47416011 48.8607931 6.13557879 50.3034064 6.13557879 51.7562784 6.13557879 52.8590396 6.47689967 53.6114336 7.1590308 54.3637435 7.84141792 54.7401867 8.75549884 54.7401867 9.90103527 54.7401867 11.1509402 54.3560457 12.1142269 53.5880012 12.7914549zM56.2239513 5.42136547L54.7401867 5.42136547 54.7244697 7.06346368C54.0704155 6.39670237 53.6029057 5.97518283 53.3226673 5.79791792 52.4918703 5.33977116 51.4171709 5.1105623 50.0985014 5.1105623 48.1670132 5.1105623 46.6922687 5.55342366 45.6747768 6.43908239 44.7089472 7.25177395 44.2263634 8.42922373 44.2263634 9.97117574 44.2263634 10.7319233 44.3484936 11.4115696 44.5928029 12.0105909 44.8371136 12.6094598 45.1934477 13.1175612 45.6612803 13.5340931 46.6803484 14.388247 48.1206395 14.8155874 49.9823395 14.8155874 52.2181604 14.8155874 53.8040805 14.2017572 54.7401867 12.9737918L54.7401867 14.6738101C54.7401867 15.7578359 54.3998421 16.5970448 53.7198123 17.1910799 53.0395288 17.7854568 51.9207794 18.0826439 50.3631748 18.0826439 48.898959 18.0826439 47.8554751 17.8800204 47.2327206 17.4754693 46.7652948 17.1643243 46.4434819 16.6242946 46.2670619 15.8565687L44.7405859 15.8565687C44.9066645 16.9291244 45.3586093 17.7048483 46.0960161 18.1836915 46.9477523 18.7353467 48.386398 19.0114302 50.412108 19.0114302 54.286427 19.0114302 56.2239513 17.5655559 56.2239513 14.6738087L56.2239513 5.42136547zM64.249438 6.38897525C63.803376 6.31626542 63.3884279 6.27968857 63.0046084 6.27968857 60.5656974 6.27968857 59.3467078 7.62209705 59.3467078 10.3067615L59.3467078 14.9756443 57.8787618 14.9756443 57.8627058 5.42236897 59.3467078 5.43707569 59.3467078 7.14150147 59.424533 7.14150147C59.6734718 6.46992279 60.0678876 5.96064768 60.6075934 5.61425346 61.1989629 5.27851518 62.0808458 5.1105623 63.2534794 5.1105623 63.4922449 5.1105623 63.6916062 5.1105623 63.8527162 5.1105623 64.0136566 5.1105623 64.14596 5.1105623 64.249438 5.1105623L64.249438 6.38897525zM65.629216 9.59479348C65.8159964 8.50901391 66.2364042 7.66847612 66.8899497 7.07318147 67.3156476 6.72854237 67.7984864 6.47009163 68.3379386 6.29796815 68.8780513 6.125861 69.4854104 6.03943299 70.1599792 6.03943299 71.4781577 6.03943299 72.5544346 6.40235167 73.390283 7.1280379 74.2257935 7.85355257 74.6432172 8.67587886 74.6432172 9.59479348L65.629216 9.59479348zM74.7885926 6.64776502C74.2690121 6.12502634 73.6248951 5.73826183 72.8561209 5.48719917 72.0873304 5.23613516 71.1888991 5.11056094 70.1603021 5.11056094 68.2377662 5.11056094 66.7468803 5.55924453 65.6868467 6.45637344 64.6274587 7.35341792 64.0972805 8.57382641 64.0972805 10.1175989 64.0972805 11.6612189 64.6066036 12.8866993 65.6240779 13.7940403 66.7248546 14.7954683 68.2776616 15.2960972 70.2825164 15.2960972 71.0817587 15.2960972 71.8215719 15.2050234 72.5019408 15.0235035 73.1823083 14.8418487 73.7770689 14.584539 74.2858997 14.2522892 75.1790409 13.6083852 75.7446558 12.8138874 75.9842515 11.8690682L74.3802733 11.8690682C73.8298856 13.5025039 72.4598738 14.31911 70.2695964 14.31911 68.7227401 14.31911 67.5335581 13.9198705 66.7035085 13.1207256 65.9870422 12.4360931 65.629216 11.5491926 65.629216 10.4594984L76.2067915 10.4594984C76.2067915 8.83884554 75.7345504 7.56815971 74.7885926 6.64776502z"/>
      <path fill="#367FAF" d="M91.8818981 11.0731584C91.8818981 13.9095563 89.60318 15.3278404 85.0452706 15.3278404 82.3143704 15.3278404 80.3211144 14.8395177 79.0650265 13.8620185 78.0367849 13.0590625 77.5233084 11.8344834 77.5233084 10.1872465L79.3580995 10.1872465C79.3580995 12.8351625 81.2533371 14.1587141 85.0447796 14.1587141 86.8625136 14.1587141 88.1767245 13.8879571 88.9870733 13.3462758 89.6725614 12.8675865 90.015315 12.1175452 90.015315 11.096766 90.015315 10.0863514 89.5478893 9.37812775 88.6128506 8.97165397 88.0829952 8.75299621 86.7894875 8.47667574 84.732817 8.14342239 82.1464621 7.74758549 80.4691511 7.35183438 79.7005302 6.95608326 78.5893089 6.37268634 78.0336312 5.38305257 78.0336312 3.9870485 78.0336312 2.68502801 78.5065328 1.71634665 79.4518288 1.08074844 80.4691511.382908437 82.2145209.0337760268 84.6869534.0337760268 89.1538125.0337760268 91.3873098 1.52311826 91.3873098 4.50148138L89.5367828 4.50148138C89.5367828 2.27033422 87.8781743 1.15488795 84.5614497 1.15488795 82.8978726 1.15488795 81.6813586 1.37926446 80.912077 1.82770978 80.1840133 2.30747205 79.8205742 3.01130449 79.8205742 3.93942629 79.8205742 4.90934944 80.2879999 5.59248545 81.22336 5.98881525 81.7214248 6.21836451 83.1863012 6.5364019 85.6173449 6.94328415 87.9030146 7.28760192 89.4453933 7.68891792 90.2456368 8.14774549 91.3366472 8.71095658 91.8818981 9.68627578 91.8818981 11.0731584zM106.785569 12.5205305C106.099758 13.0718452 105.324999 13.4853817 104.461987 13.7614652 103.598653 14.0370368 102.632163 14.1751718 101.561364 14.1751718 99.3778684 14.1751718 97.6132712 13.5844563 96.2662862 12.4033465 94.9204528 11.2222544 94.247376 9.64805002 94.247376 7.6810206 94.247376 5.63071257 94.9148236 4.03334315 96.2508907 2.8882152 97.5872793 1.74335821 99.3571652 1.17092223 101.561364 1.17092223 103.796523 1.17092223 105.553981 1.76936491 106.832755 2.96616721 107.508004 3.54941163 108.007238 4.23096408 108.329932 5.01148768 108.651829 5.79226725 108.813432 6.68200944 108.813432 7.6810206 108.813432 9.72101446 108.137369 11.3339402 106.785569 12.5205305zM107.760842 13.4860461C108.717057 12.8094118 109.424248 11.9893158 109.881756 11.0259447 110.339415 10.0625913 110.568415 8.95037886 110.568415 7.68999087 110.568415 5.42960319 109.819987 3.61715158 108.324134 2.25263333 107.524229 1.50267781 106.557739.945372009 105.425493.580783996 104.293265.216197344 102.999417.0337760268 101.545308.0337760268 98.7195076.0337760268 96.5015752.721319554 94.8914767 2.09621871 93.2808859 3.47105114 92.4763358 5.33551614 92.4763358 7.68924199 92.4763358 9.98048641 93.2884982 11.8294972 94.9138239 13.2352381 96.5389964 14.6412336 98.7594205 15.3441293 101.573775 15.3441293 102.674382 15.3441293 103.634922 15.269343 104.455205 15.1199229 105.275642 14.9701639 105.971576 14.7406132 106.543006 14.4311376L109.253542 16.3169799 110.385448 15.2731555 107.760842 13.4860461z"/>
      <polygon fill="#367FAF" points="124.309 14.976 111.772 14.976 111.772 .402 113.496 .37 113.496 13.758 124.325 13.758"/>
    </g>
    <g transform="translate(79.327 3.813)">
      <path fill="#231F20" fill-rule="nonzero" stroke="#231F20" stroke-width="2.598" d="M24.4994231,24.7363346 C24.7267799,22.8325942 24.6587228,22.5534279 26.0701005,22.8616578 L26.4284242,22.8932546 C27.5136888,22.9429053 28.9334085,22.717962 29.7674476,22.3286582 C31.562952,21.4915931 32.6276385,20.0941652 30.8572635,20.4614418 C26.8188811,21.2984202 26.541179,19.9244597 26.541179,19.9244597 C30.8055711,13.5678266 32.588174,5.49816063 31.0495427,3.52304508 C26.8526979,-1.86431522 19.588038,0.683284034 19.4665184,0.749410131 L19.4278049,0.756567227 C18.6296034,0.59025428 17.7367043,0.490874616 16.7334947,0.474650385 C14.9062805,0.444485363 13.519575,0.95596925 12.4677126,1.75749042 C12.4677126,1.75749042 -0.491905347,-3.60647952 0.110899169,8.50343646 C0.239119878,11.0797515 3.78649363,27.997006 8.01719809,22.887242 C9.56362758,21.0187507 11.0579411,19.4389946 11.0579411,19.4389946 C11.7999681,19.9342896 12.6883593,20.1870208 13.620231,20.0961947 L13.6922425,20.0345195 C13.6696436,20.2664901 13.6796781,20.4934634 13.7210853,20.7619503 C12.63127,21.9853605 12.9516056,22.200301 10.7724753,22.6508642 C8.56800828,23.1073533 9.86312587,23.9201091 10.7085984,24.1323421 C11.7336905,24.3899844 14.1052638,24.7548054 15.7076862,22.5010698 L15.6439296,22.7582956 C16.0714931,23.1019306 16.0424867,25.228151 16.1032029,26.7473335 C16.1637554,28.2665076 16.2651195,29.6842705 16.5734351,30.5200697 C16.8815862,31.3558682 17.2453931,33.5086882 20.1092883,32.8920723 C22.5027012,32.3768662 24.3325323,31.6352857 24.4994231,24.7363346"/>
      <path fill="#417BA2" fill-rule="nonzero" d="M30.8575999,20.4614418 C26.8188811,21.2984202 26.541179,19.9244597 26.541179,19.9244597 C30.8055711,13.5675663 32.588174,5.49773587 31.0497928,3.52270638 C26.8530344,-1.86447971 19.588038,0.68328334 19.4668549,0.749409437 L19.4278049,0.756445768 C18.6296034,0.590046064 17.7367043,0.490873922 16.7330719,0.474520596 C14.9056933,0.444406935 13.519575,0.955795737 12.4677126,1.75723848 C12.4677126,1.75723848 -0.492242479,-3.60661 0.110562728,8.50317619 C0.238662539,11.0797515 3.78602731,27.997006 8.01686165,22.887242 C9.56329044,21.01875 11.0574748,19.4389946 11.0574748,19.4389946 C11.7995107,19.9342896 12.6880229,20.1870208 13.6192983,20.0961947 L13.6916553,20.0345195 C13.6691856,20.2664901 13.6796001,20.4934634 13.7207488,20.7619503 C12.6308465,21.9853605 12.9510101,22.200301 10.7722252,22.6508642 C8.5674556,23.1073526 9.86266784,23.9201084 10.7082613,24.1323421 C11.7334743,24.3899837 14.1051346,24.7548054 15.7073491,22.5010698 L15.6435068,22.7582956 C16.0706469,23.1019306 16.3705341,24.9935514 16.3201888,26.7083532 C16.2700073,28.4231648 16.2364495,29.6005675 16.5728479,30.520069 C16.9094099,31.4396573 17.2447112,33.5086889 20.1092883,32.892073 C22.5027012,32.3768662 23.7429658,31.0414605 23.9155988,28.8141601 C24.0380427,27.2306734 24.3149932,27.4645963 24.3325323,26.0488711 L24.5548288,25.3787089 C24.8111148,23.232066 24.5955623,22.5395378 26.0701005,22.8616578 L26.4284242,22.8932546 C27.5136888,22.9429053 28.9341684,22.717962 29.7677847,22.3286582 C31.562952,21.4915924 32.6276385,20.0941652 30.8575999,20.4614418 Z"/>
      <path stroke="#FFF" stroke-linecap="round" stroke-linejoin="round" stroke-width=".866" d="M15.8808201 21.69188C15.7695859 25.6860018 15.9087302 29.7080766 16.29784 30.6855317 16.6870272 31.6630743 17.5200555 33.5643514 20.3848834 32.9478223 22.7779599 32.4323649 23.6487692 31.434912 24.0265747 29.2331181 24.3049587 27.6132019 24.8414684 23.1143889 24.9102855 22.192597M12.4476782 1.66806976C12.4476782 1.66806976-.521084539-3.65714623.0818491644 8.45263996.210069873 11.0289988 3.75743464 27.947016 7.98835534 22.8370015 9.53444769 20.9683359 10.9327947 19.5027082 10.9327947 19.5027082M19.4525979.696080328C19.0034538.837476698 26.6665755-2.11818321 31.0215463 3.4722576 32.5598321 5.4472864 30.7771511 13.5171605 26.5129234 19.8743927"/>
      <path stroke="#FFF" stroke-linecap="round" stroke-linejoin="bevel" stroke-width=".866" d="M26.5129234,19.8743927 C26.5129234,19.8743927 26.7907119,21.2485169 30.8296898,20.4111138 C32.5993049,20.0438372 31.53436,21.441517 29.7395375,22.2788424 C28.2665972,22.9656092 24.9641713,23.1416653 24.9102855,22.192597 C24.7713048,19.7439971 26.6483634,20.487954 26.5129234,19.8743927 C26.3903932,19.3218201 25.551121,18.779425 24.9958811,17.4272322 C24.5111412,16.2467834 18.3479378,7.19432713 26.70503,8.53863338 C27.0112377,8.47500588 24.5253988,0.552723252 16.7043155,0.423897607 C8.88551205,0.295124711 9.14204811,10.0846674 9.14204811,10.0846674"/>
      <path stroke="#FFF" stroke-linecap="round" stroke-linejoin="round" stroke-width=".866" d="M13.6922425,20.7117091 C12.6020038,21.9350332 12.9226336,22.149973 10.7436325,22.6007104 C8.53895827,23.0572855 9.83429141,23.8697811 10.6796258,24.0820141 C11.7047614,24.3399083 14.0765419,24.7046426 15.678679,22.450326 C16.1667868,21.7638966 15.675812,20.6686686 15.0057538,20.3895113 C14.681877,20.2547953 14.2489594,20.0858623 13.6922425,20.7117091 Z"/>
      <path stroke="#FFF" stroke-linecap="round" stroke-linejoin="round" stroke-width=".866" d="M13.6207747,20.6903578 C13.5111031,19.9710565 13.8561889,19.1150964 14.2258942,18.1136617 C14.7816004,16.6113448 16.0636521,15.108438 15.0380073,10.3422313 C14.273588,6.79044815 9.1452177,9.60293214 9.14204811,10.0846674 C9.13884259,10.5660724 9.37392172,12.5258937 9.0563316,14.8076692 C8.64184227,17.7853647 10.9421556,20.3035957 13.5910511,20.0460408"/>
      <path fill="#FFF" fill-rule="nonzero" stroke="#FFF" stroke-width=".5" d="M12.4005363 10.0123212C12.3774711 10.176847 12.70038 10.6157153 13.1211996 10.6743456 13.5415438 10.733314 13.9011801 10.3903557 13.9239089 10.2259861 13.9467586 10.0614603 13.6241943 9.88032027 13.2031682 9.82122148 12.7826858 9.76238296 12.4227988 9.84816817 12.4005363 10.0123212zM25.2008111 9.67697948C25.2236607 9.84147054 24.9010972 10.2804687 24.4801913 10.339099 24.0596316 10.3979812 23.6998744 10.0550139 23.6767656 9.89056591 23.6545032 9.72603183 23.9772394 9.5449008 24.3977999 9.4859318 24.8183686 9.42708495 25.1780394 9.5127487 25.2008111 9.67697948z"/>
      <path stroke="#FFF" stroke-linecap="round" stroke-linejoin="round" stroke-width=".866" d="M26.70503,8.53863338 C26.7742698,9.82884776 26.4284242,10.7077297 26.3848236,12.0815159 C26.3202297,14.0777745 27.3321177,16.3626822 25.8074069,18.6504696"/>
    </g>
  </g>
</svg>
