<svg xmlns="http://www.w3.org/2000/svg" width="72" height="72" viewBox="0 0 72 72">
  <g fill="none">
    <rect width="72" height="72"/>
    <path fill="#FFD76C" d="M25.5520382,17.123106 L36.5520382,17.123106 C37.104323,17.123106 37.5520382,17.5708213 37.5520382,18.123106 L37.5520382,69.9809704 C37.5520382,72.7423941 35.3134619,74.9809704 32.5520382,74.9809704 L29.5520382,74.9809704 C26.7906145,74.9809704 24.5520382,72.7423941 24.5520382,69.9809704 L24.5520382,18.123106 C24.5520382,17.5708213 24.9997535,17.123106 25.5520382,17.123106 Z" transform="rotate(45 31.052 46.052)"/>
    <polygon fill="#053157" points="36.449 13.182 33.2 16 34.876 12.039 31.192 9.82 35.477 10.19 36.449 6 37.421 10.19 41.706 9.82 38.022 12.039 39.698 16"/>
    <polygon fill="#053157" points="68.853 21.898 67.09 23.427 67.999 21.277 66 20.073 68.326 20.274 68.853 18 69.381 20.274 71.706 20.073 69.707 21.277 70.617 23.427"/>
    <polygon fill="#053157" points="31 4.732 29.764 5.804 30.402 4.297 29 3.453 30.63 3.594 31 2 31.37 3.594 33 3.453 31.598 4.297 32.236 5.804"/>
    <polygon fill="#053157" points="47 6.732 45.764 7.804 46.402 6.297 45 5.453 46.63 5.594 47 4 47.37 5.594 49 5.453 47.598 6.297 48.236 7.804"/>
    <polygon fill="#053157" points="64 30.732 62.764 31.804 63.402 30.297 62 29.453 63.63 29.594 64 28 64.37 29.594 66 29.453 64.598 30.297 65.236 31.804"/>
    <path stroke="#053157" stroke-linecap="square" stroke-linejoin="round" stroke-width="2" d="M32.5520382,-2.77638892 L37.5520382,-2.77638892 C39.7611772,-2.77638892 41.5520382,-0.985527924 41.5520382,1.22361108 L41.5520382,70.8804653 C41.5520382,73.0896043 39.7611772,74.8804653 37.5520382,74.8804653 L32.5520382,74.8804653 C30.3428992,74.8804653 28.5520382,73.0896043 28.5520382,70.8804653 L28.5520382,1.22361108 C28.5520382,-0.985527924 30.3428992,-2.77638892 32.5520382,-2.77638892 Z" transform="rotate(45 35.052 36.052)"/>
    <path stroke="#053157" stroke-linecap="round" stroke-linejoin="round" stroke-width="2" d="M6 47L15 38M6 41L15 32M48 42L57 33"/>
    <path stroke="#053157" stroke-linecap="square" stroke-linejoin="round" stroke-width="2" d="M43,19 L51.5146932,27.5146932"/>
  </g>
</svg>
