<svg xmlns="http://www.w3.org/2000/svg" width="198" height="61" viewBox="0 0 198 61">
  <g fill="none">
    <rect width="198" height="61"/>
    <g transform="translate(34.904 5.719)">
      <g fill="#000" transform="translate(55.212 27.958)">
        <path d="M0.0532706345,0.235339506 L3.90496912,0.235339506 C5.77175744,0.235339506 6.95760809,1.35320216 6.95760809,3.26886574 C6.95760809,4.59147377 6.50828186,5.97997685 5.12324537,6.32827932 L5.12324537,6.35416667 C6.15623245,6.47183642 6.74452555,7.3378858 6.80706064,8.37102623 L6.90665357,10.4396605 C6.97382089,11.7787423 7.18921954,12.1176312 7.54126895,12.3364969 L5.77407355,12.3364969 C5.52393318,12.0823302 5.40812746,11.1833333 5.37338574,10.5902778 L5.27379281,8.70756173 C5.15798709,7.04606481 4.25701853,6.94486883 3.50659742,6.94486883 L1.52168725,6.94486883 L1.52168725,12.3341435 L0.0532706345,12.3341435 L0.0532706345,0.235339506 Z M1.52168725,5.72581019 L2.97157496,5.72581019 C3.8378018,5.72581019 5.42202414,5.72581019 5.42202414,3.38653549 C5.42202414,2.20983796 4.63917743,1.45439815 3.27035373,1.45439815 L1.51937114,1.45439815 L1.52168725,5.72581019 Z"/>
        <polygon points="9.125 .235 15.286 .235 15.286 1.558 10.592 1.558 10.592 5.354 15.011 5.354 15.011 6.677 10.592 6.677 10.592 11.014 15.479 11.014 15.479 12.336 9.125 12.336"/>
        <path d="M17.4125491.235339506L20.5972066.235339506C24.3029899.235339506 24.7662128 2.94645062 24.7662128 6.28591821 24.7662128 9.34533179 24.0157917 12.3364969 20.7477541 12.3364969L17.4125491 12.3364969 17.4125491.235339506zM18.8809657 11.1150849L20.4142336 11.1150849C22.950379 11.1150849 23.232945 8.47222222 23.232945 6.30239198 23.232945 3.96311728 23.0823975 1.45675154 20.4142336 1.45675154L18.8809657 1.45675154 18.8809657 11.1150849zM32.0040707 3.37476852C32.0040707 2.10393519 31.5547445 1.22376543 30.1511791 1.22376543 28.9166901 1.22376543 28.1824818 1.90154321 28.1824818 3.18885031 28.1824818 6.59421296 33.8036917 4.56087963 33.8036917 8.98526235 33.8036917 11.7810957 31.786356 12.5788966 30.0979085 12.5788966 27.318571 12.5788966 26.4963504 11.1221451 26.4963504 8.54517747L27.964767 8.54517747C27.964767 9.90073302 28.0481471 11.3692515 30.1998175 11.3692515 30.7594171 11.3876409 31.3011103 11.1675291 31.6939227 10.7621365 32.0867351 10.3567439 32.294908 9.80297436 32.2681078 9.23472222 32.2681078 5.81053241 26.6468978 7.79444444 26.6468978 3.35123457 26.6468978 2.23337191 27.1101207.0117669753 30.1210696.0117669753 32.3885458.0117669753 33.423849 1.16493056 33.4562746 3.3841821L32.0040707 3.37476852z"/>
        <polygon points="42.728 12.339 41.259 12.339 41.259 6.509 37.174 6.509 37.174 12.339 35.705 12.339 35.705 .235 37.174 .235 37.174 5.177 41.259 5.177 41.259 .235 42.728 .235"/>
        <polygon points="45.079 .235 46.554 .235 46.554 12.334 45.085 12.334"/>
        <polygon points="48.895 .235 55.049 .235 55.049 1.558 50.364 1.558 50.364 5.354 54.783 5.354 54.783 6.677 50.364 6.677 50.364 12.325 48.895 12.325"/>
        <polygon points="60.337 12.339 58.869 12.339 58.869 1.56 55.883 1.56 55.883 .235 63.339 .235 63.339 1.558 60.328 1.558"/>
      </g>
      <polygon fill="#205B98" points="41.358 7.091 22.49 11.704 22.49 38.267 41.358 42.878"/>
      <polygon fill="#5294CF" points="44.977 41.057 41.347 42.892 41.347 7.091 44.977 8.926"/>
      <polygon fill="#5294CF" points="3.625 7.091 22.49 11.704 22.49 38.267 3.625 42.878"/>
      <polygon fill="#205B98" points="0 41.057 3.625 42.892 3.625 7.091 0 8.926"/>
      <polygon fill="#5294CF" points="34.484 3.619 27.317 0 25.068 23.817 27.317 50.079 34.484 46.465"/>
      <polygon fill="#205B98" points="10.493 3.619 17.663 0 19.909 23.735 17.663 50.079 10.493 46.465"/>
      <polygon fill="#2D72B8" points="17.663 0 27.323 0 27.323 50.079 17.663 50.079"/>
      <path fill="#201C1D" d="M60.0288696,10.8054363 C57.8806691,10.8054363 55.5069541,11.6380482 54.9885031,14.3591543 C54.96422,14.4594663 54.9813536,14.5653347 55.0360358,14.6528577 C55.090718,14.7403808 55.1783382,14.8021791 55.2791146,14.8243007 L55.3163129,14.8243007 L57.5203108,15.0894341 C57.727587,15.0290632 57.8710466,14.8402323 57.8736945,14.6242877 C58.0459653,13.7710979 58.826433,13.1798023 59.6940852,13.2451288 C60.1844798,13.2234618 60.6546771,13.4421564 60.9541768,13.8312132 C61.2111444,14.3503273 61.3136293,14.932361 61.2494381,15.5080658 L61.2494381,15.8336682 C59.7978092,15.8949382 58.3622152,16.161958 56.9855856,16.6267427 C55.4792595,17.2660665 54.522506,18.7678332 54.579322,20.403731 C54.579322,22.8178405 56.0858523,24.0202438 57.9550657,24.0202438 C59.3994336,24.1079207 60.7951459,23.4823602 61.6911677,22.345717 C62.0180822,22.9191676 62.4448226,23.4295506 62.9512593,23.8527911 C63.1235613,23.9455021 63.3354449,23.9204016 63.4813348,23.7899964 C63.9463132,23.3736904 64.7414264,22.6271305 65.2133795,22.2340819 C65.3868832,22.0598386 65.3868832,21.7780518 65.2133795,21.6038086 C64.6726682,21.020929 64.3691858,20.2569721 64.362469,19.4618097 L64.362469,15.9546063 C64.362469,14.4475321 64.4880131,13.0125557 63.3929889,11.952022 C62.447975,11.1738974 61.2522115,10.7663478 60.0288696,10.8054363 Z M89.6363735,10.8054363 C87.488173,10.8054363 85.1144579,11.6380482 84.5960069,14.3591543 C84.5717238,14.4594663 84.5888575,14.5653347 84.6435396,14.6528577 C84.6982218,14.7403808 84.785842,14.8021791 84.8866185,14.8243007 L84.9238167,14.8243007 L87.1278147,15.0894341 C87.3470618,15.040534 87.5050945,14.84891 87.5114219,14.6242877 C87.6836927,13.7710979 88.4641604,13.1798023 89.3318126,13.2451288 C89.8222073,13.2234618 90.2924045,13.4421564 90.5919042,13.8312132 C90.8385267,14.3533714 90.9304988,14.9352645 90.856942,15.5080658 L90.856942,15.8336682 C89.4151973,15.8951501 87.9896082,16.1622019 86.623313,16.6267427 C85.1153569,17.2666792 84.1582744,18.7708125 84.2170495,20.4083825 C84.2170495,22.822492 85.7235797,24.0248953 87.5927931,24.0248953 C89.0387889,24.1122508 90.4357037,23.4848026 91.33122,22.345717 C91.6576796,22.9194837 92.0844835,23.4299427 92.5913116,23.8527911 C92.7636136,23.9455021 92.9754973,23.9204016 93.1213871,23.7899964 C93.5863656,23.3736904 94.3814787,22.6271305 94.8534319,22.2340819 C95.0174002,22.0560067 95.0174002,21.7818838 94.8534319,21.6038086 C94.3127206,21.020929 94.0092381,20.2569721 94.0025213,19.4618097 L94.0025213,15.9546063 C94.0025213,14.4475321 94.1024917,13.0125557 93.0074674,11.952022 C92.065342,11.168728 90.8675573,10.7604896 89.6433482,10.8054363 L89.6363735,10.8054363 Z M72.9808448,10.9240486 C71.6064013,10.8934878 70.3845046,11.794711 70.0073075,13.1172136 L70.0073075,11.5682763 C69.9926257,11.3447227 69.8146246,11.1666574 69.5911518,11.1519703 L67.4987487,11.1519703 C67.2612168,11.1580817 67.0701031,11.3492644 67.0639938,11.5868821 L67.0639938,23.4923027 C67.086105,23.7124107 67.260121,23.8864896 67.4801496,23.9086087 L69.7422698,23.9086087 C69.9798018,23.9024973 70.1709155,23.7113146 70.1770247,23.4736969 L70.1770247,17.1709639 C70.1770247,15.791805 70.1072779,13.9149396 71.7323776,13.9149396 C73.3574774,13.9149396 73.1110388,15.8569255 73.1110388,17.1709639 L73.1110388,23.4736969 C73.1246207,23.7010339 73.3007501,23.8851014 73.5271945,23.9086087 L75.7893148,23.9086087 C76.0268467,23.9024973 76.2179604,23.7113146 76.2240696,23.4736969 L76.2240696,17.1709639 C76.1719444,16.4107029 76.2402077,15.6469772 76.4263353,14.908027 C76.6257293,14.3341941 77.1500434,13.9362317 77.7561737,13.8986594 C78.3953643,13.8245168 78.9758784,14.2768809 79.0604383,14.9150042 C79.1355804,15.6668348 79.1565585,16.423099 79.1232104,17.1779411 L79.1232104,23.4806741 C79.1367923,23.7080111 79.3129216,23.8920786 79.5393661,23.9155859 L81.8014863,23.9155859 C82.0390183,23.9094745 82.230132,23.7182918 82.2362412,23.4806741 L82.2362412,15.9173946 C82.2362412,14.656848 82.3617854,13.1893113 81.6503683,12.1799437 C80.906902,11.2485491 79.7186425,10.7913218 78.5428749,10.9842192 C77.3671073,11.1771166 76.387085,11.9900741 75.9799559,13.1102364 C75.2824882,11.6240938 74.3990291,10.9356772 72.9878195,10.9356772 L72.9808448,10.9240486 Z M111.450838,10.9240486 C108.195989,10.9240486 106.366299,13.798653 106.366299,17.5035436 C106.366299,21.2084342 108.161116,24.1458333 111.450838,24.1458333 C114.601067,24.1458333 116.616749,21.2526231 116.616749,17.6175044 C116.616749,13.8754021 114.784734,10.9240486 111.406665,10.9240486 L111.450838,10.9240486 Z M124.351666,10.9240486 C122.789338,10.9240486 121.901229,11.6799114 121.264209,13.3311809 L121.264209,11.5171102 C121.213126,11.32888 121.04302,11.19769 120.848053,11.1961592 L118.75565,11.1961592 C118.532962,11.1913405 118.343843,11.3582705 118.320895,11.5799049 L118.320895,23.4736969 C118.334477,23.7010339 118.510606,23.8851014 118.737051,23.9086087 L120.999171,23.9086087 C121.236703,23.9024973 121.427817,23.7113146 121.433926,23.4736969 L121.433926,17.0709575 C121.401295,16.2980524 121.53201,15.526954 121.817533,14.8080205 C122.003941,14.2805865 122.477219,13.907621 123.033452,13.8498191 C124.595779,13.8498191 124.444661,15.7406389 124.444661,17.0500259 L124.444661,23.5085828 C124.474225,23.7193693 124.648401,23.8799813 124.860817,23.8923286 L127.122937,23.8923286 C127.342479,23.8887872 127.526844,23.7260533 127.557692,23.5085828 L127.557692,16.0360069 C127.557692,14.873141 127.557692,13.2823405 126.971819,12.3311163 C126.411297,11.4187211 125.40285,10.8792073 124.333067,10.9193971 L124.351666,10.9240486 Z M97.1945985,11.128713 C96.964762,11.128713 96.7784427,11.3150995 96.7784427,11.545019 L96.7784427,13.252106 C96.7678562,13.4795268 96.9418547,13.6732736 97.1690246,13.6870179 L101.067869,13.6870179 L96.6505737,20.2339526 C96.4382322,20.5841274 96.32941,20.9873182 96.3367132,21.3968185 L96.3367132,23.1294886 C96.3303056,23.2613743 96.3909183,23.3875755 96.4978487,23.4649873 C96.604779,23.542399 96.7435595,23.5605476 96.8667886,23.5132343 C99.3180079,22.2083384 102.257431,22.2083384 104.70865,23.5132343 C104.835231,23.5635625 104.978547,23.5475804 105.090941,23.4706026 C105.203334,23.3936248 105.270068,23.2657449 105.26895,23.1294886 L105.26895,21.3247208 C105.255426,21.0583581 105.102578,20.8188405 104.866743,20.6944475 C103.568251,19.9987408 102.104052,19.6721733 100.633114,19.7502004 L104.483136,14.0777408 C104.75695,13.7785002 104.949813,13.4142499 105.043435,13.0195329 L105.043435,11.5682763 C105.054021,11.3408555 104.880023,11.1471087 104.652853,11.1333644 L97.1945985,11.1333644 L97.1945985,11.128713 Z M111.443864,13.3916499 C112.161699,13.344215 112.804597,13.8335102 112.950394,14.5382357 C113.205822,15.5698005 113.313841,16.6323687 113.271229,17.6942536 C113.271229,19.2013277 113.194507,21.7456782 111.450838,21.7456782 C109.707169,21.7456782 109.686245,18.5943118 109.686245,17.1639868 C109.686245,15.7336618 109.762966,13.382347 111.399691,13.382347 L111.443864,13.3916499 Z M61.2261892,17.708208 L61.2261892,18.2059146 C61.3125038,19.0479252 61.168669,19.8975806 60.8100335,20.664213 C60.526802,21.2772892 59.9287361,21.6841924 59.2546805,21.7224209 C58.3851708,21.7224209 57.8760193,21.0247014 57.8760193,20.0153338 C57.8504455,18.0617192 59.6080641,17.7151852 61.2331639,17.7151852 L61.2261892,17.708208 Z M90.833693,17.708208 L90.833693,18.2059146 C90.9223889,19.0517719 90.7784944,19.9058006 90.4175373,20.6758416 C90.1355369,21.2899608 89.5367571,21.6973497 88.8621843,21.7340496 C87.9926746,21.7340496 87.4835232,21.03633 87.4835232,20.0269625 C87.4835232,18.054742 89.1969688,17.7012308 90.8220686,17.7012308 L90.833693,17.708208 Z"/>
    </g>
  </g>
</svg>
