<svg xmlns="http://www.w3.org/2000/svg" width="72" height="72" viewBox="0 0 72 72">
  <g fill="none">
    <rect width="72" height="72"/>
    <path fill="#65AD48" d="M39,35.3076923 C45.0751322,35.3076923 50,30.3828246 50,24.3076923 C50,20.5492852 46.8424508,14.9350658 40.5273525,7.46503423 L40.5273591,7.46502865 C39.814243,6.62149463 38.5523286,6.51577007 37.7087946,7.22888623 C37.6236349,7.30087947 37.5446455,7.37986887 37.4726523,7.46502856 C31.1575508,14.935063 28,20.5492842 28,24.3076923 C28,30.3828246 32.9248678,35.3076923 39,35.3076923 Z"/>
    <path fill="#65AD48" d="M17.2931357,58.6836284 C21.9703736,58.6836284 25.7620242,54.8919779 25.7620242,50.21474 C25.7620242,47.3933753 23.4508793,43.2136626 18.8285895,37.6756018 L18.8285881,37.6756029 C18.1208066,36.8275953 16.8595903,36.7139196 16.0115827,37.4217011 C15.9195072,37.4985511 15.8345308,37.5835274 15.7576808,37.675603 C11.1353917,43.2136632 8.82424716,47.3933756 8.82424716,50.21474 C8.82424716,54.8919779 12.6158977,58.6836284 17.2931357,58.6836284 Z" transform="rotate(-66 17.293 47.283)"/>
    <path fill="#65AD48" d="M58.7839996,55.3731338 C63.9201539,55.3731338 68.0838295,51.2094582 68.0838295,46.0733039 C68.0838295,42.9555645 65.6261279,38.1839078 60.7107245,31.7583336 L60.7107176,31.7583389 C60.0396007,30.8810332 58.7843562,30.7138842 57.9070505,31.3850011 C57.7897651,31.4747215 57.6827769,31.5771553 57.5880424,31.6904294 C52.1854606,38.1503004 49.4841696,42.9445919 49.4841696,46.0733039 C49.4841696,51.2094582 53.6478453,55.3731338 58.7839996,55.3731338 Z" transform="rotate(66 58.784 42.595)"/>
    <path stroke="#053157" stroke-linecap="round" stroke-linejoin="round" stroke-width="2" d="M28 69L44 69M36 69L36 14M36 65C30.8388672 52.0742188 22.367449 45.8692818 11 42"/>
    <path stroke="#053157" stroke-linecap="round" stroke-linejoin="round" stroke-width="2" d="M59,55 C52.079583,42.7580886 44.0676539,40.1335476 36,38" transform="matrix(-1 0 0 1 95 0)"/>
    <path stroke="#053157" stroke-linecap="square" stroke-linejoin="round" stroke-width="2" d="M36,32.3076923 C42.0751322,32.3076923 47,27.3828246 47,21.3076923 C47,17.2576041 43.3333333,11.0524759 36,2.69230769 C28.6666667,11.0524759 25,17.2576041 25,21.3076923 C25,27.3828246 29.9248678,32.3076923 36,32.3076923 Z"/>
    <path stroke="#053157" stroke-linecap="square" stroke-linejoin="round" stroke-width="2" d="M14.2931357,55.6836284 C18.9703736,55.6836284 22.7620242,51.8919779 22.7620242,47.21474 C22.7620242,44.0965813 19.9390613,39.3192596 14.2931357,32.8827748 C8.64720999,39.3192596 5.82424716,44.0965813 5.82424716,47.21474 C5.82424716,51.8919779 9.61589769,55.6836284 14.2931357,55.6836284 Z" transform="rotate(-66 14.293 44.283)"/>
    <path stroke="#053157" stroke-linecap="square" stroke-linejoin="round" stroke-width="2" d="M55.7839996,52.3731338 C60.9201539,52.3731338 65.0838295,48.2094582 65.0838295,43.0733039 C65.0838295,39.6492011 62.1193862,34.2301676 56.1904995,26.8162034 C49.7196129,34.2301676 46.4841696,39.6492011 46.4841696,43.0733039 C46.4841696,48.2094582 50.6478453,52.3731338 55.7839996,52.3731338 Z" transform="rotate(66 55.784 39.595)"/>
  </g>
</svg>
