<svg xmlns="http://www.w3.org/2000/svg" width="198" height="61" viewBox="0 0 198 61">
  <g fill="none">
    <rect width="198" height="61"/>
    <path fill="#31BEF0" d="M64.5343412 36.5167573C65.4036529 36.909205 66.4311203 37.1449833 67.379432 37.1449833 68.5648994 37.2236276 69.8290552 36.8311799 70.7775227 36.1243096 71.7258343 35.4959289 72.2793018 34.3969205 72.2793018 33.2976025 72.2793018 30.7065188 69.9875227 30.1570921 67.6165878 29.371887 66.0361203 28.8219958 64.2973412 28.4295481 64.2973412 27.0949163 64.2973412 25.4460167 66.3521203 24.7393013 67.4582761 24.7393013 70.1455227 24.7393013 70.7775227 26.8592929 71.4888343 26.2312218 72.1999901 25.6031506 69.5920552 23.5614937 67.6165878 23.5614937 66.4311203 23.483159 65.2456529 23.7969623 64.2973412 24.4254979 63.3490296 24.9749247 62.7168738 25.9957531 62.7957179 27.173251 62.7168738 29.9216234 66.1149645 30.3927155 67.6165878 30.9421423 69.1178994 31.4918787 70.7775227 32.0417699 70.8566785 33.3764017 70.8566785 35.2609247 68.4857436 35.888841 67.4582761 35.888841 64.4553412 35.888841 63.5860296 34.1612971 63.0327179 34.7111883 62.4797179 35.2607699 63.1117179 35.8101967 64.5343412 36.5167573zM84.7653531 36.5167573C84.8441972 36.909205 85.1605089 37.1449833 85.4766647 37.1449833 85.7925089 37.1449833 86.0299763 36.8311799 86.1088205 36.5167573L86.1088205 29.1361088C86.1088205 26.0739331 83.6587298 23.6399833 80.5769507 23.6399833 78.9173274 23.6399833 77.33686 24.3466987 76.3093925 25.6031506L76.3093925 24.2680544C76.3093925 23.8756067 75.9935483 23.6399833 75.6772367 23.6399833 75.3610809 23.6399833 75.0447692 23.9540962 75.0447692 24.2680544L75.0447692 36.6737364C75.0447692 36.6737364 75.0447692 36.6737364 75.0447692 36.7523808L75.0447692 36.8311799C75.1242367 36.988159 75.2822367 37.1449833 75.518925 37.2236276L75.7562367 37.2236276C75.9933925 37.2236276 76.1513925 37.1449833 76.2300809 36.988159 76.3092367 36.9093598 76.3883925 36.8311799 76.3883925 36.6738912L76.3883925 29.1361088C76.3883925 26.8592929 78.2850158 24.9747699 80.6556391 24.9747699 82.9477298 24.9747699 84.8440414 26.8592929 84.8440414 29.1361088L84.7653531 36.5167573zM88.5585996 30.3927155C88.7169112 33.9256736 91.7986903 36.6737364 95.3550927 36.4385774 98.9114951 36.2812887 101.677274 33.219113 101.440118 29.6861548 101.282118 26.2313766 98.4371834 23.5614937 94.9599369 23.5614937 91.4036903 23.718318 88.4797554 26.7023138 88.5585996 30.3927155zM129.336935 19.164841L129.257779 19.164841C128.625156 19.0861967 127.993156 19.2431757 127.519 19.7142678 127.045156 20.4209833 126.886844 21.2058787 126.966 21.9912385L126.966 23.4045146 128.862623 23.4045146C129.257779 23.4045146 129.494935 23.6399833 129.573623 24.0325858 129.573623 24.4254979 129.257779 24.7393013 128.862623 24.7393013L126.966 24.7393013 126.966 36.5167573C126.966 36.909205 126.729 37.1449833 126.333533 37.2234728 125.938533 37.2234728 125.622533 36.9880042 125.622533 36.5952469 125.622533 36.5952469 125.622533 36.5952469 125.622533 36.5166025L125.622533 24.7391464 123.804442 24.7391464C123.409442 24.7391464 123.093442 24.4253431 123.093442 24.032431 123.093442 23.6399833 123.409286 23.4043598 123.725598 23.4043598L125.543377 23.4043598 125.543377 21.9910837C125.464065 20.8917657 125.780377 19.714113 126.412533 18.8504184 127.123688 18.1433933 128.151156 17.7509456 129.099156 17.82959L129.494623 17.82959C129.889623 17.82959 130.205779 18.1433933 130.205779 18.5361506 130.205779 18.9287531 129.889623 19.2428661 129.494623 19.2428661L129.336935 19.164841zM89.9023787 29.8429791C90.0603787 27.016272 92.510002 24.7393013 95.3550927 24.8962803 98.2001834 25.053569 100.333495 27.6443431 100.175495 30.4710502 100.017495 33.1407782 97.5680276 35.2606151 94.8809369 35.2606151 91.957002 35.1034812 89.8230671 32.7480209 89.9023787 29.8429791zM108.236144 37.1449833C108.473144 37.1449833 108.710611 36.9880042 108.789456 36.7523808 108.789456 36.7523808 108.789456 36.7523808 108.789456 36.6737364L111.950546 29.2149079 115.111793 36.7523808C115.190637 36.9880042 115.427637 37.1449833 115.66526 37.2236276L115.744105 37.2236276C115.902105 37.2236276 116.06026 37.1449833 116.139416 37.0666485 116.21826 36.9880042 116.297416 36.909205 116.37626 36.7523808L120.96013 24.582477C121.11813 24.2682092 120.96013 23.8757615 120.564663 23.7184728 120.248819 23.5614937 119.853507 23.7184728 119.695507 24.1112301L115.74426 34.8680126 112.58317 27.4090293C112.424858 27.173251 112.18817 27.016272 111.950702 27.016272 111.713858 27.016272 111.397702 27.173251 111.318546 27.4090293L108.157456 34.8680126 104.206209 24.1112301C104.048209 23.7971172 103.652742 23.6401381 103.336586 23.7184728 103.020742 23.8757615 102.862742 24.2682092 103.020742 24.582477L107.6043 36.7523808C107.683456 36.9093598 107.7623 36.9880042 107.8413 37.0666485L107.920456 37.1449833C108.0783 37.0666485 108.157456 37.0666485 108.236144 37.1449833zM132.972026 36.4384226C132.972026 36.8310251 133.28787 37.1448285 133.683181 37.1448285 134.078181 37.1448285 134.394493 36.8310251 134.394493 36.4384226L134.394493 18.3794812C134.394493 17.9867238 134.078181 17.6729205 133.683181 17.6729205 133.28787 17.6729205 132.972026 17.9867238 132.972026 18.3794812L132.972026 36.4384226zM149.251947 23.5614937C148.856947 23.5614937 148.619323 23.8756067 148.540635 24.1895649L148.540635 26.1527322C147.355323 24.5039874 145.458544 23.4833138 143.403765 23.4833138 139.610363 23.6402929 136.686584 26.8596025 136.923584 30.6280293 137.081584 34.1612971 139.926519 36.9093598 143.403765 37.0668033 145.458544 37.0668033 147.355168 36.0458201 148.540635 34.3970753L148.540635 36.4387322C148.619479 36.8313347 148.935791 37.0669582 149.251947 37.0669582 149.567791 37.0669582 149.804947 36.7526904 149.884103 36.4387322L149.884103 24.1897197C149.884103 23.8756067 149.567791 23.5614937 149.251947 23.5614937zM143.878077 35.888841C140.795986 36.1243096 138.346051 33.7688494 138.109051 30.7065188 137.872051 27.6441883 140.00583 25.1320586 143.008454 24.8962803 146.090544 24.6608117 148.382635 26.9379372 148.540635 29.9999582 148.540635 30.1572469 148.540635 30.3140711 148.540635 30.3927155 148.619479 33.2977573 146.3277 35.7315523 143.403765 35.8101967L143.878077 35.8101967 143.878077 35.888841zM152.966193 36.4384226C152.966193 36.8310251 153.282037 37.1448285 153.677349 37.1448285 154.072505 37.1448285 154.388661 36.8310251 154.388661 36.4384226L154.388661 33.2976025 157.154596 30.5495397 162.37031 36.8310251C162.449465 36.9880042 162.686465 37.0664937 162.923621 37.0664937 163.318621 37.0664937 163.555777 36.8310251 163.634777 36.4382678 163.634777 36.2809791 163.555621 36.0455105 163.476465 35.9671757L158.181751 29.6072008 163.476465 24.5821674C163.713465 24.2678996 163.713465 23.8754519 163.397621 23.6398285 163.160621 23.4043598 162.765465 23.4043598 162.528154 23.6398285L154.388661 31.491569 154.388661 18.3793264C154.388661 17.986569 154.072505 17.6727657 153.677349 17.6727657 153.282037 17.6727657 152.966193 17.986569 152.966193 18.3793264L152.966193 36.4384226zM177.464607 33.7686946C177.622607 33.4545816 177.543763 33.0621339 177.227607 32.8265105 176.911452 32.6695314 176.516296 32.7478661 176.358296 33.0619791 175.48914 34.6323891 173.829517 35.7313975 171.932893 35.8100418L171.30027 35.8100418C168.455491 35.7313975 166.084556 33.4544268 166.084556 30.6277197L177.306763 30.6277197C177.622607 30.6277197 177.938919 30.3924059 177.938919 30.0782929L177.938919 29.9213138C177.543919 26.3092469 174.303828 23.6398285 170.66827 24.0322762 167.033179 24.4251883 164.346089 27.6440335 164.7414 31.2559456 165.057556 34.6322343 167.902647 37.1446736 171.300426 37.223318L171.933049 37.223318C174.303673 36.9880042 176.358296 35.7315523 177.464607 33.7686946zM171.379426 25.2103933C173.908205 25.2103933 176.121296 26.7806485 176.516296 29.2930879L166.163556 29.2930879C166.638024 26.7806485 168.771647 25.2103933 171.379426 25.2103933zM36.0664497 25.0521757C36.5373333 24.5846444 36.7732426 24.0384686 36.7732426 23.3363975L36.7732426 14.3653682C36.7732426 13.117431 35.7523195 12.1034142 34.4961105 12.1034142 33.2397456 12.1034142 32.2191341 13.117431 32.2191341 14.3653682L32.2191341 19.514251 27.8224024 16.9397322C26.7232584 16.2379707 25.3098284 16.5497615 24.6820355 17.6418033 23.9753984 18.7341548 24.289217 20.1381423 25.3883609 20.7621883 25.4668935 20.7621883 25.4668935 20.8400586 25.5457377 20.8400586L33.3971223 25.364431C34.1821361 25.9104519 35.3598126 25.7547113 36.0664497 25.0521757zM32.6903294 30.5128494C32.6903294 29.654728 32.2975108 28.8746318 31.5123412 28.4843515L23.6612682 23.9599791C22.5618126 23.2582176 21.1486943 23.5700084 20.5205897 24.6620502 19.8137968 25.7545565 20.1280828 27.1583891 21.2272268 27.7824351 21.3057594 27.7824351 21.3057594 27.8604603 21.3841361 27.8604603L25.8594004 30.4346695 21.3841361 33.0091883C20.2849921 33.6329247 19.8137968 34.9593515 20.4420572 36.1295732 21.0703176 37.2996402 22.4049034 37.6893013 23.5824241 37.0652552 23.6612682 37.0652552 23.6612682 37.0652552 23.7393333 37.0652552L31.5911854 32.5411925C32.2975108 32.1510669 32.6903294 31.3709707 32.6903294 30.5128494zM36.7732426 37.6115858L36.7732426 46.6604854C36.7732426 47.9085774 35.7523195 48.9224393 34.4961105 48.9224393 33.2397456 48.9224393 32.2191341 47.9084226 32.2191341 46.6604854L32.2191341 41.5899372 27.7438698 44.1643013C26.6447258 44.8660628 25.2312959 44.554272 24.603503 43.4622301 23.8967101 42.3700335 24.2106844 40.9658912 25.3098284 40.3418452 25.3882051 40.3418452 25.3882051 40.2638201 25.4667377 40.2638201L33.3185897 35.7394477C34.4177337 35.1152469 35.9095404 35.5053724 36.5374892 36.6754393 36.6943984 36.909205 36.8513077 37.2996402 36.7732426 37.6115858zM40.8556884 37.8456611L40.8556884 46.6603305C40.8556884 47.9084226 41.8762998 48.9222845 43.1326647 48.9222845 44.3887179 48.9222845 45.4093294 47.9082678 45.4093294 46.6603305L45.4093294 41.5897824 49.8060611 44.0861213C50.9052051 44.7878828 52.3186351 44.4760921 52.9467396 43.3840502 53.6535325 42.2915439 53.3392465 40.8877113 52.2401026 40.2636653 52.16157 40.2636653 52.16157 40.1856402 52.0831933 40.1856402L44.2316529 35.6612678C43.1325089 35.0370669 41.7190789 35.4271925 41.0909744 36.5193891 40.9342209 36.909205 40.7771558 37.4555356 40.8556884 37.8456611zM44.9386016 30.5128494C44.9386016 29.654728 45.3309527 28.8746318 46.1161223 28.4843515L53.9676627 23.9599791C55.0668067 23.2582176 56.4802367 23.5700084 57.1083412 24.6620502 57.8146667 25.7545565 57.5008481 27.1583891 56.4015483 27.7824351 56.3231716 27.7824351 56.3231716 27.8604603 56.2446391 27.8604603L51.7690631 30.4346695 56.2446391 33.0090335C57.343783 33.6327699 57.8146667 34.9591967 57.1867179 36.1294184 56.5586134 37.2214603 55.2235602 37.6891464 54.0460394 37.0651004 53.9676627 37.0651004 53.9676627 36.9870753 53.8891302 36.9870753L46.0377456 32.4627029C45.3309527 32.1510669 44.860069 31.3709707 44.9386016 30.5128494zM40.8556884 23.1803473L40.8556884 14.3653682C40.8556884 13.117431 41.8762998 12.1034142 43.1326647 12.1034142 44.3887179 12.1034142 45.4093294 13.117431 45.4093294 14.3653682L45.4093294 19.4359163 49.8060611 16.9395774C50.9052051 16.2378159 52.3186351 16.5496067 52.9467396 17.6416485 53.6535325 18.734 53.3392465 20.1379874 52.2401026 20.7620335 52.16157 20.7620335 52.16157 20.8399038 52.0831933 20.8399038L44.2316529 25.3642762C43.1325089 25.988477 41.7190789 25.5983515 41.0909744 24.5063096 40.9342209 24.1164937 40.7771558 23.6481883 40.8556884 23.1803473zM39.7565444 26.4564728L42.8183787 29.5768577C42.9754438 29.7325983 43.0541321 29.8886485 43.0541321 30.122569L43.0541321 30.9029749C43.0541321 31.0588703 42.9754438 31.2927908 42.8969112 31.448841L39.7565444 34.5692259C39.5996351 34.7251213 39.4422584 34.8031464 39.2068166 34.8031464L38.4216469 34.8031464C38.1862051 34.8031464 38.02914 34.7251213 37.8722308 34.5692259L34.7315523 31.448841C34.574643 31.2929456 34.4961105 31.1370502 34.4961105 30.9029749L34.4961105 30.122569C34.4961105 29.8888033 34.574643 29.7327531 34.7315523 29.5768577L37.8722308 26.4564728C38.02914 26.3007322 38.1862051 26.2223975 38.4216469 26.2223975L39.2068166 26.2223975C39.4422584 26.2223975 39.5996351 26.3007322 39.7565444 26.4564728zM39.2853491 29.1870418C39.2068166 29.1087071 39.0499073 29.030682 38.8928422 29.030682 38.7354655 29.030682 38.5785562 29.1087071 38.5003353 29.1870418L37.5579448 30.1227238C37.4794122 30.200749 37.4008797 30.3571088 37.4008797 30.5130042 37.4008797 30.6690544 37.4794122 30.8252594 37.5579448 30.9032845L38.5003353 31.8391213C38.5784004 31.9169916 38.7354655 31.9953264 38.8928422 31.9953264 39.0497515 31.9953264 39.2068166 31.9169916 39.2853491 31.8391213L40.227428 30.9032845C40.3058047 30.8252594 40.3846489 30.6690544 40.3846489 30.5130042 40.3846489 30.3571088 40.3058047 30.200749 40.227428 30.1227238L39.2853491 29.1870418z"/>
  </g>
</svg>
