<svg xmlns="http://www.w3.org/2000/svg" width="72" height="72" viewBox="0 0 72 72">
  <g fill="none">
    <rect width="72" height="72"/>
    <path fill="#8FD4FF" d="M65.680058,29.1035496 L65.8133154,29.1034036 C70.2941639,30.1517629 70,32.5126832 70,34 L70,46 C70,47.1358792 68.4218116,48.1980373 65.680058,49.1035496 L65.8133154,49.1034036 C70.2941639,50.1517629 70,52.5126832 70,54 L70,66 C70,69.3137085 56.5685425,72 40,72 C23.4314575,72 10,69.3137085 10,66 L10,54 C10,52.5394201 9.60942724,50.200733 13.9467601,49.1602432 L14.4919016,49.1596458 C11.6442804,48.2420309 10,47.1594197 10,46 L10,34 C10,32.5394201 9.60942724,30.200733 13.9467601,29.1602432 L14.4919016,29.1596458 C11.6442804,28.2420309 10,27.1594197 10,26 L10,14 C10,10.6862915 23.4314575,8 40,8 C56.5685425,8 70,10.6862915 70,14 L70,26 C70,27.1358792 68.4218116,28.1980373 65.680058,29.1035496 Z"/>
    <path stroke="#053157" stroke-linecap="round" stroke-linejoin="round" stroke-width="2" d="M61.8133154,45.1034036 C66.2941639,46.1517629 66,48.5126832 66,50 L66,62 C66,65.3137085 52.5685425,68 36,68 C19.4314575,68 6,65.3137085 6,62 L6,50 C6,48.5394201 5.60942724,46.200733 9.94676014,45.1602432"/>
    <path stroke="#053157" stroke-linecap="round" stroke-linejoin="round" stroke-width="2" d="M61.8133154 25.1034036C66.2941639 26.1517629 66 28.5126832 66 30L66 42C66 45.3137085 52.5685425 48 36 48 19.4314575 48 6 45.3137085 6 42L6 30C6 28.5394201 5.60942724 26.200733 9.94676014 25.1602432M9.50167808 12.8156426C14.5450027 14.7102242 24.5193931 16 36 16 47.3139231 16 57.165049 14.7474041 62.2755462 12.8977787"/>
    <path stroke="#053157" stroke-linecap="round" stroke-linejoin="round" stroke-width="2" d="M9.50167808 32.8156426C14.5450027 34.7102242 24.5193931 36 36 36 47.3139231 36 57.165049 34.7474041 62.2755462 32.8977787M9.50167808 52.8156426C14.5450027 54.7102242 24.5193931 56 36 56 47.3139231 56 57.165049 54.7474041 62.2755462 52.8977787"/>
    <path stroke="#053157" stroke-linecap="square" stroke-linejoin="round" stroke-width="2" d="M6,10 C6,6.6862915 19.4314575,4 36,4 C52.5685425,4 66,6.6862915 66,10 L66,22 C66,25.3137085 52.5685425,28 36,28 C19.4314575,28 6,25.3137085 6,22 L6,10 Z"/>
  </g>
</svg>
