<svg xmlns="http://www.w3.org/2000/svg" xmlns:xlink="http://www.w3.org/1999/xlink" width="72" height="72" viewBox="0 0 72 72">
  <defs>
    <rect id="sql-alerts-a" width="72" height="72"/>
  </defs>
  <g fill="none" fill-rule="evenodd">
    <mask id="sql-alerts-b" fill="#fff">
      <use xlink:href="#sql-alerts-a"/>
    </mask>
    <g fill-rule="nonzero" mask="url(#sql-alerts-b)">
      <g transform="rotate(30 20.946 33.387)">
        <path fill="#3499DF" d="M54.4641016,32.4641016 C57.7974349,34.9641016 59.4641016,37.4641016 59.4641016,39.9641016 C59.4641016,41.4641016 59.4641016,42.9641016 59.4641016,44.4641016 C59.4641016,46.1209559 58.1209559,47.4641016 56.4641016,47.4641016 L22.4641016,47.4641016 C20.8072474,47.4641016 19.4641016,46.1209559 19.4641016,44.4641016 C19.4641016,42.9641016 19.4641016,41.4641016 19.4641016,39.9641016 C19.4641016,37.4641016 21.1307683,34.9641016 24.4641016,32.4641016 L24.4641016,22.4641016 C24.4641016,14.1798304 31.1798304,7.46410162 39.4641016,7.46410162 C47.7483729,7.46410162 54.4641016,14.1798304 54.4641016,22.4641016 L54.4641016,32.4641016 Z M39.4641016,7.46410162 C37.8072474,7.46410162 36.4641016,6.12095586 36.4641016,4.46410162 C36.4641016,2.80724737 37.8072474,1.46410162 39.4641016,1.46410162 C41.1209559,1.46410162 42.4641016,2.80724737 42.4641016,4.46410162 C42.4641016,6.12095586 41.1209559,7.46410162 39.4641016,7.46410162 Z M45.9285677,47.6356745 L52.9996355,47.6356745 C53.9044576,48.5404965 54.4641016,49.7904965 54.4641016,51.1712084 C54.4641016,53.9326321 52.2255254,56.1712084 49.4641016,56.1712084 C46.7026779,56.1712084 44.4641016,53.9326321 44.4641016,51.1712084 C44.4641016,49.7904965 45.0237457,48.5404965 45.9285677,47.6356745 Z" opacity=".7"/>
        <path stroke="#292D36" stroke-linecap="square" stroke-linejoin="round" stroke-width="2" d="M49,31 C52.3333333,33.5 54,36 54,38.5 C54,40 54,41.5 54,43 C54,44.6568542 52.6568542,46 51,46 L17,46 C15.3431458,46 14,44.6568542 14,43 C14,41.5 14,40 14,38.5 C14,36 15.6666667,33.5 19,31 L19,21 C19,12.7157288 25.7157288,6 34,6 C42.2842712,6 49,12.7157288 49,21 L49,31 Z"/>
        <path stroke="#292D36" stroke-dasharray="1 3" stroke-linecap="round" stroke-linejoin="round" stroke-width="2" d="M.411542732 24.8038476L14.6110029 24.8038476M6.80865705 14.5442286L15.2090791 19.839746M5.78237761 34.7666605L14.5654856 30.169873M55.4641016 25.7141016L70.8472218 25.7141016M55.1961524 21.25L63.3778764 16.5249907M55.4641016 30.25L63.5836478 34.8813972"/>
        <path stroke="#292D36" stroke-linecap="round" stroke-linejoin="round" stroke-width="2" d="M23.5693037,17.4976711 C25.0319936,13.1396731 29.1493418,10 34,10 M23,30.6467285 C23,28.9193883 23,26.4961298 23,23.3769531"/>
        <circle cx="34" cy="3" r="3" stroke="#292D36" stroke-linecap="square" stroke-linejoin="round" stroke-width="2"/>
        <path stroke="#292D36" stroke-linecap="round" stroke-linejoin="round" stroke-width="2" d="M40.4644661,46.1715729 C39.5596441,47.0763949 39,48.3263949 39,49.7071068 C39,52.4685305 41.2385763,54.7071068 44,54.7071068 C46.7614237,54.7071068 49,52.4685305 49,49.7071068 C49,48.3263949 48.4403559,47.0763949 47.5355339,46.1715729"/>
      </g>
    </g>
  </g>
</svg>
