<svg xmlns="http://www.w3.org/2000/svg" width="72" height="72" viewBox="0 0 72 72">
  <g fill="none">
    <rect width="72" height="72"/>
    <path fill="#B2B75A" d="M40,52.076722 L29.8258936,57.4255663 C28.8482044,57.9395679 27.6389501,57.5636749 27.1249485,56.5859857 C26.9202704,56.1966647 26.849641,55.7507286 26.9239947,55.3172133 L28.8670761,43.9881794 L20.6360512,35.964913 C19.845084,35.1939105 19.8288994,33.927684 20.5999018,33.1367169 C20.906919,32.8217496 21.3092038,32.6167752 21.7444779,32.5535262 L33.1194747,30.9006424 L38.2065278,20.5931468 C38.6953724,19.6026395 39.8946241,19.1959615 40.8851314,19.6848061 C41.2795566,19.8794666 41.5988117,20.1987216 41.7934722,20.5931468 L46.8805253,30.9006424 L58.2555221,32.5535262 C59.3486118,32.7123614 60.1059747,33.7272471 59.9471395,34.8203369 C59.8838905,35.2556109 59.6789161,35.6578958 59.3639488,35.964913 L51.1329239,43.9881794 L53.0760053,55.3172133 C53.2627273,56.4058862 52.5315517,57.4397981 51.4428788,57.6265201 C51.0093635,57.7008738 50.5634273,57.6302444 50.1741064,57.4255663 L40,52.076722 Z" opacity=".78"/>
    <path fill="#053157" d="M36,11 C35.4477153,11 35,10.5522847 35,10 C35,9.44771525 35.4477153,9 36,9 C36.5522847,9 37,9.44771525 37,10 C37,10.5522847 36.5522847,11 36,11 Z M36,4 C35.4477153,4 35,3.55228475 35,3 C35,2.44771525 35.4477153,2 36,2 C36.5522847,2 37,2.44771525 37,3 C37,3.55228475 36.5522847,4 36,4 Z M50.9885239,15.8700666 C50.5417162,15.5454418 50.4426674,14.9200721 50.7672922,14.4732644 C51.091917,14.0264566 51.7172867,13.9274078 52.1640944,14.2520327 C52.6109022,14.5766575 52.709951,15.2020272 52.3853262,15.6488349 C52.0607013,16.0956426 51.4353317,16.1946915 50.9885239,15.8700666 Z M60.2519412,28.6200666 C60.0812758,28.0948126 60.3687267,27.5306585 60.8939807,27.3599931 C61.4192347,27.1893278 61.9833888,27.4767786 62.1540542,28.0020327 C62.3247196,28.5272867 62.0372687,29.0914408 61.5120147,29.2621062 C60.9867607,29.4327715 60.4226065,29.1453207 60.2519412,28.6200666 Z M60.2519412,44.3799334 C60.4226065,43.8546793 60.9867607,43.5672285 61.5120147,43.7378938 C62.0372687,43.9085592 62.3247196,44.4727133 62.1540542,44.9979673 C61.9833888,45.5232214 61.4192347,45.8106722 60.8939807,45.6400069 C60.3687267,45.4693415 60.0812758,44.9051874 60.2519412,44.3799334 Z M50.9885239,57.1299334 C51.4353317,56.8053085 52.0607013,56.9043574 52.3853262,57.3511651 C52.709951,57.7979728 52.6109022,58.4233425 52.1640944,58.7479673 C51.7172867,59.0725922 51.091917,58.9735434 50.7672922,58.5267356 C50.4426674,58.0799279 50.5417162,57.4545582 50.9885239,57.1299334 Z M36,62 C36.5522847,62 37,62.4477153 37,63 C37,63.5522847 36.5522847,64 36,64 C35.4477153,64 35,63.5522847 35,63 C35,62.4477153 35.4477153,62 36,62 Z M21.0114761,57.1299334 C21.4582838,57.4545582 21.5573326,58.0799279 21.2327078,58.5267356 C20.908083,58.9735434 20.2827133,59.0725922 19.8359056,58.7479673 C19.3890978,58.4233425 19.290049,57.7979728 19.6146738,57.3511651 C19.9392987,56.9043574 20.5646683,56.8053085 21.0114761,57.1299334 Z M11.7480588,44.3799334 C11.9187242,44.9051874 11.6312733,45.4693415 11.1060193,45.6400069 C10.5807653,45.8106722 10.0166112,45.5232214 9.8459458,44.9979673 C9.67528043,44.4727133 9.96273131,43.9085592 10.4879853,43.7378938 C11.0132393,43.5672285 11.5773935,43.8546793 11.7480588,44.3799334 Z M11.7480588,28.6200666 C11.5773935,29.1453207 11.0132393,29.4327715 10.4879853,29.2621062 C9.96273131,29.0914408 9.67528043,28.5272867 9.8459458,28.0020327 C10.0166112,27.4767786 10.5807653,27.1893278 11.1060193,27.3599931 C11.6312733,27.5306585 11.9187242,28.0948126 11.7480588,28.6200666 Z M21.0114761,15.8700666 C20.5646683,16.1946915 19.9392987,16.0956426 19.6146738,15.6488349 C19.290049,15.2020272 19.3890978,14.5766575 19.8359056,14.2520327 C20.2827133,13.9274078 20.908083,14.0264566 21.2327078,14.4732644 C21.5573326,14.9200721 21.4582838,15.5454418 21.0114761,15.8700666 Z M55.1030207,10.2069477 C54.656213,9.88232285 54.5571641,9.25695318 54.881789,8.81014544 C55.2064138,8.36333769 55.8317835,8.26428886 56.2785912,8.58891369 C56.725399,8.91353853 56.8244478,9.53890819 56.4998229,9.98571594 C56.1751981,10.4325237 55.5498284,10.5315725 55.1030207,10.2069477 Z M66.9093368,26.4569477 C66.7386714,25.9316937 67.0261223,25.3675395 67.5513763,25.1968742 C68.0766303,25.0262088 68.6407844,25.3136597 68.8114498,25.8389137 C68.9821152,26.3641677 68.6946643,26.9283218 68.1694103,27.0989872 C67.6441563,27.2696526 67.0800022,26.9822017 66.9093368,26.4569477 Z M66.9093368,46.5430523 C67.0800022,46.0177983 67.6441563,45.7303474 68.1694103,45.9010128 C68.6946643,46.0716782 68.9821152,46.6358323 68.8114498,47.1610863 C68.6407844,47.6863403 68.0766303,47.9737912 67.5513763,47.8031258 C67.0261223,47.6324605 66.7386714,47.0683063 66.9093368,46.5430523 Z M55.1030207,62.7930523 C55.5498284,62.4684275 56.1751981,62.5674763 56.4998229,63.0142841 C56.8244478,63.4610918 56.725399,64.0864615 56.2785912,64.4110863 C55.8317835,64.7357111 55.2064138,64.6366623 54.881789,64.1898546 C54.5571641,63.7430468 54.656213,63.1176771 55.1030207,62.7930523 Z M36,69 C36.5522847,69 37,69.4477153 37,70 C37,70.5522847 36.5522847,71 36,71 C35.4477153,71 35,70.5522847 35,70 C35,69.4477153 35.4477153,69 36,69 Z M16.8969793,62.7930523 C17.343787,63.1176771 17.4428359,63.7430468 17.118211,64.1898546 C16.7935862,64.6366623 16.1682165,64.7357111 15.7214088,64.4110863 C15.274601,64.0864615 15.1755522,63.4610918 15.5001771,63.0142841 C15.8248019,62.5674763 16.4501716,62.4684275 16.8969793,62.7930523 Z M5.09066322,46.5430523 C5.26132859,47.0683063 4.97387771,47.6324605 4.4486237,47.8031258 C3.92336969,47.9737912 3.35921556,47.6863403 3.18855019,47.1610863 C3.01788481,46.6358323 3.3053357,46.0716782 3.83058971,45.9010128 C4.35584372,45.7303474 4.91999785,46.0177983 5.09066322,46.5430523 Z M5.09066322,26.4569477 C4.91999785,26.9822017 4.35584372,27.2696526 3.83058971,27.0989872 C3.3053357,26.9283218 3.01788481,26.3641677 3.18855019,25.8389137 C3.35921556,25.3136597 3.92336969,25.0262088 4.4486237,25.1968742 C4.97387771,25.3675395 5.26132859,25.9316937 5.09066322,26.4569477 Z M16.8969793,10.2069477 C16.4501716,10.5315725 15.8248019,10.4325237 15.5001771,9.98571594 C15.1755522,9.53890819 15.274601,8.91353853 15.7214088,8.58891369 C16.1682165,8.26428886 16.7935862,8.36333769 17.118211,8.81014544 C17.4428359,9.25695318 17.343787,9.88232285 16.8969793,10.2069477 Z"/>
    <path stroke="#053157" stroke-linecap="square" stroke-linejoin="round" stroke-width="2" d="M36,48.076722 L25.8258936,53.4255663 C24.8482044,53.9395679 23.6389501,53.5636749 23.1249485,52.5859857 C22.9202704,52.1966647 22.849641,51.7507286 22.9239947,51.3172133 L24.8670761,39.9881794 L16.6360512,31.964913 C15.845084,31.1939105 15.8288994,29.927684 16.5999018,29.1367169 C16.906919,28.8217496 17.3092038,28.6167752 17.7444779,28.5535262 L29.1194747,26.9006424 L34.2065278,16.5931468 C34.6953724,15.6026395 35.8946241,15.1959615 36.8851314,15.6848061 C37.2795566,15.8794666 37.5988117,16.1987216 37.7934722,16.5931468 L42.8805253,26.9006424 L54.2555221,28.5535262 C55.3486118,28.7123614 56.1059747,29.7272471 55.9471395,30.8203369 C55.8838905,31.2556109 55.6789161,31.6578958 55.3639488,31.964913 L47.1329239,39.9881794 L49.0760053,51.3172133 C49.2627273,52.4058862 48.5315517,53.4397981 47.4428788,53.6265201 C47.0093635,53.7008738 46.5634273,53.6302444 46.1741064,53.4255663 L36,48.076722 Z"/>
  </g>
</svg>
