<svg xmlns="http://www.w3.org/2000/svg" width="72" height="72" viewBox="0 0 72 72">
  <g fill="none">
    <rect width="72" height="72"/>
    <path fill="#F79C47" d="M11,35 L18,35 L18,68 L11,68 C9.8954305,68 9,67.1045695 9,66 L9,37 C9,35.8954305 9.8954305,35 11,35 Z M22,35 L32.3071289,5.96142578 C35.6982084,5.4414422 37.9099597,6.71227554 38.9423828,9.77392578 C39.9748059,12.835576 40.393914,19.2442674 40.199707,29 L62.4584402,29.0000295 C65.5041906,29.0000295 67.9732591,31.469098 67.9732591,34.5148484 C67.9732591,35.2847662 67.812047,36.0461534 67.5,36.75 C67.1465195,37.547303 67.7320831,38.5302717 69.2566907,39.6989061 C69.4457243,43.4538008 69.3601607,45.7208321 69,46.5 C68.6398393,47.2791679 67.2282334,48.2510977 64.7651822,49.4157894 C64.9688445,53.1381742 64.8804504,55.4162444 64.5,56.25 C64.1195496,57.0837556 62.6861442,58.1407033 60.1997838,59.420843 L59.5417942,61.9870028 C58.634483,65.5255162 55.445467,68 51.7924832,68 L22,68 L22,35 Z" opacity=".8"/>
    <path stroke="#053157" stroke-linecap="square" stroke-linejoin="round" stroke-width="2" d="M7 31L14 31 14 64 7 64C5.8954305 64 5 63.1045695 5 62L5 33C5 31.8954305 5.8954305 31 7 31zM18 31L28.3071289 1.96142578C31.6982084 1.4414422 33.9099597 2.71227554 34.9423828 5.77392578 35.9748059 8.83557603 36.393914 15.2442674 36.199707 25L58.4584402 25.0000295C61.5041906 25.0000295 63.9732591 27.469098 63.9732591 30.5148484 63.9732591 31.2847662 63.812047 32.0461534 63.5 32.75 63.5 32.75 63.5 32.75 63.5 32.75 63.1465195 33.547303 63.7320831 34.5302717 65.2566907 35.6989061 65.4457243 39.4538008 65.3601607 41.7208321 65 42.5 64.6398393 43.2791679 63.2282334 44.2510977 60.7651822 45.4157894 60.9688445 49.1381742 60.8804504 51.4162444 60.5 52.25 60.1195496 53.0837556 58.6861442 54.1407033 56.1997838 55.420843L55.5417942 57.9870028C54.634483 61.5255162 51.445467 64 47.7924832 64L18 64 18 31z"/>
  </g>
</svg>
