<svg xmlns="http://www.w3.org/2000/svg" width="198" height="61" viewBox="0 0 198 61">
  <g fill="none">
    <rect width="198" height="61"/>
    <path fill="#000" d="M74.4619829,18.8549528 L74.4619829,22.6875 L60.2036053,22.6875 L48.6963254,43 L35,18.8549528 L39.4076728,18.8549528 L48.6667437,35.2169811 L57.9553963,18.8549528 L74.4619829,18.8549528 Z M74.4619829,32.4162736 L61.9193437,32.4162736 L61.9193437,38.1061321 L74.4619829,38.1061321 L74.4619829,41.9386792 L58.0737231,41.9386792 L58.0737231,28.5837264 L74.4619829,28.5837264 L74.4619829,32.4162736 Z M115.018489,18.8549528 L118.864109,18.8549528 L118.864109,41.9386792 L115.018489,41.9386792 L115.018489,18.8549528 Z M113.509822,18.8549528 L113.509822,22.6875 L105.611509,22.6875 L105.611509,41.9386792 L101.765889,41.9386792 L101.765889,22.6875 L96.5299284,22.6875 C95.9974578,21.1839623 95.0804252,19.8867925 93.8675757,18.9139151 L93.8675757,18.8549528 L113.509822,18.8549528 Z M92.9209614,41.9386792 L87.507511,32.0330189 L79.905015,32.0330189 L79.905015,41.9386792 L76.0593945,41.9386792 L76.0593945,18.8549528 L77.3314074,18.8549528 L79.905015,18.8549528 L88.6020337,18.8549528 C92.2701641,18.8549528 95.2283337,21.803066 95.2283337,25.4587264 C95.2283337,28.2004717 93.5125953,30.5884434 91.0868962,31.5613208 L96.7665819,41.9386792 L92.9209614,41.9386792 Z M79.905015,22.6875 L79.905015,28.2299528 L88.6020337,28.2299528 C90.140282,28.2299528 91.3827132,26.9917453 91.3827132,25.4587264 C91.3827132,23.9257075 90.140282,22.6875 88.6020337,22.6875 L79.905015,22.6875 Z M148.564132,18 L163,41.9386792 L158.562746,41.9976415 L148.564132,25.3997642 L141.967414,36.3667453 C139.896695,39.7570755 136.169401,42.0271226 131.909637,42.0271226 C125.431246,42.0271226 120.195285,36.8089623 120.195285,30.3525943 C120.195285,23.8962264 125.431246,18.678066 131.909637,18.678066 C135.311532,18.678066 138.358447,20.0931604 140.488329,22.3926887 L138.41761,25.8419811 C136.968107,23.7783019 134.601572,22.4516509 131.909637,22.4516509 C127.531546,22.4516509 123.981743,25.9893868 123.981743,30.3525943 C123.981743,34.7158019 127.531546,38.2535377 131.909637,38.2535377 C134.779062,38.2535377 137.293506,36.7205189 138.683846,34.4209906 L138.683846,34.3915094 L148.564132,18 Z"/>
  </g>
</svg>
