<svg xmlns="http://www.w3.org/2000/svg" width="128" height="128" viewBox="0 0 128 128">
  <g fill="none" fill-rule="evenodd">
    <rect width="128" height="128"/>
    <g fill="#DEEAFA" fill-rule="nonzero">
      <rect width="128" height="1" y="16"/>
      <rect width="1" height="31" x="17" y="17"/>
      <rect width="1" height="31" x="17" y="81"/>
      <rect width="1" height="31" x="63" y="17"/>
      <rect width="1" height="31" x="63" y="81"/>
      <rect width="1" height="31" x="109" y="17"/>
      <rect width="1" height="31" x="109" y="81"/>
      <rect width="1" height="31" x="39" y="49"/>
      <path d="M39,113 L40,113 L40,127.5 C40,127.776142 39.7761424,128 39.5,128 L39.5,128 C39.2238576,128 39,127.776142 39,127.5 L39,113 Z"/>
      <rect width="1" height="31" x="85" y="49"/>
      <path d="M85 113L86 113 86 127.5C86 127.776142 85.7761424 128 85.5 128L85.5 128C85.2238576 128 85 127.776142 85 127.5L85 113zM39.5 0L39.5 0C39.7761424-5.07265313e-17 40 .223857625 40 .5L40 16 39 16 39 .5C39 .223857625 39.2238576 5.07265313e-17 39.5 0zM85.5 0L85.5 0C85.7761424-5.07265313e-17 86 .223857625 86 .5L86 16 85 16 85 .5C85 .223857625 85.2238576 5.07265313e-17 85.5 0z"/>
      <rect width="128" height="1" y="48"/>
      <rect width="128" height="1" y="80"/>
      <rect width="128" height="1" y="112"/>
    </g>
    <g transform="translate(9 25)">
      <rect width="112" height="80" x="4" y="4" fill="#5DCC9B" fill-rule="nonzero" opacity=".4" rx="5"/>
      <g fill="#FFF" transform="translate(23 8)">
        <path d="M34.5,14 C45.269773,14 54,22.7313433 54,33.5 C54,44.2686567 45.269773,53 34.5,53 C23.730227,53 15,44.2686567 15,33.5 C15,22.7313433 23.730227,14 34.5,14 Z M34.5,44.6405473 C40.6545438,44.6405473 45.6428571,39.65073 45.6428571,33.4988451 C45.6428571,27.3449392 40.6545438,22.3571429 34.5,22.3571429 C28.3474774,22.3571429 23.3571429,27.3449392 23.3571429,33.4988451 C23.3571429,39.65073 28.3474774,44.6405473 34.5,44.6405473 Z"/>
        <path fill-rule="nonzero" d="M9.25050571 38.0006748C9.28533043 38.1625276 9.31956383 38.3111854 9.35320589 38.4466481 12.0796064 49.4247388 21.8051176 57.5454545 33.3846944 57.5454545 35.4344737 57.5454545 37.4261559 57.2909924 39.3312026 56.8112629 39.8916548 56.6701297 40.5713338 56.4521387 41.3702397 56.1572899L41.3702412 56.157294C43.065803 55.5315203 44.9675128 56.1865823 45.9180066 57.7238148L46.4509069 58.585674C47.5165808 60.3091872 46.9832966 62.5702699 45.2597835 63.6359437 45.0762122 63.7494486 44.8829836 63.8465347 44.6823458 63.9260725 43.8116975 64.2712018 43.0598516 64.535648 42.4268021 64.7193963 39.5529889 65.5535462 36.5198073 66 33.3846944 66 17.6726735 66 4.52080074 54.786678 1.15893432 39.7561226 1.12667282 39.6118848 1.09423613 39.4568263 1.06162423 39.2909471L1.06160141 39.2909516C.678371754 37.3416685 1.94790891 35.4507933 3.89719201 35.0675637 4.12575826 35.0226275 4.35814908 35 4.59109068 35L5.53552946 35.000004C7.32617621 35.000004 8.87384504 36.2500913 9.25050571 38.0006748zM1.20793908 25.9986692C4.68167204 11.0915291 17.8682012 0 33.6049432 0 36.9968225 0 40.2702266.515279136 43.3534345 1.47298155 43.7273085 1.58911387 44.1513416 1.73708539 44.6255337 1.91689612L44.6255244 1.91692064C46.5242549 2.63690757 47.4798153 4.75979747 46.7598284 6.65852793 46.6802009 6.86851947 46.5815014 7.07077392 46.4649675 7.26275525L45.9323555 8.14020341C44.9968831 9.68132745 43.1072927 10.353022 41.4089753 9.74813382 40.7989568 9.5308641 40.272601 9.3645286 39.8299079 9.24912732 37.839968 8.73038967 35.7541672 8.45454545 33.6049432 8.45454545 22.4255714 8.45454545 12.9622116 15.9179212 9.78001204 26.2072894 9.63383626 26.6799362 9.48490341 27.2737344 9.3332135 27.988684L9.3332143 27.9886842C8.96072048 29.7443336 7.41068991 31 5.61595969 31L4.60813229 31C2.61190498 31 .993643004 29.381738.993643004 27.3855107.993643004 27.1532113 1.01603733 26.9214529 1.06051525 26.6934514 1.10991414 26.439971 1.15907127 26.20838 1.20793908 25.9986692zM57.868995 10.2051983C63.5338428 16.0763089 67 23.954655 67 32.6153614 67 41.3268766 63.4930544 49.2468252 57.769068 55.1286473 57.5006819 55.404434 57.1806041 55.7120166 56.8088345 56.0513953L56.8088187 56.0513779C55.299946 57.428788 52.9601515 57.3222165 51.5827415 55.8133438 51.4493794 55.6672534 51.32795 55.5107016 51.2196212 55.3451942L50.7220723 54.5850447C49.7198122 53.0537675 49.9514061 51.0256101 51.273075 49.7597009 51.7774159 49.2766376 52.1883684 48.852962 52.5059325 48.4886741 56.2444918 44.2000541 58.497172 38.6619385 58.497172 32.6153614 58.497172 26.1383613 55.9123648 20.2447885 51.6852381 15.8454598 51.5125996 15.6657885 51.3097147 15.4666419 51.0765834 15.2480199L51.0765872 15.2480159C49.7427339 13.9971775 49.4889111 11.9737061 50.472491 10.4321704L50.9491956 9.68504553C52.0443626 7.96862273 54.3236065 7.46499543 56.0400293 8.56016247 56.2049812 8.66541032 56.3612921 8.78362352 56.5074806 8.9136817 57.0506597 9.39692236 57.5044971 9.82742869 57.868995 10.2051983z"/>
      </g>
      <circle cx="54.5" cy="73.5" r="1.5" stroke="#053157" stroke-linecap="square" stroke-linejoin="round"/>
      <rect width="111" height="79" stroke="#053157" stroke-linecap="square" stroke-linejoin="round" stroke-width="2" rx="3"/>
      <path stroke="#042C55" stroke-linecap="round" stroke-linejoin="round" stroke-width="2" d="M5,69 L106,69"/>
      <path stroke="#292D36" stroke-linecap="round" stroke-linejoin="round" stroke-width="2" d="M95,79 L95,102"/>
    </g>
  </g>
</svg>
