<?xml version="1.0" standalone="no"?><!DOCTYPE svg PUBLIC "-//W3C//DTD SVG 1.1//EN" "http://www.w3.org/Graphics/SVG/1.1/DTD/svg11.dtd"><svg t="1612225446637" class="icon" viewBox="0 0 1024 1024" version="1.1" xmlns="http://www.w3.org/2000/svg" p-id="2832" xmlns:xlink="http://www.w3.org/1999/xlink" width="25" height="25"><defs><style type="text/css"></style></defs><path d="M116.91008 0h552.05888l262.77376 257.70496V995.4304c0 15.7696-13.19936 28.5696-29.46048 28.5696H116.91008c-16.26112 0-29.45536-12.8-29.45536-28.5696V28.5696C87.4496 12.8 100.64896 0 116.91008 0z" fill="#4A8DFF" p-id="2833"></path><path d="M668.96896 0v229.13536c0 15.79008 13.19936 28.5696 29.46048 28.5696h233.31328L668.96896 0z" fill="#E5F0FF" p-id="2834"></path><path d="M722.7648 823.53664c25.3952 26.96192 71.7056 9.55392 71.7056-26.96704V371.44064h-82.51392v321.97632l-163.96288-174.1824c-7.81312-8.29952-18.87232-13.0304-30.464-13.0304-11.58656 0-22.64064 4.73088-30.45888 13.0304l-163.96288 174.1824v-321.9968H240.62976v425.14944c0 36.52096 46.31552 53.92896 71.71072 26.96704l205.2096-217.99424 205.2096 217.99424z" fill="#FFFFFF" p-id="2835"></path></svg>